<svg xmlns="http://www.w3.org/2000/svg" xmlns:xlink="http://www.w3.org/1999/xlink" width="311.742" height="194.011" viewBox="0 0 311.742 194.011">
  <defs>
    <clipPath id="clip-path">
      <rect id="Rectangle_30" data-name="Rectangle 30" width="194.011" height="311.742" fill="none"/>
    </clipPath>
    <clipPath id="clip-path-2">
      <rect id="Rectangle_31" data-name="Rectangle 31" width="194.011" height="311.742" fill="#fff"/>
    </clipPath>
  </defs>
  <g id="Group_128" data-name="Group 128" transform="translate(0 194.011) rotate(-90)">
    <g id="Group_113" data-name="Group 113">
      <g id="Group_112" data-name="Group 112">
        <g id="Group_111" data-name="Group 111" clip-path="url(#clip-path)">
          <path id="Path_330" data-name="Path 330" d="M8.387,115.622a4.194,4.194,0,1,1-4.193-4.193,4.194,4.194,0,0,1,4.193,4.193" transform="translate(0 21.621)" fill="#060000"/>
          <path id="Path_331" data-name="Path 331" d="M38.573,115.622a4.194,4.194,0,1,1-4.193-4.193,4.194,4.194,0,0,1,4.193,4.193" transform="translate(5.857 21.621)" fill="#060000"/>
          <path id="Path_332" data-name="Path 332" d="M68.758,115.622a4.194,4.194,0,1,1-4.193-4.193,4.193,4.193,0,0,1,4.193,4.193" transform="translate(11.714 21.621)" fill="#060000"/>
          <path id="Path_333" data-name="Path 333" d="M98.943,115.622a4.194,4.194,0,1,1-4.193-4.193,4.194,4.194,0,0,1,4.193,4.193" transform="translate(17.57 21.621)" fill="#060000"/>
          <path id="Path_334" data-name="Path 334" d="M8.387,144.249a4.194,4.194,0,1,1-4.193-4.193,4.194,4.194,0,0,1,4.193,4.193" transform="translate(0 27.175)" fill="#060000"/>
          <path id="Path_335" data-name="Path 335" d="M38.573,144.249a4.194,4.194,0,1,1-4.193-4.193,4.194,4.194,0,0,1,4.193,4.193" transform="translate(5.857 27.175)" fill="#060000"/>
          <path id="Path_336" data-name="Path 336" d="M68.758,144.249a4.194,4.194,0,1,1-4.193-4.193,4.193,4.193,0,0,1,4.193,4.193" transform="translate(11.714 27.175)" fill="#060000"/>
          <path id="Path_337" data-name="Path 337" d="M98.943,144.249a4.194,4.194,0,1,1-4.193-4.193,4.194,4.194,0,0,1,4.193,4.193" transform="translate(17.57 27.175)" fill="#060000"/>
          <path id="Path_338" data-name="Path 338" d="M8.387,172.875a4.194,4.194,0,1,1-4.193-4.193,4.194,4.194,0,0,1,4.193,4.193" transform="translate(0 32.73)" fill="#060000"/>
          <path id="Path_339" data-name="Path 339" d="M38.573,172.875a4.194,4.194,0,1,1-4.193-4.193,4.194,4.194,0,0,1,4.193,4.193" transform="translate(5.857 32.73)" fill="#060000"/>
          <path id="Path_340" data-name="Path 340" d="M68.758,172.875a4.194,4.194,0,1,1-4.193-4.193,4.193,4.193,0,0,1,4.193,4.193" transform="translate(11.714 32.73)" fill="#060000"/>
          <path id="Path_341" data-name="Path 341" d="M98.943,172.875a4.194,4.194,0,1,1-4.193-4.193,4.194,4.194,0,0,1,4.193,4.193" transform="translate(17.57 32.73)" fill="#060000"/>
          <path id="Path_342" data-name="Path 342" d="M8.387,201.5a4.194,4.194,0,1,1-4.193-4.193A4.194,4.194,0,0,1,8.387,201.5" transform="translate(0 38.284)" fill="#060000"/>
          <path id="Path_343" data-name="Path 343" d="M38.573,201.5a4.194,4.194,0,1,1-4.193-4.193,4.194,4.194,0,0,1,4.193,4.193" transform="translate(5.857 38.284)" fill="#060000"/>
          <path id="Path_344" data-name="Path 344" d="M68.758,201.5a4.194,4.194,0,1,1-4.193-4.193,4.193,4.193,0,0,1,4.193,4.193" transform="translate(11.714 38.284)" fill="#060000"/>
          <path id="Path_345" data-name="Path 345" d="M98.943,201.5a4.194,4.194,0,1,1-4.193-4.193,4.194,4.194,0,0,1,4.193,4.193" transform="translate(17.57 38.284)" fill="#060000"/>
          <path id="Path_346" data-name="Path 346" d="M8.387,4.194A4.194,4.194,0,1,1,4.194,0,4.194,4.194,0,0,1,8.387,4.194" transform="translate(0 0)" fill="#060000"/>
          <path id="Path_347" data-name="Path 347" d="M38.573,4.194A4.194,4.194,0,1,1,34.38,0a4.194,4.194,0,0,1,4.193,4.193" transform="translate(5.857 0)" fill="#060000"/>
          <path id="Path_348" data-name="Path 348" d="M68.758,4.194A4.194,4.194,0,1,1,64.565,0a4.193,4.193,0,0,1,4.193,4.193" transform="translate(11.714 0)" fill="#060000"/>
          <path id="Path_349" data-name="Path 349" d="M98.943,4.194A4.194,4.194,0,1,1,94.75,0a4.194,4.194,0,0,1,4.193,4.193" transform="translate(17.57 0)" fill="#060000"/>
          <path id="Path_350" data-name="Path 350" d="M8.387,32.82a4.194,4.194,0,1,1-4.193-4.193A4.194,4.194,0,0,1,8.387,32.82" transform="translate(0 5.555)" fill="#060000"/>
          <path id="Path_351" data-name="Path 351" d="M38.573,32.82a4.194,4.194,0,1,1-4.193-4.193,4.194,4.194,0,0,1,4.193,4.193" transform="translate(5.857 5.555)" fill="#060000"/>
          <path id="Path_352" data-name="Path 352" d="M68.758,32.82a4.194,4.194,0,1,1-4.193-4.193,4.193,4.193,0,0,1,4.193,4.193" transform="translate(11.714 5.555)" fill="#060000"/>
          <path id="Path_353" data-name="Path 353" d="M98.943,32.82a4.194,4.194,0,1,1-4.193-4.193,4.194,4.194,0,0,1,4.193,4.193" transform="translate(17.57 5.555)" fill="#060000"/>
          <path id="Path_354" data-name="Path 354" d="M8.387,61.447a4.194,4.194,0,1,1-4.193-4.193,4.194,4.194,0,0,1,4.193,4.193" transform="translate(0 11.109)" fill="#060000"/>
          <path id="Path_355" data-name="Path 355" d="M38.573,61.447a4.194,4.194,0,1,1-4.193-4.193,4.194,4.194,0,0,1,4.193,4.193" transform="translate(5.857 11.109)" fill="#060000"/>
          <path id="Path_356" data-name="Path 356" d="M68.758,61.447a4.194,4.194,0,1,1-4.193-4.193,4.193,4.193,0,0,1,4.193,4.193" transform="translate(11.714 11.109)" fill="#060000"/>
          <path id="Path_357" data-name="Path 357" d="M98.943,61.447a4.194,4.194,0,1,1-4.193-4.193,4.194,4.194,0,0,1,4.193,4.193" transform="translate(17.57 11.109)" fill="#060000"/>
          <path id="Path_358" data-name="Path 358" d="M8.387,90.073A4.194,4.194,0,1,1,4.194,85.88a4.194,4.194,0,0,1,4.193,4.193" transform="translate(0 16.663)" fill="#060000"/>
          <path id="Path_359" data-name="Path 359" d="M38.573,90.073A4.194,4.194,0,1,1,34.38,85.88a4.194,4.194,0,0,1,4.193,4.193" transform="translate(5.857 16.663)" fill="#060000"/>
          <path id="Path_360" data-name="Path 360" d="M68.758,90.073a4.194,4.194,0,1,1-4.193-4.193,4.193,4.193,0,0,1,4.193,4.193" transform="translate(11.714 16.663)" fill="#060000"/>
          <path id="Path_361" data-name="Path 361" d="M98.943,90.073A4.194,4.194,0,1,1,94.75,85.88a4.194,4.194,0,0,1,4.193,4.193" transform="translate(17.57 16.663)" fill="#060000"/>
        </g>
      </g>
      <g id="Group_114" data-name="Group 114" clip-path="url(#clip-path-2)">
        <path id="Path_363" data-name="Path 363" d="M8.387,115.622a4.194,4.194,0,1,1-4.193-4.193,4.194,4.194,0,0,1,4.193,4.193" transform="translate(0 21.621)" fill="#fff"/>
        <path id="Path_364" data-name="Path 364" d="M38.573,115.622a4.194,4.194,0,1,1-4.193-4.193,4.194,4.194,0,0,1,4.193,4.193" transform="translate(5.857 21.621)" fill="#fff"/>
        <path id="Path_365" data-name="Path 365" d="M68.758,115.622a4.194,4.194,0,1,1-4.193-4.193,4.193,4.193,0,0,1,4.193,4.193" transform="translate(11.714 21.621)" fill="#fff"/>
        <path id="Path_366" data-name="Path 366" d="M98.943,115.622a4.194,4.194,0,1,1-4.193-4.193,4.194,4.194,0,0,1,4.193,4.193" transform="translate(17.57 21.621)" fill="#fff"/>
        <path id="Path_367" data-name="Path 367" d="M8.387,144.249a4.194,4.194,0,1,1-4.193-4.193,4.194,4.194,0,0,1,4.193,4.193" transform="translate(0 27.175)" fill="#fff"/>
        <path id="Path_368" data-name="Path 368" d="M38.573,144.249a4.194,4.194,0,1,1-4.193-4.193,4.194,4.194,0,0,1,4.193,4.193" transform="translate(5.857 27.175)" fill="#fff"/>
        <path id="Path_369" data-name="Path 369" d="M68.758,144.249a4.194,4.194,0,1,1-4.193-4.193,4.193,4.193,0,0,1,4.193,4.193" transform="translate(11.714 27.175)" fill="#fff"/>
        <path id="Path_370" data-name="Path 370" d="M98.943,144.249a4.194,4.194,0,1,1-4.193-4.193,4.194,4.194,0,0,1,4.193,4.193" transform="translate(17.57 27.175)" fill="#fff"/>
        <path id="Path_371" data-name="Path 371" d="M8.387,172.875a4.194,4.194,0,1,1-4.193-4.193,4.194,4.194,0,0,1,4.193,4.193" transform="translate(0 32.73)" fill="#fff"/>
        <path id="Path_372" data-name="Path 372" d="M38.573,172.875a4.194,4.194,0,1,1-4.193-4.193,4.194,4.194,0,0,1,4.193,4.193" transform="translate(5.857 32.73)" fill="#fff"/>
        <path id="Path_373" data-name="Path 373" d="M68.758,172.875a4.194,4.194,0,1,1-4.193-4.193,4.193,4.193,0,0,1,4.193,4.193" transform="translate(11.714 32.73)" fill="#fff"/>
        <path id="Path_374" data-name="Path 374" d="M98.943,172.875a4.194,4.194,0,1,1-4.193-4.193,4.194,4.194,0,0,1,4.193,4.193" transform="translate(17.57 32.73)" fill="#fff"/>
        <path id="Path_375" data-name="Path 375" d="M8.387,201.5a4.194,4.194,0,1,1-4.193-4.193A4.194,4.194,0,0,1,8.387,201.5" transform="translate(0 38.284)" fill="#fff"/>
        <path id="Path_376" data-name="Path 376" d="M38.573,201.5a4.194,4.194,0,1,1-4.193-4.193,4.194,4.194,0,0,1,4.193,4.193" transform="translate(5.857 38.284)" fill="#fff"/>
        <path id="Path_377" data-name="Path 377" d="M68.758,201.5a4.194,4.194,0,1,1-4.193-4.193,4.193,4.193,0,0,1,4.193,4.193" transform="translate(11.714 38.284)" fill="#fff"/>
        <path id="Path_378" data-name="Path 378" d="M98.943,201.5a4.194,4.194,0,1,1-4.193-4.193,4.194,4.194,0,0,1,4.193,4.193" transform="translate(17.57 38.284)" fill="#fff"/>
        <path id="Path_379" data-name="Path 379" d="M8.387,4.194A4.194,4.194,0,1,1,4.194,0,4.194,4.194,0,0,1,8.387,4.194" transform="translate(0 0)" fill="#fff"/>
        <path id="Path_380" data-name="Path 380" d="M38.573,4.194A4.194,4.194,0,1,1,34.38,0a4.194,4.194,0,0,1,4.193,4.193" transform="translate(5.857 0)" fill="#fff"/>
        <path id="Path_381" data-name="Path 381" d="M68.758,4.194A4.194,4.194,0,1,1,64.565,0a4.193,4.193,0,0,1,4.193,4.193" transform="translate(11.714 0)" fill="#fff"/>
        <path id="Path_382" data-name="Path 382" d="M98.943,4.194A4.194,4.194,0,1,1,94.75,0a4.194,4.194,0,0,1,4.193,4.193" transform="translate(17.57 0)" fill="#fff"/>
        <path id="Path_383" data-name="Path 383" d="M8.387,32.82a4.194,4.194,0,1,1-4.193-4.193A4.194,4.194,0,0,1,8.387,32.82" transform="translate(0 5.555)" fill="#fff"/>
        <path id="Path_384" data-name="Path 384" d="M38.573,32.82a4.194,4.194,0,1,1-4.193-4.193,4.194,4.194,0,0,1,4.193,4.193" transform="translate(5.857 5.555)" fill="#fff"/>
        <path id="Path_385" data-name="Path 385" d="M68.758,32.82a4.194,4.194,0,1,1-4.193-4.193,4.193,4.193,0,0,1,4.193,4.193" transform="translate(11.714 5.555)" fill="#fff"/>
        <path id="Path_386" data-name="Path 386" d="M98.943,32.82a4.194,4.194,0,1,1-4.193-4.193,4.194,4.194,0,0,1,4.193,4.193" transform="translate(17.57 5.555)" fill="#fff"/>
        <path id="Path_387" data-name="Path 387" d="M8.387,61.447a4.194,4.194,0,1,1-4.193-4.193,4.194,4.194,0,0,1,4.193,4.193" transform="translate(0 11.109)" fill="#fff"/>
        <path id="Path_388" data-name="Path 388" d="M38.573,61.447a4.194,4.194,0,1,1-4.193-4.193,4.194,4.194,0,0,1,4.193,4.193" transform="translate(5.857 11.109)" fill="#fff"/>
        <path id="Path_389" data-name="Path 389" d="M68.758,61.447a4.194,4.194,0,1,1-4.193-4.193,4.193,4.193,0,0,1,4.193,4.193" transform="translate(11.714 11.109)" fill="#fff"/>
        <path id="Path_390" data-name="Path 390" d="M98.943,61.447a4.194,4.194,0,1,1-4.193-4.193,4.194,4.194,0,0,1,4.193,4.193" transform="translate(17.57 11.109)" fill="#fff"/>
        <path id="Path_391" data-name="Path 391" d="M8.387,90.073A4.194,4.194,0,1,1,4.194,85.88a4.194,4.194,0,0,1,4.193,4.193" transform="translate(0 16.663)" fill="#fff"/>
        <path id="Path_392" data-name="Path 392" d="M38.573,90.073A4.194,4.194,0,1,1,34.38,85.88a4.194,4.194,0,0,1,4.193,4.193" transform="translate(5.857 16.663)" fill="#fff"/>
        <path id="Path_393" data-name="Path 393" d="M68.758,90.073a4.194,4.194,0,1,1-4.193-4.193,4.193,4.193,0,0,1,4.193,4.193" transform="translate(11.714 16.663)" fill="#fff"/>
        <path id="Path_394" data-name="Path 394" d="M98.943,90.073A4.194,4.194,0,1,1,94.75,85.88a4.194,4.194,0,0,1,4.193,4.193" transform="translate(17.57 16.663)" fill="#fff"/>
      </g>
    </g>
    <path id="Path_395" data-name="Path 395" d="M183.73,216.958a65.371,65.371,0,1,1-65.371-65.372,65.372,65.372,0,0,1,65.371,65.372" transform="translate(10.281 29.412)" fill="#1dc221"/>
  </g>
</svg>
