<?xml version="1.0" encoding="utf-8"?>
<!-- Generator: Adobe Illustrator 24.3.0, SVG Export Plug-In . SVG Version: 6.00 Build 0)  -->
<svg version="1.1" id="Layer_1" xmlns="http://www.w3.org/2000/svg" xmlns:xlink="http://www.w3.org/1999/xlink" x="0px" y="0px"
	 viewBox="0 0 439 74" style="enable-background:new 0 0 439 74;" xml:space="preserve">
<style type="text/css">
	.st0{fill:#5F5FFF;}
	.st1{opacity:0.25;fill:#5F5FFF;enable-background:new    ;}
	.st2{opacity:0.5;fill:#5F5FFF;enable-background:new    ;}
</style>
<path class="st0" d="M126.1,29.5c-0.7-1.3-1.7-2.3-3-2.9c-1.3-0.7-2.8-1.1-4.6-1.1c-3,0-5.5,1-7.3,3.1c-1.8,2-2.7,4.7-2.7,8
	c0,3.6,1,6.4,2.9,8.4c1.9,2,4.6,3,8,3c2.3,0,4.2-0.6,5.8-1.8c1.6-1.2,2.8-2.9,3.5-5.1h-11.9v-7h20.4V43c-0.7,2.4-1.9,4.6-3.6,6.6
	c-1.6,2-3.7,3.7-6.3,4.9c-2.6,1.3-5.4,1.9-8.7,1.9c-3.8,0-7.2-0.8-10.2-2.5c-3-1.7-5.3-4-7-7c-1.6-3-2.5-6.4-2.5-10.3
	c0-3.8,0.8-7.3,2.5-10.3c1.7-3,4-5.4,7-7c3-1.7,6.3-2.6,10.1-2.6c4.6,0,8.5,1.1,11.6,3.4c3.2,2.3,5.3,5.4,6.3,9.4H126.1z"/>
<path class="st0" d="M158.2,24.8v7.9h12.6V40h-12.6v8.5h14.2v7.6h-23.6V17.2h23.6v7.6H158.2z"/>
<path class="st0" d="M212.7,17.2v7.6h-10.2v31.3h-9.4V24.8H183v-7.6H212.7z"/>
<path class="st0" d="M247.3,36.2c2.2,0.5,4,1.6,5.4,3.4c1.4,1.7,2,3.7,2,6c0,3.3-1.1,5.8-3.4,7.8c-2.2,1.9-5.4,2.8-9.4,2.8H224V17.2
	h17.3c3.9,0,7,0.9,9.2,2.7c2.2,1.8,3.3,4.3,3.3,7.4c0,2.3-0.6,4.2-1.8,5.7C250.8,34.6,249.2,35.6,247.3,36.2z M233.3,33h6.1
	c1.5,0,2.7-0.3,3.5-1c0.8-0.7,1.3-1.7,1.3-3.1c0-1.3-0.4-2.3-1.3-3.1c-0.8-0.7-2-1.1-3.5-1.1h-6.1V33z M240.2,48.5
	c1.6,0,2.8-0.4,3.6-1.1c0.9-0.7,1.3-1.8,1.3-3.2s-0.5-2.4-1.4-3.2c-0.9-0.8-2.1-1.2-3.7-1.2h-6.8v8.6H240.2z"/>
<path class="st0" d="M276,48.8h12.3v7.3h-21.7V17.2h9.4V48.8z"/>
<path class="st0" d="M317.5,56.6c-3.6,0-6.9-0.9-10-2.6c-3-1.7-5.4-4.1-7.2-7.1c-1.8-3.1-2.6-6.5-2.6-10.3c0-3.8,0.9-7.2,2.6-10.3
	c1.8-3,4.2-5.4,7.2-7.1c3-1.7,6.4-2.6,10-2.6c3.6,0,6.9,0.9,9.9,2.6c3,1.7,5.4,4.1,7.1,7.1c1.8,3,2.6,6.5,2.6,10.3
	c0,3.8-0.9,7.2-2.6,10.3c-1.8,3-4.1,5.4-7.1,7.1C324.4,55.7,321.1,56.6,317.5,56.6z M317.5,47.9c3.1,0,5.5-1,7.3-3.1
	c1.9-2.1,2.8-4.8,2.8-8.2c0-3.4-0.9-6.2-2.8-8.2c-1.8-2.1-4.3-3.1-7.3-3.1c-3.1,0-5.6,1-7.5,3.1c-1.8,2-2.7,4.8-2.7,8.3
	c0,3.4,0.9,6.2,2.7,8.3C311.9,46.9,314.4,47.9,317.5,47.9z"/>
<path class="st0" d="M347.3,36.6c0-3.8,0.8-7.3,2.5-10.3c1.6-3,3.9-5.4,6.9-7c3-1.7,6.3-2.6,10-2.6c4.6,0,8.5,1.2,11.7,3.7
	c3.3,2.4,5.4,5.8,6.5,10h-10.3c-0.8-1.6-1.9-2.9-3.3-3.7c-1.4-0.9-3-1.3-4.8-1.3c-2.9,0-5.2,1-7,3.1c-1.8,2-2.7,4.8-2.7,8.2
	c0,3.4,0.9,6.1,2.7,8.2c1.8,2,4.1,3.1,7,3.1c1.8,0,3.4-0.4,4.8-1.3c1.4-0.9,2.5-2.1,3.3-3.7H385c-1.1,4.2-3.3,7.5-6.5,10
	c-3.3,2.4-7.2,3.6-11.7,3.6c-3.7,0-7.1-0.8-10-2.5c-2.9-1.7-5.2-4-6.9-7C348.2,43.9,347.3,40.5,347.3,36.6z"/>
<path class="st0" d="M419.5,56.2L406.6,39v17.2h-9.4V17.2h9.4v17.1l12.8-17.1h11l-14.9,19.1L431,56.2H419.5z"/>
<g>
	<path class="st0" d="M45.9,36v34.9L16,53.8V18.9L45.9,36z"/>
	<path class="st1" d="M45.9,36l29.9-17.1v34.9L45.9,70.8V36z"/>
	<path class="st2" d="M45.9,1.8l29.9,17.1L45.9,36L16,18.9L45.9,1.8z"/>
</g>
</svg>
