<svg xmlns="http://www.w3.org/2000/svg" width="67.868" height="70.304" viewBox="0 0 67.868 70.304">
  <path id="icons8-website" d="M36.731,2A35.218,35.218,0,0,0,2.8,27.982H5.985A32.093,32.093,0,0,1,11.37,17.564a41.058,41.058,0,0,0,8.973,3.642A56.936,56.936,0,0,0,19,27.982h3.116a55.8,55.8,0,0,1,1.236-6.018A61.276,61.276,0,0,0,35.2,23.349v4.633h3.057V23.349A60.814,60.814,0,0,0,50.11,21.964a55.8,55.8,0,0,1,1.236,6.018h3.116a56.936,56.936,0,0,0-1.343-6.776,41.058,41.058,0,0,0,8.973-3.642,31.964,31.964,0,0,1,5.379,10.418h3.194A35.217,35.217,0,0,0,36.731,2ZM35.2,5.242V20.292a58.14,58.14,0,0,1-10.985-1.278C26.731,11.5,30.713,6.233,35.2,5.242Zm3.057,0c4.489.991,8.472,6.257,10.985,13.773a58.14,58.14,0,0,1-10.985,1.278Zm-10.5,1.116a31.6,31.6,0,0,0-6.567,11.9,38.982,38.982,0,0,1-7.815-3.081A32.158,32.158,0,0,1,27.764,6.358Zm17.934,0A32.158,32.158,0,0,1,60.08,15.182a38.982,38.982,0,0,1-7.815,3.081A31.6,31.6,0,0,0,45.7,6.358ZM3.107,31.038,6.988,43.265h3.558l3.236-9.14,3.236,9.14H20.5L24.45,31.038H21.143l-2.5,8.543-2.854-8.543H11.9l-2.973,8.4-2.454-8.4Zm22.949,0,3.887,12.227h3.564l3.224-9.14,3.242,9.14h3.481l3.952-12.227H44.092L41.6,39.582l-2.854-8.543h-3.9l-2.973,8.4-2.448-8.4Zm22.877,0,3.892,12.227H56.4l3.242-9.14,3.254,9.14H66.39l3.964-12.227H67.035l-2.507,8.543-2.86-8.543H57.751l-2.985,8.4-2.466-8.4ZM2.8,46.322a35.151,35.151,0,0,0,67.868,0H67.471A31.964,31.964,0,0,1,62.092,56.74,41.058,41.058,0,0,0,53.119,53.1a56.936,56.936,0,0,0,1.343-6.776H51.346A55.8,55.8,0,0,1,50.11,52.34a61.276,61.276,0,0,0-11.851-1.385V46.322H35.2v4.633A60.814,60.814,0,0,0,23.352,52.34a55.8,55.8,0,0,1-1.236-6.018H19A56.936,56.936,0,0,0,20.343,53.1,41.058,41.058,0,0,0,11.37,56.74,32.093,32.093,0,0,1,5.985,46.322ZM35.2,54.011V69.062c-4.489-.991-8.472-6.257-10.985-13.773A58.14,58.14,0,0,1,35.2,54.011Zm3.057,0a58.14,58.14,0,0,1,10.985,1.278c-2.513,7.516-6.5,12.782-10.985,13.773ZM21.2,56.041a31.517,31.517,0,0,0,6.561,11.9,32.094,32.094,0,0,1-14.382-8.818A38.549,38.549,0,0,1,21.2,56.041Zm31.062,0a38.982,38.982,0,0,1,7.815,3.081A32.094,32.094,0,0,1,45.7,67.939,31.522,31.522,0,0,0,52.265,56.041Z" transform="translate(-2.797 -2)" fill="#4add3a"/>
</svg>
