<svg xmlns="http://www.w3.org/2000/svg" xmlns:xlink="http://www.w3.org/1999/xlink" preserveAspectRatio="xMidYMid meet" width="262" height="133" viewBox="0 0 262 133" style="width:100%;height:100%"><defs><animateMotion repeatCount="indefinite" dur="3s" begin="0s" xlink:href="#_R_G_L_3_G" fill="freeze" keyTimes="0;1" path="M131.07 342.18 C131.07,296.18 131.07,112.18 131.07,66.18 " keyPoints="0;1" keySplines="0.167 0.167 0.833 0.833" calcMode="spline"/><animateTransform repeatCount="indefinite" dur="3s" begin="0s" xlink:href="#_R_G_L_3_G" fill="freeze" attributeName="transform" from="-24.072 -179.181" to="-24.072 -179.181" type="translate" additive="sum" keyTimes="0;1" values="-24.072 -179.181;-24.072 -179.181" keySplines="0 0 1 1" calcMode="spline"/><animateMotion repeatCount="indefinite" dur="3s" begin="0s" xlink:href="#_R_G_L_2_G_N_4_T_0" fill="freeze" keyTimes="0;1" path="M131.07 342.18 C131.07,296.18 131.07,112.18 131.07,66.18 " keyPoints="0;1" keySplines="0.167 0.167 0.833 0.833" calcMode="spline"/><animateTransform repeatCount="indefinite" dur="3s" begin="0s" xlink:href="#_R_G_L_2_G_N_4_T_0" fill="freeze" attributeName="transform" from="-24.072 -179.181" to="-24.072 -179.181" type="translate" additive="sum" keyTimes="0;1" values="-24.072 -179.181;-24.072 -179.181" keySplines="0 0 1 1" calcMode="spline"/><animateMotion repeatCount="indefinite" dur="3s" begin="0s" xlink:href="#_R_G_L_1_G_N_4_T_0" fill="freeze" keyTimes="0;1" path="M131.07 342.18 C131.07,296.18 131.07,112.18 131.07,66.18 " keyPoints="0;1" keySplines="0.167 0.167 0.833 0.833" calcMode="spline"/><animateTransform repeatCount="indefinite" dur="3s" begin="0s" xlink:href="#_R_G_L_1_G_N_4_T_0" fill="freeze" attributeName="transform" from="-24.072 -179.181" to="-24.072 -179.181" type="translate" additive="sum" keyTimes="0;1" values="-24.072 -179.181;-24.072 -179.181" keySplines="0 0 1 1" calcMode="spline"/><animateMotion repeatCount="indefinite" dur="3s" begin="0s" xlink:href="#_R_G_L_0_G_N_4_T_0" fill="freeze" keyTimes="0;1" path="M131.07 342.18 C131.07,296.18 131.07,112.18 131.07,66.18 " keyPoints="0;1" keySplines="0.167 0.167 0.833 0.833" calcMode="spline"/><animateTransform repeatCount="indefinite" dur="3s" begin="0s" xlink:href="#_R_G_L_0_G_N_4_T_0" fill="freeze" attributeName="transform" from="-24.072 -179.181" to="-24.072 -179.181" type="translate" additive="sum" keyTimes="0;1" values="-24.072 -179.181;-24.072 -179.181" keySplines="0 0 1 1" calcMode="spline"/><animate attributeType="XML" attributeName="opacity" dur="3s" from="0" to="1" xlink:href="#time_group"/></defs><g id="_R_G"><g id="_R_G_L_3_G" opacity="0.3"><path id="_R_G_L_3_G_D_0_P_0" fill="#ffffff" fill-opacity="1" fill-rule="nonzero" d=" M-97.19 132.26 C-97.19,132.26 -106.2,132.26 -106.2,132.26 C-106.2,132.26 -106.2,128.97 -106.2,128.97 C-106.2,128.97 -97.19,128.97 -97.19,128.97 C-97.19,128.97 -97.19,132.26 -97.19,132.26z "/><path id="_R_G_L_3_G_D_1_P_0" fill="#ffffff" fill-opacity="1" fill-rule="nonzero" d=" M54.85 132.26 C54.85,132.26 -90.63,132.26 -90.63,132.26 C-90.63,132.26 -90.63,128.97 -90.63,128.97 C-90.63,128.97 54.85,128.97 54.85,128.97 C54.85,128.97 54.85,132.26 54.85,132.26z "/><path id="_R_G_L_3_G_D_2_P_0" fill="#ffffff" fill-opacity="1" fill-rule="nonzero" d=" M77.49 132.26 C77.49,132.26 60.38,132.26 60.38,132.26 C60.38,132.26 60.38,128.97 60.38,128.97 C60.38,128.97 77.49,128.97 77.49,128.97 C77.49,128.97 77.49,132.26 77.49,132.26z "/><path id="_R_G_L_3_G_D_3_P_0" fill="#ffffff" fill-opacity="1" fill-rule="nonzero" d=" M104.87 176.29 C104.87,176.29 87.76,176.29 87.76,176.29 C87.76,176.29 87.76,173 87.76,173 C87.76,173 104.87,173 104.87,173 C104.87,173 104.87,176.29 104.87,176.29z "/><path id="_R_G_L_3_G_D_4_P_0" fill="#ffffff" fill-opacity="1" fill-rule="nonzero" d=" M138.89 132.26 C138.89,132.26 81.21,132.26 81.21,132.26 C81.21,132.26 81.21,128.97 81.21,128.97 C81.21,128.97 138.89,128.97 138.89,128.97 C138.89,128.97 138.89,132.26 138.89,132.26z "/><path id="_R_G_L_3_G_D_5_P_0" fill="#ffffff" fill-opacity="1" fill-rule="nonzero" d=" M-88.18 141.07 C-88.18,141.07 -97.19,141.07 -97.19,141.07 C-97.19,141.07 -97.19,137.78 -97.19,137.78 C-97.19,137.78 -88.18,137.78 -88.18,137.78 C-88.18,137.78 -88.18,141.07 -88.18,141.07z "/><path id="_R_G_L_3_G_D_6_P_0" fill="#ffffff" fill-opacity="1" fill-rule="nonzero" d=" M-14.04 141.07 C-14.04,141.07 -81.84,141.07 -81.84,141.07 C-81.84,141.07 -81.84,137.78 -81.84,137.78 C-81.84,137.78 -14.04,137.78 -14.04,137.78 C-14.04,137.78 -14.04,141.07 -14.04,141.07z "/><path id="_R_G_L_3_G_D_7_P_0" fill="#ffffff" fill-opacity="1" fill-rule="nonzero" d=" M83.7 176.29 C83.7,176.29 58.05,176.29 58.05,176.29 C58.05,176.29 58.05,173 58.05,173 C58.05,173 83.7,173 83.7,173 C83.7,173 83.7,176.29 83.7,176.29z "/><path id="_R_G_L_3_G_D_8_P_0" fill="#ffffff" fill-opacity="1" fill-rule="nonzero" d=" M-25.86 167.48 C-25.86,167.48 -90.63,167.48 -90.63,167.48 C-90.63,167.48 -90.63,164.19 -90.63,164.19 C-90.63,164.19 -25.86,164.19 -25.86,164.19 C-25.86,164.19 -25.86,167.48 -25.86,167.48z "/><path id="_R_G_L_3_G_D_9_P_0" fill="#ffffff" fill-opacity="1" fill-rule="nonzero" d=" M-36.41 149.87 C-36.41,149.87 -81.84,149.87 -81.84,149.87 C-81.84,149.87 -81.84,146.58 -81.84,146.58 C-81.84,146.58 -36.41,146.58 -36.41,146.58 C-36.41,146.58 -36.41,149.87 -36.41,149.87z "/><path id="_R_G_L_3_G_D_10_P_0" fill="#ffffff" fill-opacity="1" fill-rule="nonzero" d=" M117.26 158.68 C117.26,158.68 71.82,158.68 71.82,158.68 C71.82,158.68 71.82,155.39 71.82,155.39 C71.82,155.39 117.26,155.39 117.26,155.39 C117.26,155.39 117.26,158.68 117.26,158.68z "/><path id="_R_G_L_3_G_D_11_P_0" fill="#ffffff" fill-opacity="1" fill-rule="nonzero" d=" M83.34 149.87 C83.34,149.87 -31.37,149.87 -31.37,149.87 C-31.37,149.87 -31.37,146.58 -31.37,146.58 C-31.37,146.58 83.34,146.58 83.34,146.58 C83.34,146.58 83.34,149.87 83.34,149.87z "/><path id="_R_G_L_3_G_D_12_P_0" fill="#ffffff" fill-opacity="1" fill-rule="nonzero" d=" M52.19 176.29 C52.19,176.29 -90.63,176.29 -90.63,176.29 C-90.63,176.29 -90.63,173 -90.63,173 C-90.63,173 52.19,173 52.19,173 C52.19,173 52.19,176.29 52.19,176.29z "/><path id="_R_G_L_3_G_D_13_P_0" fill="#ffffff" fill-opacity="1" fill-rule="nonzero" d=" M154.34 141.07 C154.34,141.07 79.3,141.07 79.3,141.07 C79.3,141.07 79.3,137.78 79.3,137.78 C79.3,137.78 154.34,137.78 154.34,137.78 C154.34,137.78 154.34,141.07 154.34,141.07z "/><path id="_R_G_L_3_G_D_14_P_0" fill="#ffffff" fill-opacity="1" fill-rule="nonzero" d=" M75.58 141.07 C75.58,141.07 -9.78,141.07 -9.78,141.07 C-9.78,141.07 -9.78,137.78 -9.78,137.78 C-9.78,137.78 75.58,137.78 75.58,137.78 C75.58,137.78 75.58,141.07 75.58,141.07z "/><path id="_R_G_L_3_G_D_15_P_0" fill="#ffffff" fill-opacity="1" fill-rule="nonzero" d=" M144.01 149.87 C144.01,149.87 114.85,149.87 114.85,149.87 C114.85,149.87 114.85,146.58 114.85,146.58 C114.85,146.58 144.01,146.58 144.01,146.58 C144.01,146.58 144.01,149.87 144.01,149.87z "/><path id="_R_G_L_3_G_D_16_P_0" fill="#ffffff" fill-opacity="1" fill-rule="nonzero" d=" M-88.18 149.87 C-88.18,149.87 -97.19,149.87 -97.19,149.87 C-97.19,149.87 -97.19,146.58 -97.19,146.58 C-97.19,146.58 -88.18,146.58 -88.18,146.58 C-88.18,146.58 -88.18,149.87 -88.18,149.87z "/><path id="_R_G_L_3_G_D_17_P_0" fill="#ffffff" fill-opacity="1" fill-rule="nonzero" d=" M-97.19 158.68 C-97.19,158.68 -106.2,158.68 -106.2,158.68 C-106.2,158.68 -106.2,155.39 -106.2,155.39 C-106.2,155.39 -97.19,155.39 -97.19,155.39 C-97.19,155.39 -97.19,158.68 -97.19,158.68z "/><path id="_R_G_L_3_G_D_18_P_0" fill="#ffffff" fill-opacity="1" fill-rule="nonzero" d=" M-37.39 158.68 C-37.39,158.68 -90.63,158.68 -90.63,158.68 C-90.63,158.68 -90.63,155.39 -90.63,155.39 C-90.63,155.39 -37.39,155.39 -37.39,155.39 C-37.39,155.39 -37.39,158.68 -37.39,158.68z "/><path id="_R_G_L_3_G_D_19_P_0" fill="#ffffff" fill-opacity="1" fill-rule="nonzero" d=" M-28.61 185.09 C-28.61,185.09 -81.84,185.09 -81.84,185.09 C-81.84,185.09 -81.84,181.8 -81.84,181.8 C-81.84,181.8 -28.61,181.8 -28.61,181.8 C-28.61,181.8 -28.61,185.09 -28.61,185.09z "/><path id="_R_G_L_3_G_D_20_P_0" fill="#ffffff" fill-opacity="1" fill-rule="nonzero" d=" M128.14 193.9 C128.14,193.9 59.57,193.9 59.57,193.9 C59.57,193.9 59.57,190.61 59.57,190.61 C59.57,190.61 128.14,190.61 128.14,190.61 C128.14,190.61 128.14,193.9 128.14,193.9z "/><path id="_R_G_L_3_G_D_21_P_0" fill="#ffffff" fill-opacity="1" fill-rule="nonzero" d=" M71.25 185.09 C71.25,185.09 -24.29,185.09 -24.29,185.09 C-24.29,185.09 -24.29,181.8 -24.29,181.8 C-24.29,181.8 71.25,181.8 71.25,181.8 C71.25,181.8 71.25,185.09 71.25,185.09z "/><path id="_R_G_L_3_G_D_22_P_0" fill="#ffffff" fill-opacity="1" fill-rule="nonzero" d=" M54.91 193.9 C54.91,193.9 -33.71,193.9 -33.71,193.9 C-33.71,193.9 -33.71,190.61 -33.71,190.61 C-33.71,190.61 54.91,190.61 54.91,190.61 C54.91,190.61 54.91,193.9 54.91,193.9z "/><path id="_R_G_L_3_G_D_23_P_0" fill="#ffffff" fill-opacity="1" fill-rule="nonzero" d=" M-66.43 193.9 C-66.43,193.9 -81.84,193.9 -81.84,193.9 C-81.84,193.9 -81.84,190.61 -81.84,190.61 C-81.84,190.61 -66.43,190.61 -66.43,190.61 C-66.43,190.61 -66.43,193.9 -66.43,193.9z "/><path id="_R_G_L_3_G_D_24_P_0" fill="#ffffff" fill-opacity="1" fill-rule="nonzero" d=" M77.49 167.48 C77.49,167.48 -22.2,167.48 -22.2,167.48 C-22.2,167.48 -22.2,164.19 -22.2,164.19 C-22.2,164.19 77.49,164.19 77.49,164.19 C77.49,164.19 77.49,167.48 77.49,167.48z "/><path id="_R_G_L_3_G_D_25_P_0" fill="#ffffff" fill-opacity="1" fill-rule="nonzero" d=" M145.92 167.48 C145.92,167.48 81.21,167.48 81.21,167.48 C81.21,167.48 81.21,164.19 81.21,164.19 C81.21,164.19 145.92,164.19 145.92,164.19 C145.92,164.19 145.92,167.48 145.92,167.48z "/><path id="_R_G_L_3_G_D_26_P_0" fill="#ffffff" fill-opacity="1" fill-rule="nonzero" d=" M67.64 158.68 C67.64,158.68 -31.98,158.68 -31.98,158.68 C-31.98,158.68 -31.98,155.39 -31.98,155.39 C-31.98,155.39 67.64,155.39 67.64,155.39 C67.64,155.39 67.64,158.68 67.64,158.68z "/><path id="_R_G_L_3_G_D_27_P_0" fill="#ffffff" fill-opacity="1" fill-rule="nonzero" d=" M-97.19 167.48 C-97.19,167.48 -106.2,167.48 -106.2,167.48 C-106.2,167.48 -106.2,164.19 -106.2,164.19 C-106.2,164.19 -97.19,164.19 -97.19,164.19 C-97.19,164.19 -97.19,167.48 -97.19,167.48z "/><path id="_R_G_L_3_G_D_28_P_0" fill="#ffffff" fill-opacity="1" fill-rule="nonzero" d=" M-97.19 176.29 C-97.19,176.29 -106.2,176.29 -106.2,176.29 C-106.2,176.29 -106.2,173 -106.2,173 C-106.2,173 -97.19,173 -97.19,173 C-97.19,173 -97.19,176.29 -97.19,176.29z "/><path id="_R_G_L_3_G_D_29_P_0" fill="#ffffff" fill-opacity="1" fill-rule="nonzero" d=" M-88.18 185.09 C-88.18,185.09 -97.19,185.09 -97.19,185.09 C-97.19,185.09 -97.19,181.8 -97.19,181.8 C-97.19,181.8 -88.18,181.8 -88.18,181.8 C-88.18,181.8 -88.18,185.09 -88.18,185.09z "/><path id="_R_G_L_3_G_D_30_P_0" fill="#ffffff" fill-opacity="1" fill-rule="nonzero" d=" M-88.18 193.9 C-88.18,193.9 -97.19,193.9 -97.19,193.9 C-97.19,193.9 -97.19,190.61 -97.19,190.61 C-97.19,190.61 -88.18,190.61 -88.18,190.61 C-88.18,190.61 -88.18,193.9 -88.18,193.9z "/><path id="_R_G_L_3_G_D_31_P_0" fill="#ffffff" fill-opacity="1" fill-rule="nonzero" d=" M-97.19 201.27 C-97.19,201.27 -106.2,201.27 -106.2,201.27 C-106.2,201.27 -106.2,197.98 -106.2,197.98 C-106.2,197.98 -97.19,197.98 -97.19,197.98 C-97.19,197.98 -97.19,201.27 -97.19,201.27z "/><path id="_R_G_L_3_G_D_32_P_0" fill="#ffffff" fill-opacity="1" fill-rule="nonzero" d=" M14.99 201.27 C14.99,201.27 -90.63,201.27 -90.63,201.27 C-90.63,201.27 -90.63,197.98 -90.63,197.98 C-90.63,197.98 14.99,197.98 14.99,197.98 C14.99,197.98 14.99,201.27 14.99,201.27z "/><path id="_R_G_L_3_G_D_33_P_0" fill="#ffffff" fill-opacity="1" fill-rule="nonzero" d=" M-88.18 210.08 C-88.18,210.08 -97.19,210.08 -97.19,210.08 C-97.19,210.08 -97.19,206.79 -97.19,206.79 C-97.19,206.79 -88.18,206.79 -88.18,206.79 C-88.18,206.79 -88.18,210.08 -88.18,210.08z "/><path id="_R_G_L_3_G_D_34_P_0" fill="#ffffff" fill-opacity="1" fill-rule="nonzero" d=" M-14.04 210.08 C-14.04,210.08 -81.84,210.08 -81.84,210.08 C-81.84,210.08 -81.84,206.79 -81.84,206.79 C-81.84,206.79 -14.04,206.79 -14.04,206.79 C-14.04,206.79 -14.04,210.08 -14.04,210.08z "/><path id="_R_G_L_3_G_D_35_P_0" fill="#ffffff" fill-opacity="1" fill-rule="nonzero" d=" M-25.86 236.49 C-25.86,236.49 -90.63,236.49 -90.63,236.49 C-90.63,236.49 -90.63,233.2 -90.63,233.2 C-90.63,233.2 -25.86,233.2 -25.86,233.2 C-25.86,233.2 -25.86,236.49 -25.86,236.49z "/><path id="_R_G_L_3_G_D_36_P_0" fill="#ffffff" fill-opacity="1" fill-rule="nonzero" d=" M-36.41 218.88 C-36.41,218.88 -81.84,218.88 -81.84,218.88 C-81.84,218.88 -81.84,215.59 -81.84,215.59 C-81.84,215.59 -36.41,215.59 -36.41,215.59 C-36.41,215.59 -36.41,218.88 -36.41,218.88z "/><path id="_R_G_L_3_G_D_37_P_0" fill="#ffffff" fill-opacity="1" fill-rule="nonzero" d=" M83.34 218.88 C83.34,218.88 -31.37,218.88 -31.37,218.88 C-31.37,218.88 -31.37,215.59 -31.37,215.59 C-31.37,215.59 83.34,215.59 83.34,215.59 C83.34,215.59 83.34,218.88 83.34,218.88z "/><path id="_R_G_L_3_G_D_38_P_0" fill="#ffffff" fill-opacity="1" fill-rule="nonzero" d=" M52.19 245.3 C52.19,245.3 -90.63,245.3 -90.63,245.3 C-90.63,245.3 -90.63,242.01 -90.63,242.01 C-90.63,242.01 52.19,242.01 52.19,242.01 C52.19,242.01 52.19,245.3 52.19,245.3z "/><path id="_R_G_L_3_G_D_39_P_0" fill="#ffffff" fill-opacity="1" fill-rule="nonzero" d=" M154.34 210.08 C154.34,210.08 79.3,210.08 79.3,210.08 C79.3,210.08 79.3,206.79 79.3,206.79 C79.3,206.79 154.34,206.79 154.34,206.79 C154.34,206.79 154.34,210.08 154.34,210.08z "/><path id="_R_G_L_3_G_D_40_P_0" fill="#ffffff" fill-opacity="1" fill-rule="nonzero" d=" M75.58 210.08 C75.58,210.08 -9.78,210.08 -9.78,210.08 C-9.78,210.08 -9.78,206.79 -9.78,206.79 C-9.78,206.79 75.58,206.79 75.58,206.79 C75.58,206.79 75.58,210.08 75.58,210.08z "/><path id="_R_G_L_3_G_D_41_P_0" fill="#ffffff" fill-opacity="1" fill-rule="nonzero" d=" M144.01 218.88 C144.01,218.88 114.85,218.88 114.85,218.88 C114.85,218.88 114.85,215.59 114.85,215.59 C114.85,215.59 144.01,215.59 144.01,215.59 C144.01,215.59 144.01,218.88 144.01,218.88z "/><path id="_R_G_L_3_G_D_42_P_0" fill="#ffffff" fill-opacity="1" fill-rule="nonzero" d=" M-88.18 218.88 C-88.18,218.88 -97.19,218.88 -97.19,218.88 C-97.19,218.88 -97.19,215.59 -97.19,215.59 C-97.19,215.59 -88.18,215.59 -88.18,215.59 C-88.18,215.59 -88.18,218.88 -88.18,218.88z "/><path id="_R_G_L_3_G_D_43_P_0" fill="#ffffff" fill-opacity="1" fill-rule="nonzero" d=" M-97.19 227.69 C-97.19,227.69 -106.2,227.69 -106.2,227.69 C-106.2,227.69 -106.2,224.4 -106.2,224.4 C-106.2,224.4 -97.19,224.4 -97.19,224.4 C-97.19,224.4 -97.19,227.69 -97.19,227.69z "/><path id="_R_G_L_3_G_D_44_P_0" fill="#ffffff" fill-opacity="1" fill-rule="nonzero" d=" M-37.39 227.69 C-37.39,227.69 -90.63,227.69 -90.63,227.69 C-90.63,227.69 -90.63,224.4 -90.63,224.4 C-90.63,224.4 -37.39,224.4 -37.39,224.4 C-37.39,224.4 -37.39,227.69 -37.39,227.69z "/><path id="_R_G_L_3_G_D_45_P_0" fill="#ffffff" fill-opacity="1" fill-rule="nonzero" d=" M77.49 236.49 C77.49,236.49 -22.2,236.49 -22.2,236.49 C-22.2,236.49 -22.2,233.2 -22.2,233.2 C-22.2,233.2 77.49,233.2 77.49,233.2 C77.49,233.2 77.49,236.49 77.49,236.49z "/><path id="_R_G_L_3_G_D_46_P_0" fill="#ffffff" fill-opacity="1" fill-rule="nonzero" d=" M67.64 227.69 C67.64,227.69 -31.98,227.69 -31.98,227.69 C-31.98,227.69 -31.98,224.4 -31.98,224.4 C-31.98,224.4 67.64,224.4 67.64,224.4 C67.64,224.4 67.64,227.69 67.64,227.69z "/><path id="_R_G_L_3_G_D_47_P_0" fill="#ffffff" fill-opacity="1" fill-rule="nonzero" d=" M-97.19 236.49 C-97.19,236.49 -106.2,236.49 -106.2,236.49 C-106.2,236.49 -106.2,233.2 -106.2,233.2 C-106.2,233.2 -97.19,233.2 -97.19,233.2 C-97.19,233.2 -97.19,236.49 -97.19,236.49z "/><path id="_R_G_L_3_G_D_48_P_0" fill="#ffffff" fill-opacity="1" fill-rule="nonzero" d=" M-100.63 120.31 C-100.32,120.63 -100.32,121.11 -100.63,121.42 C-100.79,121.57 -100.98,121.64 -101.18,121.64 C-101.39,121.64 -101.59,121.57 -101.75,121.42 C-101.75,121.42 -105.22,117.9 -105.22,117.9 C-105.26,117.89 -105.27,117.86 -105.28,117.82 C-105.29,117.81 -105.32,117.8 -105.32,117.8 C-105.34,117.76 -105.34,117.74 -105.36,117.7 C-105.38,117.69 -105.39,117.66 -105.39,117.65 C-105.4,117.63 -105.41,117.59 -105.42,117.58 C-105.42,117.54 -105.44,117.53 -105.44,117.51 C-105.44,117.48 -105.44,117.45 -105.44,117.43 C-105.44,117.4 -105.45,117.39 -105.45,117.35 C-105.45,117.34 -105.44,117.3 -105.44,117.29 C-105.44,117.27 -105.44,117.23 -105.44,117.21 C-105.44,117.18 -105.42,117.17 -105.42,117.16 C-105.41,117.12 -105.4,117.09 -105.39,117.06 C-105.39,117.04 -105.38,117.04 -105.38,117.03 C-105.35,116.99 -105.34,116.95 -105.32,116.92 C-105.32,116.92 -105.32,116.9 -105.29,116.9 C-105.28,116.87 -105.26,116.83 -105.22,116.81 C-105.22,116.81 -101.75,113.29 -101.75,113.29 C-101.44,112.99 -100.93,112.99 -100.63,113.29 C-100.32,113.6 -100.32,114.09 -100.63,114.4 C-100.63,114.4 -103.56,117.35 -103.56,117.35 C-103.56,117.35 -100.63,120.31 -100.63,120.31z "/><path id="_R_G_L_3_G_D_49_P_0" fill="#ffffff" fill-opacity="1" fill-rule="nonzero" d=" M-97.48 120.7 C-97.48,120.7 -94.46,113.5 -94.46,113.5 C-94.31,113.15 -93.91,112.99 -93.55,113.14 C-93.22,113.27 -93.06,113.68 -93.21,114.02 C-93.21,114.02 -96.24,121.24 -96.24,121.24 C-96.35,121.5 -96.61,121.64 -96.87,121.64 C-96.94,121.64 -97.04,121.63 -97.11,121.6 C-97.47,121.46 -97.63,121.05 -97.48,120.7z "/><path id="_R_G_L_3_G_D_50_P_0" fill="#ffffff" fill-opacity="1" fill-rule="nonzero" d=" M-87.23 117.8 C-87.23,117.8 -87.23,117.81 -87.24,117.81 C-87.26,117.84 -87.29,117.87 -87.33,117.9 C-87.33,117.9 -90.8,121.42 -90.8,121.42 C-90.95,121.57 -91.16,121.64 -91.36,121.64 C-91.57,121.64 -91.75,121.57 -91.91,121.42 C-92.22,121.11 -92.22,120.63 -91.91,120.31 C-91.91,120.31 -88.98,117.35 -88.98,117.35 C-88.98,117.35 -91.91,114.4 -91.91,114.4 C-92.22,114.09 -92.22,113.6 -91.91,113.29 C-91.61,112.99 -91.11,112.99 -90.8,113.29 C-90.8,113.29 -87.33,116.81 -87.33,116.81 C-87.29,116.83 -87.26,116.87 -87.24,116.9 C-87.23,116.9 -87.23,116.92 -87.23,116.92 C-87.2,116.97 -87.18,116.99 -87.16,117.03 C-87.16,117.04 -87.15,117.04 -87.15,117.06 C-87.14,117.09 -87.14,117.12 -87.11,117.17 C-87.11,117.18 -87.1,117.18 -87.1,117.21 C-87.1,117.23 -87.1,117.27 -87.1,117.29 C-87.1,117.3 -87.09,117.34 -87.09,117.35 C-87.09,117.37 -87.1,117.4 -87.1,117.42 C-87.1,117.45 -87.1,117.48 -87.1,117.51 C-87.1,117.53 -87.11,117.53 -87.11,117.54 C-87.14,117.59 -87.14,117.63 -87.15,117.65 C-87.15,117.66 -87.16,117.66 -87.16,117.69 C-87.18,117.71 -87.2,117.75 -87.23,117.8z "/></g><g id="_R_G_L_2_G_N_4_T_0"><g id="_R_G_L_2_G" opacity="0.3" transform=" translate(24.072, 41.848) translate(-24.072, -179.181)"><path id="_R_G_L_2_G_D_0_P_0" fill="#ffffff" fill-opacity="1" fill-rule="nonzero" d=" M-97.19 132.26 C-97.19,132.26 -106.2,132.26 -106.2,132.26 C-106.2,132.26 -106.2,128.97 -106.2,128.97 C-106.2,128.97 -97.19,128.97 -97.19,128.97 C-97.19,128.97 -97.19,132.26 -97.19,132.26z "/><path id="_R_G_L_2_G_D_1_P_0" fill="#ffffff" fill-opacity="1" fill-rule="nonzero" d=" M54.85 132.26 C54.85,132.26 -90.63,132.26 -90.63,132.26 C-90.63,132.26 -90.63,128.97 -90.63,128.97 C-90.63,128.97 54.85,128.97 54.85,128.97 C54.85,128.97 54.85,132.26 54.85,132.26z "/><path id="_R_G_L_2_G_D_2_P_0" fill="#ffffff" fill-opacity="1" fill-rule="nonzero" d=" M77.49 132.26 C77.49,132.26 60.38,132.26 60.38,132.26 C60.38,132.26 60.38,128.97 60.38,128.97 C60.38,128.97 77.49,128.97 77.49,128.97 C77.49,128.97 77.49,132.26 77.49,132.26z "/><path id="_R_G_L_2_G_D_3_P_0" fill="#ffffff" fill-opacity="1" fill-rule="nonzero" d=" M104.87 176.29 C104.87,176.29 87.76,176.29 87.76,176.29 C87.76,176.29 87.76,173 87.76,173 C87.76,173 104.87,173 104.87,173 C104.87,173 104.87,176.29 104.87,176.29z "/><path id="_R_G_L_2_G_D_4_P_0" fill="#ffffff" fill-opacity="1" fill-rule="nonzero" d=" M138.89 132.26 C138.89,132.26 81.21,132.26 81.21,132.26 C81.21,132.26 81.21,128.97 81.21,128.97 C81.21,128.97 138.89,128.97 138.89,128.97 C138.89,128.97 138.89,132.26 138.89,132.26z "/><path id="_R_G_L_2_G_D_5_P_0" fill="#ffffff" fill-opacity="1" fill-rule="nonzero" d=" M-88.18 141.07 C-88.18,141.07 -97.19,141.07 -97.19,141.07 C-97.19,141.07 -97.19,137.78 -97.19,137.78 C-97.19,137.78 -88.18,137.78 -88.18,137.78 C-88.18,137.78 -88.18,141.07 -88.18,141.07z "/><path id="_R_G_L_2_G_D_6_P_0" fill="#ffffff" fill-opacity="1" fill-rule="nonzero" d=" M-14.04 141.07 C-14.04,141.07 -81.84,141.07 -81.84,141.07 C-81.84,141.07 -81.84,137.78 -81.84,137.78 C-81.84,137.78 -14.04,137.78 -14.04,137.78 C-14.04,137.78 -14.04,141.07 -14.04,141.07z "/><path id="_R_G_L_2_G_D_7_P_0" fill="#ffffff" fill-opacity="1" fill-rule="nonzero" d=" M83.7 176.29 C83.7,176.29 58.05,176.29 58.05,176.29 C58.05,176.29 58.05,173 58.05,173 C58.05,173 83.7,173 83.7,173 C83.7,173 83.7,176.29 83.7,176.29z "/><path id="_R_G_L_2_G_D_8_P_0" fill="#ffffff" fill-opacity="1" fill-rule="nonzero" d=" M-25.86 167.48 C-25.86,167.48 -90.63,167.48 -90.63,167.48 C-90.63,167.48 -90.63,164.19 -90.63,164.19 C-90.63,164.19 -25.86,164.19 -25.86,164.19 C-25.86,164.19 -25.86,167.48 -25.86,167.48z "/><path id="_R_G_L_2_G_D_9_P_0" fill="#ffffff" fill-opacity="1" fill-rule="nonzero" d=" M-36.41 149.87 C-36.41,149.87 -81.84,149.87 -81.84,149.87 C-81.84,149.87 -81.84,146.58 -81.84,146.58 C-81.84,146.58 -36.41,146.58 -36.41,146.58 C-36.41,146.58 -36.41,149.87 -36.41,149.87z "/><path id="_R_G_L_2_G_D_10_P_0" fill="#ffffff" fill-opacity="1" fill-rule="nonzero" d=" M117.26 158.68 C117.26,158.68 71.82,158.68 71.82,158.68 C71.82,158.68 71.82,155.39 71.82,155.39 C71.82,155.39 117.26,155.39 117.26,155.39 C117.26,155.39 117.26,158.68 117.26,158.68z "/><path id="_R_G_L_2_G_D_11_P_0" fill="#ffffff" fill-opacity="1" fill-rule="nonzero" d=" M83.34 149.87 C83.34,149.87 -31.37,149.87 -31.37,149.87 C-31.37,149.87 -31.37,146.58 -31.37,146.58 C-31.37,146.58 83.34,146.58 83.34,146.58 C83.34,146.58 83.34,149.87 83.34,149.87z "/><path id="_R_G_L_2_G_D_12_P_0" fill="#ffffff" fill-opacity="1" fill-rule="nonzero" d=" M52.19 176.29 C52.19,176.29 -90.63,176.29 -90.63,176.29 C-90.63,176.29 -90.63,173 -90.63,173 C-90.63,173 52.19,173 52.19,173 C52.19,173 52.19,176.29 52.19,176.29z "/><path id="_R_G_L_2_G_D_13_P_0" fill="#ffffff" fill-opacity="1" fill-rule="nonzero" d=" M154.34 141.07 C154.34,141.07 79.3,141.07 79.3,141.07 C79.3,141.07 79.3,137.78 79.3,137.78 C79.3,137.78 154.34,137.78 154.34,137.78 C154.34,137.78 154.34,141.07 154.34,141.07z "/><path id="_R_G_L_2_G_D_14_P_0" fill="#ffffff" fill-opacity="1" fill-rule="nonzero" d=" M75.58 141.07 C75.58,141.07 -9.78,141.07 -9.78,141.07 C-9.78,141.07 -9.78,137.78 -9.78,137.78 C-9.78,137.78 75.58,137.78 75.58,137.78 C75.58,137.78 75.58,141.07 75.58,141.07z "/><path id="_R_G_L_2_G_D_15_P_0" fill="#ffffff" fill-opacity="1" fill-rule="nonzero" d=" M144.01 149.87 C144.01,149.87 114.85,149.87 114.85,149.87 C114.85,149.87 114.85,146.58 114.85,146.58 C114.85,146.58 144.01,146.58 144.01,146.58 C144.01,146.58 144.01,149.87 144.01,149.87z "/><path id="_R_G_L_2_G_D_16_P_0" fill="#ffffff" fill-opacity="1" fill-rule="nonzero" d=" M-88.18 149.87 C-88.18,149.87 -97.19,149.87 -97.19,149.87 C-97.19,149.87 -97.19,146.58 -97.19,146.58 C-97.19,146.58 -88.18,146.58 -88.18,146.58 C-88.18,146.58 -88.18,149.87 -88.18,149.87z "/><path id="_R_G_L_2_G_D_17_P_0" fill="#ffffff" fill-opacity="1" fill-rule="nonzero" d=" M-97.19 158.68 C-97.19,158.68 -106.2,158.68 -106.2,158.68 C-106.2,158.68 -106.2,155.39 -106.2,155.39 C-106.2,155.39 -97.19,155.39 -97.19,155.39 C-97.19,155.39 -97.19,158.68 -97.19,158.68z "/><path id="_R_G_L_2_G_D_18_P_0" fill="#ffffff" fill-opacity="1" fill-rule="nonzero" d=" M-37.39 158.68 C-37.39,158.68 -90.63,158.68 -90.63,158.68 C-90.63,158.68 -90.63,155.39 -90.63,155.39 C-90.63,155.39 -37.39,155.39 -37.39,155.39 C-37.39,155.39 -37.39,158.68 -37.39,158.68z "/><path id="_R_G_L_2_G_D_19_P_0" fill="#ffffff" fill-opacity="1" fill-rule="nonzero" d=" M-28.61 185.09 C-28.61,185.09 -81.84,185.09 -81.84,185.09 C-81.84,185.09 -81.84,181.8 -81.84,181.8 C-81.84,181.8 -28.61,181.8 -28.61,181.8 C-28.61,181.8 -28.61,185.09 -28.61,185.09z "/><path id="_R_G_L_2_G_D_20_P_0" fill="#ffffff" fill-opacity="1" fill-rule="nonzero" d=" M128.14 193.9 C128.14,193.9 59.57,193.9 59.57,193.9 C59.57,193.9 59.57,190.61 59.57,190.61 C59.57,190.61 128.14,190.61 128.14,190.61 C128.14,190.61 128.14,193.9 128.14,193.9z "/><path id="_R_G_L_2_G_D_21_P_0" fill="#ffffff" fill-opacity="1" fill-rule="nonzero" d=" M71.25 185.09 C71.25,185.09 -24.29,185.09 -24.29,185.09 C-24.29,185.09 -24.29,181.8 -24.29,181.8 C-24.29,181.8 71.25,181.8 71.25,181.8 C71.25,181.8 71.25,185.09 71.25,185.09z "/><path id="_R_G_L_2_G_D_22_P_0" fill="#ffffff" fill-opacity="1" fill-rule="nonzero" d=" M54.91 193.9 C54.91,193.9 -33.71,193.9 -33.71,193.9 C-33.71,193.9 -33.71,190.61 -33.71,190.61 C-33.71,190.61 54.91,190.61 54.91,190.61 C54.91,190.61 54.91,193.9 54.91,193.9z "/><path id="_R_G_L_2_G_D_23_P_0" fill="#ffffff" fill-opacity="1" fill-rule="nonzero" d=" M-66.43 193.9 C-66.43,193.9 -81.84,193.9 -81.84,193.9 C-81.84,193.9 -81.84,190.61 -81.84,190.61 C-81.84,190.61 -66.43,190.61 -66.43,190.61 C-66.43,190.61 -66.43,193.9 -66.43,193.9z "/><path id="_R_G_L_2_G_D_24_P_0" fill="#ffffff" fill-opacity="1" fill-rule="nonzero" d=" M77.49 167.48 C77.49,167.48 -22.2,167.48 -22.2,167.48 C-22.2,167.48 -22.2,164.19 -22.2,164.19 C-22.2,164.19 77.49,164.19 77.49,164.19 C77.49,164.19 77.49,167.48 77.49,167.48z "/><path id="_R_G_L_2_G_D_25_P_0" fill="#ffffff" fill-opacity="1" fill-rule="nonzero" d=" M145.92 167.48 C145.92,167.48 81.21,167.48 81.21,167.48 C81.21,167.48 81.21,164.19 81.21,164.19 C81.21,164.19 145.92,164.19 145.92,164.19 C145.92,164.19 145.92,167.48 145.92,167.48z "/><path id="_R_G_L_2_G_D_26_P_0" fill="#ffffff" fill-opacity="1" fill-rule="nonzero" d=" M67.64 158.68 C67.64,158.68 -31.98,158.68 -31.98,158.68 C-31.98,158.68 -31.98,155.39 -31.98,155.39 C-31.98,155.39 67.64,155.39 67.64,155.39 C67.64,155.39 67.64,158.68 67.64,158.68z "/><path id="_R_G_L_2_G_D_27_P_0" fill="#ffffff" fill-opacity="1" fill-rule="nonzero" d=" M-97.19 167.48 C-97.19,167.48 -106.2,167.48 -106.2,167.48 C-106.2,167.48 -106.2,164.19 -106.2,164.19 C-106.2,164.19 -97.19,164.19 -97.19,164.19 C-97.19,164.19 -97.19,167.48 -97.19,167.48z "/><path id="_R_G_L_2_G_D_28_P_0" fill="#ffffff" fill-opacity="1" fill-rule="nonzero" d=" M-97.19 176.29 C-97.19,176.29 -106.2,176.29 -106.2,176.29 C-106.2,176.29 -106.2,173 -106.2,173 C-106.2,173 -97.19,173 -97.19,173 C-97.19,173 -97.19,176.29 -97.19,176.29z "/><path id="_R_G_L_2_G_D_29_P_0" fill="#ffffff" fill-opacity="1" fill-rule="nonzero" d=" M-88.18 185.09 C-88.18,185.09 -97.19,185.09 -97.19,185.09 C-97.19,185.09 -97.19,181.8 -97.19,181.8 C-97.19,181.8 -88.18,181.8 -88.18,181.8 C-88.18,181.8 -88.18,185.09 -88.18,185.09z "/><path id="_R_G_L_2_G_D_30_P_0" fill="#ffffff" fill-opacity="1" fill-rule="nonzero" d=" M-88.18 193.9 C-88.18,193.9 -97.19,193.9 -97.19,193.9 C-97.19,193.9 -97.19,190.61 -97.19,190.61 C-97.19,190.61 -88.18,190.61 -88.18,190.61 C-88.18,190.61 -88.18,193.9 -88.18,193.9z "/><path id="_R_G_L_2_G_D_31_P_0" fill="#ffffff" fill-opacity="1" fill-rule="nonzero" d=" M-97.19 201.27 C-97.19,201.27 -106.2,201.27 -106.2,201.27 C-106.2,201.27 -106.2,197.98 -106.2,197.98 C-106.2,197.98 -97.19,197.98 -97.19,197.98 C-97.19,197.98 -97.19,201.27 -97.19,201.27z "/><path id="_R_G_L_2_G_D_32_P_0" fill="#ffffff" fill-opacity="1" fill-rule="nonzero" d=" M14.99 201.27 C14.99,201.27 -90.63,201.27 -90.63,201.27 C-90.63,201.27 -90.63,197.98 -90.63,197.98 C-90.63,197.98 14.99,197.98 14.99,197.98 C14.99,197.98 14.99,201.27 14.99,201.27z "/><path id="_R_G_L_2_G_D_33_P_0" fill="#ffffff" fill-opacity="1" fill-rule="nonzero" d=" M-88.18 210.08 C-88.18,210.08 -97.19,210.08 -97.19,210.08 C-97.19,210.08 -97.19,206.79 -97.19,206.79 C-97.19,206.79 -88.18,206.79 -88.18,206.79 C-88.18,206.79 -88.18,210.08 -88.18,210.08z "/><path id="_R_G_L_2_G_D_34_P_0" fill="#ffffff" fill-opacity="1" fill-rule="nonzero" d=" M-14.04 210.08 C-14.04,210.08 -81.84,210.08 -81.84,210.08 C-81.84,210.08 -81.84,206.79 -81.84,206.79 C-81.84,206.79 -14.04,206.79 -14.04,206.79 C-14.04,206.79 -14.04,210.08 -14.04,210.08z "/><path id="_R_G_L_2_G_D_35_P_0" fill="#ffffff" fill-opacity="1" fill-rule="nonzero" d=" M-25.86 236.49 C-25.86,236.49 -90.63,236.49 -90.63,236.49 C-90.63,236.49 -90.63,233.2 -90.63,233.2 C-90.63,233.2 -25.86,233.2 -25.86,233.2 C-25.86,233.2 -25.86,236.49 -25.86,236.49z "/><path id="_R_G_L_2_G_D_36_P_0" fill="#ffffff" fill-opacity="1" fill-rule="nonzero" d=" M-36.41 218.88 C-36.41,218.88 -81.84,218.88 -81.84,218.88 C-81.84,218.88 -81.84,215.59 -81.84,215.59 C-81.84,215.59 -36.41,215.59 -36.41,215.59 C-36.41,215.59 -36.41,218.88 -36.41,218.88z "/><path id="_R_G_L_2_G_D_37_P_0" fill="#ffffff" fill-opacity="1" fill-rule="nonzero" d=" M83.34 218.88 C83.34,218.88 -31.37,218.88 -31.37,218.88 C-31.37,218.88 -31.37,215.59 -31.37,215.59 C-31.37,215.59 83.34,215.59 83.34,215.59 C83.34,215.59 83.34,218.88 83.34,218.88z "/><path id="_R_G_L_2_G_D_38_P_0" fill="#ffffff" fill-opacity="1" fill-rule="nonzero" d=" M52.19 245.3 C52.19,245.3 -90.63,245.3 -90.63,245.3 C-90.63,245.3 -90.63,242.01 -90.63,242.01 C-90.63,242.01 52.19,242.01 52.19,242.01 C52.19,242.01 52.19,245.3 52.19,245.3z "/><path id="_R_G_L_2_G_D_39_P_0" fill="#ffffff" fill-opacity="1" fill-rule="nonzero" d=" M154.34 210.08 C154.34,210.08 79.3,210.08 79.3,210.08 C79.3,210.08 79.3,206.79 79.3,206.79 C79.3,206.79 154.34,206.79 154.34,206.79 C154.34,206.79 154.34,210.08 154.34,210.08z "/><path id="_R_G_L_2_G_D_40_P_0" fill="#ffffff" fill-opacity="1" fill-rule="nonzero" d=" M75.58 210.08 C75.58,210.08 -9.78,210.08 -9.78,210.08 C-9.78,210.08 -9.78,206.79 -9.78,206.79 C-9.78,206.79 75.58,206.79 75.58,206.79 C75.58,206.79 75.58,210.08 75.58,210.08z "/><path id="_R_G_L_2_G_D_41_P_0" fill="#ffffff" fill-opacity="1" fill-rule="nonzero" d=" M144.01 218.88 C144.01,218.88 114.85,218.88 114.85,218.88 C114.85,218.88 114.85,215.59 114.85,215.59 C114.85,215.59 144.01,215.59 144.01,215.59 C144.01,215.59 144.01,218.88 144.01,218.88z "/><path id="_R_G_L_2_G_D_42_P_0" fill="#ffffff" fill-opacity="1" fill-rule="nonzero" d=" M-88.18 218.88 C-88.18,218.88 -97.19,218.88 -97.19,218.88 C-97.19,218.88 -97.19,215.59 -97.19,215.59 C-97.19,215.59 -88.18,215.59 -88.18,215.59 C-88.18,215.59 -88.18,218.88 -88.18,218.88z "/><path id="_R_G_L_2_G_D_43_P_0" fill="#ffffff" fill-opacity="1" fill-rule="nonzero" d=" M-97.19 227.69 C-97.19,227.69 -106.2,227.69 -106.2,227.69 C-106.2,227.69 -106.2,224.4 -106.2,224.4 C-106.2,224.4 -97.19,224.4 -97.19,224.4 C-97.19,224.4 -97.19,227.69 -97.19,227.69z "/><path id="_R_G_L_2_G_D_44_P_0" fill="#ffffff" fill-opacity="1" fill-rule="nonzero" d=" M-37.39 227.69 C-37.39,227.69 -90.63,227.69 -90.63,227.69 C-90.63,227.69 -90.63,224.4 -90.63,224.4 C-90.63,224.4 -37.39,224.4 -37.39,224.4 C-37.39,224.4 -37.39,227.69 -37.39,227.69z "/><path id="_R_G_L_2_G_D_45_P_0" fill="#ffffff" fill-opacity="1" fill-rule="nonzero" d=" M77.49 236.49 C77.49,236.49 -22.2,236.49 -22.2,236.49 C-22.2,236.49 -22.2,233.2 -22.2,233.2 C-22.2,233.2 77.49,233.2 77.49,233.2 C77.49,233.2 77.49,236.49 77.49,236.49z "/><path id="_R_G_L_2_G_D_46_P_0" fill="#ffffff" fill-opacity="1" fill-rule="nonzero" d=" M67.64 227.69 C67.64,227.69 -31.98,227.69 -31.98,227.69 C-31.98,227.69 -31.98,224.4 -31.98,224.4 C-31.98,224.4 67.64,224.4 67.64,224.4 C67.64,224.4 67.64,227.69 67.64,227.69z "/><path id="_R_G_L_2_G_D_47_P_0" fill="#ffffff" fill-opacity="1" fill-rule="nonzero" d=" M-97.19 236.49 C-97.19,236.49 -106.2,236.49 -106.2,236.49 C-106.2,236.49 -106.2,233.2 -106.2,233.2 C-106.2,233.2 -97.19,233.2 -97.19,233.2 C-97.19,233.2 -97.19,236.49 -97.19,236.49z "/><path id="_R_G_L_2_G_D_48_P_0" fill="#ffffff" fill-opacity="1" fill-rule="nonzero" d=" M-100.63 120.31 C-100.32,120.63 -100.32,121.11 -100.63,121.42 C-100.79,121.57 -100.98,121.64 -101.18,121.64 C-101.39,121.64 -101.59,121.57 -101.75,121.42 C-101.75,121.42 -105.22,117.9 -105.22,117.9 C-105.26,117.89 -105.27,117.86 -105.28,117.82 C-105.29,117.81 -105.32,117.8 -105.32,117.8 C-105.34,117.76 -105.34,117.74 -105.36,117.7 C-105.38,117.69 -105.39,117.66 -105.39,117.65 C-105.4,117.63 -105.41,117.59 -105.42,117.58 C-105.42,117.54 -105.44,117.53 -105.44,117.51 C-105.44,117.48 -105.44,117.45 -105.44,117.43 C-105.44,117.4 -105.45,117.39 -105.45,117.35 C-105.45,117.34 -105.44,117.3 -105.44,117.29 C-105.44,117.27 -105.44,117.23 -105.44,117.21 C-105.44,117.18 -105.42,117.17 -105.42,117.16 C-105.41,117.12 -105.4,117.09 -105.39,117.06 C-105.39,117.04 -105.38,117.04 -105.38,117.03 C-105.35,116.99 -105.34,116.95 -105.32,116.92 C-105.32,116.92 -105.32,116.9 -105.29,116.9 C-105.28,116.87 -105.26,116.83 -105.22,116.81 C-105.22,116.81 -101.75,113.29 -101.75,113.29 C-101.44,112.99 -100.93,112.99 -100.63,113.29 C-100.32,113.6 -100.32,114.09 -100.63,114.4 C-100.63,114.4 -103.56,117.35 -103.56,117.35 C-103.56,117.35 -100.63,120.31 -100.63,120.31z "/><path id="_R_G_L_2_G_D_49_P_0" fill="#ffffff" fill-opacity="1" fill-rule="nonzero" d=" M-97.48 120.7 C-97.48,120.7 -94.46,113.5 -94.46,113.5 C-94.31,113.15 -93.91,112.99 -93.55,113.14 C-93.22,113.27 -93.06,113.68 -93.21,114.02 C-93.21,114.02 -96.24,121.24 -96.24,121.24 C-96.35,121.5 -96.61,121.64 -96.87,121.64 C-96.94,121.64 -97.04,121.63 -97.11,121.6 C-97.47,121.46 -97.63,121.05 -97.48,120.7z "/><path id="_R_G_L_2_G_D_50_P_0" fill="#ffffff" fill-opacity="1" fill-rule="nonzero" d=" M-87.23 117.8 C-87.23,117.8 -87.23,117.81 -87.24,117.81 C-87.26,117.84 -87.29,117.87 -87.33,117.9 C-87.33,117.9 -90.8,121.42 -90.8,121.42 C-90.95,121.57 -91.16,121.64 -91.36,121.64 C-91.57,121.64 -91.75,121.57 -91.91,121.42 C-92.22,121.11 -92.22,120.63 -91.91,120.31 C-91.91,120.31 -88.98,117.35 -88.98,117.35 C-88.98,117.35 -91.91,114.4 -91.91,114.4 C-92.22,114.09 -92.22,113.6 -91.91,113.29 C-91.61,112.99 -91.11,112.99 -90.8,113.29 C-90.8,113.29 -87.33,116.81 -87.33,116.81 C-87.29,116.83 -87.26,116.87 -87.24,116.9 C-87.23,116.9 -87.23,116.92 -87.23,116.92 C-87.2,116.97 -87.18,116.99 -87.16,117.03 C-87.16,117.04 -87.15,117.04 -87.15,117.06 C-87.14,117.09 -87.14,117.12 -87.11,117.17 C-87.11,117.18 -87.1,117.18 -87.1,117.21 C-87.1,117.23 -87.1,117.27 -87.1,117.29 C-87.1,117.3 -87.09,117.34 -87.09,117.35 C-87.09,117.37 -87.1,117.4 -87.1,117.42 C-87.1,117.45 -87.1,117.48 -87.1,117.51 C-87.1,117.53 -87.11,117.53 -87.11,117.54 C-87.14,117.59 -87.14,117.63 -87.15,117.65 C-87.15,117.66 -87.16,117.66 -87.16,117.69 C-87.18,117.71 -87.2,117.75 -87.23,117.8z "/></g></g><g id="_R_G_L_1_G_N_4_T_0"><g id="_R_G_L_1_G" opacity="0.3" transform=" translate(24.072, -95.486) translate(-24.072, -179.181)"><path id="_R_G_L_1_G_D_0_P_0" fill="#ffffff" fill-opacity="1" fill-rule="nonzero" d=" M-97.19 132.26 C-97.19,132.26 -106.2,132.26 -106.2,132.26 C-106.2,132.26 -106.2,128.97 -106.2,128.97 C-106.2,128.97 -97.19,128.97 -97.19,128.97 C-97.19,128.97 -97.19,132.26 -97.19,132.26z "/><path id="_R_G_L_1_G_D_1_P_0" fill="#ffffff" fill-opacity="1" fill-rule="nonzero" d=" M54.85 132.26 C54.85,132.26 -90.63,132.26 -90.63,132.26 C-90.63,132.26 -90.63,128.97 -90.63,128.97 C-90.63,128.97 54.85,128.97 54.85,128.97 C54.85,128.97 54.85,132.26 54.85,132.26z "/><path id="_R_G_L_1_G_D_2_P_0" fill="#ffffff" fill-opacity="1" fill-rule="nonzero" d=" M77.49 132.26 C77.49,132.26 60.38,132.26 60.38,132.26 C60.38,132.26 60.38,128.97 60.38,128.97 C60.38,128.97 77.49,128.97 77.49,128.97 C77.49,128.97 77.49,132.26 77.49,132.26z "/><path id="_R_G_L_1_G_D_3_P_0" fill="#ffffff" fill-opacity="1" fill-rule="nonzero" d=" M104.87 176.29 C104.87,176.29 87.76,176.29 87.76,176.29 C87.76,176.29 87.76,173 87.76,173 C87.76,173 104.87,173 104.87,173 C104.87,173 104.87,176.29 104.87,176.29z "/><path id="_R_G_L_1_G_D_4_P_0" fill="#ffffff" fill-opacity="1" fill-rule="nonzero" d=" M138.89 132.26 C138.89,132.26 81.21,132.26 81.21,132.26 C81.21,132.26 81.21,128.97 81.21,128.97 C81.21,128.97 138.89,128.97 138.89,128.97 C138.89,128.97 138.89,132.26 138.89,132.26z "/><path id="_R_G_L_1_G_D_5_P_0" fill="#ffffff" fill-opacity="1" fill-rule="nonzero" d=" M-88.18 141.07 C-88.18,141.07 -97.19,141.07 -97.19,141.07 C-97.19,141.07 -97.19,137.78 -97.19,137.78 C-97.19,137.78 -88.18,137.78 -88.18,137.78 C-88.18,137.78 -88.18,141.07 -88.18,141.07z "/><path id="_R_G_L_1_G_D_6_P_0" fill="#ffffff" fill-opacity="1" fill-rule="nonzero" d=" M-14.04 141.07 C-14.04,141.07 -81.84,141.07 -81.84,141.07 C-81.84,141.07 -81.84,137.78 -81.84,137.78 C-81.84,137.78 -14.04,137.78 -14.04,137.78 C-14.04,137.78 -14.04,141.07 -14.04,141.07z "/><path id="_R_G_L_1_G_D_7_P_0" fill="#ffffff" fill-opacity="1" fill-rule="nonzero" d=" M83.7 176.29 C83.7,176.29 58.05,176.29 58.05,176.29 C58.05,176.29 58.05,173 58.05,173 C58.05,173 83.7,173 83.7,173 C83.7,173 83.7,176.29 83.7,176.29z "/><path id="_R_G_L_1_G_D_8_P_0" fill="#ffffff" fill-opacity="1" fill-rule="nonzero" d=" M-25.86 167.48 C-25.86,167.48 -90.63,167.48 -90.63,167.48 C-90.63,167.48 -90.63,164.19 -90.63,164.19 C-90.63,164.19 -25.86,164.19 -25.86,164.19 C-25.86,164.19 -25.86,167.48 -25.86,167.48z "/><path id="_R_G_L_1_G_D_9_P_0" fill="#ffffff" fill-opacity="1" fill-rule="nonzero" d=" M-36.41 149.87 C-36.41,149.87 -81.84,149.87 -81.84,149.87 C-81.84,149.87 -81.84,146.58 -81.84,146.58 C-81.84,146.58 -36.41,146.58 -36.41,146.58 C-36.41,146.58 -36.41,149.87 -36.41,149.87z "/><path id="_R_G_L_1_G_D_10_P_0" fill="#ffffff" fill-opacity="1" fill-rule="nonzero" d=" M117.26 158.68 C117.26,158.68 71.82,158.68 71.82,158.68 C71.82,158.68 71.82,155.39 71.82,155.39 C71.82,155.39 117.26,155.39 117.26,155.39 C117.26,155.39 117.26,158.68 117.26,158.68z "/><path id="_R_G_L_1_G_D_11_P_0" fill="#ffffff" fill-opacity="1" fill-rule="nonzero" d=" M83.34 149.87 C83.34,149.87 -31.37,149.87 -31.37,149.87 C-31.37,149.87 -31.37,146.58 -31.37,146.58 C-31.37,146.58 83.34,146.58 83.34,146.58 C83.34,146.58 83.34,149.87 83.34,149.87z "/><path id="_R_G_L_1_G_D_12_P_0" fill="#ffffff" fill-opacity="1" fill-rule="nonzero" d=" M52.19 176.29 C52.19,176.29 -90.63,176.29 -90.63,176.29 C-90.63,176.29 -90.63,173 -90.63,173 C-90.63,173 52.19,173 52.19,173 C52.19,173 52.19,176.29 52.19,176.29z "/><path id="_R_G_L_1_G_D_13_P_0" fill="#ffffff" fill-opacity="1" fill-rule="nonzero" d=" M154.34 141.07 C154.34,141.07 79.3,141.07 79.3,141.07 C79.3,141.07 79.3,137.78 79.3,137.78 C79.3,137.78 154.34,137.78 154.34,137.78 C154.34,137.78 154.34,141.07 154.34,141.07z "/><path id="_R_G_L_1_G_D_14_P_0" fill="#ffffff" fill-opacity="1" fill-rule="nonzero" d=" M75.58 141.07 C75.58,141.07 -9.78,141.07 -9.78,141.07 C-9.78,141.07 -9.78,137.78 -9.78,137.78 C-9.78,137.78 75.58,137.78 75.58,137.78 C75.58,137.78 75.58,141.07 75.58,141.07z "/><path id="_R_G_L_1_G_D_15_P_0" fill="#ffffff" fill-opacity="1" fill-rule="nonzero" d=" M144.01 149.87 C144.01,149.87 114.85,149.87 114.85,149.87 C114.85,149.87 114.85,146.58 114.85,146.58 C114.85,146.58 144.01,146.58 144.01,146.58 C144.01,146.58 144.01,149.87 144.01,149.87z "/><path id="_R_G_L_1_G_D_16_P_0" fill="#ffffff" fill-opacity="1" fill-rule="nonzero" d=" M-88.18 149.87 C-88.18,149.87 -97.19,149.87 -97.19,149.87 C-97.19,149.87 -97.19,146.58 -97.19,146.58 C-97.19,146.58 -88.18,146.58 -88.18,146.58 C-88.18,146.58 -88.18,149.87 -88.18,149.87z "/><path id="_R_G_L_1_G_D_17_P_0" fill="#ffffff" fill-opacity="1" fill-rule="nonzero" d=" M-97.19 158.68 C-97.19,158.68 -106.2,158.68 -106.2,158.68 C-106.2,158.68 -106.2,155.39 -106.2,155.39 C-106.2,155.39 -97.19,155.39 -97.19,155.39 C-97.19,155.39 -97.19,158.68 -97.19,158.68z "/><path id="_R_G_L_1_G_D_18_P_0" fill="#ffffff" fill-opacity="1" fill-rule="nonzero" d=" M-37.39 158.68 C-37.39,158.68 -90.63,158.68 -90.63,158.68 C-90.63,158.68 -90.63,155.39 -90.63,155.39 C-90.63,155.39 -37.39,155.39 -37.39,155.39 C-37.39,155.39 -37.39,158.68 -37.39,158.68z "/><path id="_R_G_L_1_G_D_19_P_0" fill="#ffffff" fill-opacity="1" fill-rule="nonzero" d=" M-28.61 185.09 C-28.61,185.09 -81.84,185.09 -81.84,185.09 C-81.84,185.09 -81.84,181.8 -81.84,181.8 C-81.84,181.8 -28.61,181.8 -28.61,181.8 C-28.61,181.8 -28.61,185.09 -28.61,185.09z "/><path id="_R_G_L_1_G_D_20_P_0" fill="#ffffff" fill-opacity="1" fill-rule="nonzero" d=" M128.14 193.9 C128.14,193.9 59.57,193.9 59.57,193.9 C59.57,193.9 59.57,190.61 59.57,190.61 C59.57,190.61 128.14,190.61 128.14,190.61 C128.14,190.61 128.14,193.9 128.14,193.9z "/><path id="_R_G_L_1_G_D_21_P_0" fill="#ffffff" fill-opacity="1" fill-rule="nonzero" d=" M71.25 185.09 C71.25,185.09 -24.29,185.09 -24.29,185.09 C-24.29,185.09 -24.29,181.8 -24.29,181.8 C-24.29,181.8 71.25,181.8 71.25,181.8 C71.25,181.8 71.25,185.09 71.25,185.09z "/><path id="_R_G_L_1_G_D_22_P_0" fill="#ffffff" fill-opacity="1" fill-rule="nonzero" d=" M54.91 193.9 C54.91,193.9 -33.71,193.9 -33.71,193.9 C-33.71,193.9 -33.71,190.61 -33.71,190.61 C-33.71,190.61 54.91,190.61 54.91,190.61 C54.91,190.61 54.91,193.9 54.91,193.9z "/><path id="_R_G_L_1_G_D_23_P_0" fill="#ffffff" fill-opacity="1" fill-rule="nonzero" d=" M-66.43 193.9 C-66.43,193.9 -81.84,193.9 -81.84,193.9 C-81.84,193.9 -81.84,190.61 -81.84,190.61 C-81.84,190.61 -66.43,190.61 -66.43,190.61 C-66.43,190.61 -66.43,193.9 -66.43,193.9z "/><path id="_R_G_L_1_G_D_24_P_0" fill="#ffffff" fill-opacity="1" fill-rule="nonzero" d=" M77.49 167.48 C77.49,167.48 -22.2,167.48 -22.2,167.48 C-22.2,167.48 -22.2,164.19 -22.2,164.19 C-22.2,164.19 77.49,164.19 77.49,164.19 C77.49,164.19 77.49,167.48 77.49,167.48z "/><path id="_R_G_L_1_G_D_25_P_0" fill="#ffffff" fill-opacity="1" fill-rule="nonzero" d=" M145.92 167.48 C145.92,167.48 81.21,167.48 81.21,167.48 C81.21,167.48 81.21,164.19 81.21,164.19 C81.21,164.19 145.92,164.19 145.92,164.19 C145.92,164.19 145.92,167.48 145.92,167.48z "/><path id="_R_G_L_1_G_D_26_P_0" fill="#ffffff" fill-opacity="1" fill-rule="nonzero" d=" M67.64 158.68 C67.64,158.68 -31.98,158.68 -31.98,158.68 C-31.98,158.68 -31.98,155.39 -31.98,155.39 C-31.98,155.39 67.64,155.39 67.64,155.39 C67.64,155.39 67.64,158.68 67.64,158.68z "/><path id="_R_G_L_1_G_D_27_P_0" fill="#ffffff" fill-opacity="1" fill-rule="nonzero" d=" M-97.19 167.48 C-97.19,167.48 -106.2,167.48 -106.2,167.48 C-106.2,167.48 -106.2,164.19 -106.2,164.19 C-106.2,164.19 -97.19,164.19 -97.19,164.19 C-97.19,164.19 -97.19,167.48 -97.19,167.48z "/><path id="_R_G_L_1_G_D_28_P_0" fill="#ffffff" fill-opacity="1" fill-rule="nonzero" d=" M-97.19 176.29 C-97.19,176.29 -106.2,176.29 -106.2,176.29 C-106.2,176.29 -106.2,173 -106.2,173 C-106.2,173 -97.19,173 -97.19,173 C-97.19,173 -97.19,176.29 -97.19,176.29z "/><path id="_R_G_L_1_G_D_29_P_0" fill="#ffffff" fill-opacity="1" fill-rule="nonzero" d=" M-88.18 185.09 C-88.18,185.09 -97.19,185.09 -97.19,185.09 C-97.19,185.09 -97.19,181.8 -97.19,181.8 C-97.19,181.8 -88.18,181.8 -88.18,181.8 C-88.18,181.8 -88.18,185.09 -88.18,185.09z "/><path id="_R_G_L_1_G_D_30_P_0" fill="#ffffff" fill-opacity="1" fill-rule="nonzero" d=" M-88.18 193.9 C-88.18,193.9 -97.19,193.9 -97.19,193.9 C-97.19,193.9 -97.19,190.61 -97.19,190.61 C-97.19,190.61 -88.18,190.61 -88.18,190.61 C-88.18,190.61 -88.18,193.9 -88.18,193.9z "/><path id="_R_G_L_1_G_D_31_P_0" fill="#ffffff" fill-opacity="1" fill-rule="nonzero" d=" M-97.19 201.27 C-97.19,201.27 -106.2,201.27 -106.2,201.27 C-106.2,201.27 -106.2,197.98 -106.2,197.98 C-106.2,197.98 -97.19,197.98 -97.19,197.98 C-97.19,197.98 -97.19,201.27 -97.19,201.27z "/><path id="_R_G_L_1_G_D_32_P_0" fill="#ffffff" fill-opacity="1" fill-rule="nonzero" d=" M14.99 201.27 C14.99,201.27 -90.63,201.27 -90.63,201.27 C-90.63,201.27 -90.63,197.98 -90.63,197.98 C-90.63,197.98 14.99,197.98 14.99,197.98 C14.99,197.98 14.99,201.27 14.99,201.27z "/><path id="_R_G_L_1_G_D_33_P_0" fill="#ffffff" fill-opacity="1" fill-rule="nonzero" d=" M-88.18 210.08 C-88.18,210.08 -97.19,210.08 -97.19,210.08 C-97.19,210.08 -97.19,206.79 -97.19,206.79 C-97.19,206.79 -88.18,206.79 -88.18,206.79 C-88.18,206.79 -88.18,210.08 -88.18,210.08z "/><path id="_R_G_L_1_G_D_34_P_0" fill="#ffffff" fill-opacity="1" fill-rule="nonzero" d=" M-14.04 210.08 C-14.04,210.08 -81.84,210.08 -81.84,210.08 C-81.84,210.08 -81.84,206.79 -81.84,206.79 C-81.84,206.79 -14.04,206.79 -14.04,206.79 C-14.04,206.79 -14.04,210.08 -14.04,210.08z "/><path id="_R_G_L_1_G_D_35_P_0" fill="#ffffff" fill-opacity="1" fill-rule="nonzero" d=" M-25.86 236.49 C-25.86,236.49 -90.63,236.49 -90.63,236.49 C-90.63,236.49 -90.63,233.2 -90.63,233.2 C-90.63,233.2 -25.86,233.2 -25.86,233.2 C-25.86,233.2 -25.86,236.49 -25.86,236.49z "/><path id="_R_G_L_1_G_D_36_P_0" fill="#ffffff" fill-opacity="1" fill-rule="nonzero" d=" M-36.41 218.88 C-36.41,218.88 -81.84,218.88 -81.84,218.88 C-81.84,218.88 -81.84,215.59 -81.84,215.59 C-81.84,215.59 -36.41,215.59 -36.41,215.59 C-36.41,215.59 -36.41,218.88 -36.41,218.88z "/><path id="_R_G_L_1_G_D_37_P_0" fill="#ffffff" fill-opacity="1" fill-rule="nonzero" d=" M83.34 218.88 C83.34,218.88 -31.37,218.88 -31.37,218.88 C-31.37,218.88 -31.37,215.59 -31.37,215.59 C-31.37,215.59 83.34,215.59 83.34,215.59 C83.34,215.59 83.34,218.88 83.34,218.88z "/><path id="_R_G_L_1_G_D_38_P_0" fill="#ffffff" fill-opacity="1" fill-rule="nonzero" d=" M52.19 245.3 C52.19,245.3 -90.63,245.3 -90.63,245.3 C-90.63,245.3 -90.63,242.01 -90.63,242.01 C-90.63,242.01 52.19,242.01 52.19,242.01 C52.19,242.01 52.19,245.3 52.19,245.3z "/><path id="_R_G_L_1_G_D_39_P_0" fill="#ffffff" fill-opacity="1" fill-rule="nonzero" d=" M154.34 210.08 C154.34,210.08 79.3,210.08 79.3,210.08 C79.3,210.08 79.3,206.79 79.3,206.79 C79.3,206.79 154.34,206.79 154.34,206.79 C154.34,206.79 154.34,210.08 154.34,210.08z "/><path id="_R_G_L_1_G_D_40_P_0" fill="#ffffff" fill-opacity="1" fill-rule="nonzero" d=" M75.58 210.08 C75.58,210.08 -9.78,210.08 -9.78,210.08 C-9.78,210.08 -9.78,206.79 -9.78,206.79 C-9.78,206.79 75.58,206.79 75.58,206.79 C75.58,206.79 75.58,210.08 75.58,210.08z "/><path id="_R_G_L_1_G_D_41_P_0" fill="#ffffff" fill-opacity="1" fill-rule="nonzero" d=" M144.01 218.88 C144.01,218.88 114.85,218.88 114.85,218.88 C114.85,218.88 114.85,215.59 114.85,215.59 C114.85,215.59 144.01,215.59 144.01,215.59 C144.01,215.59 144.01,218.88 144.01,218.88z "/><path id="_R_G_L_1_G_D_42_P_0" fill="#ffffff" fill-opacity="1" fill-rule="nonzero" d=" M-88.18 218.88 C-88.18,218.88 -97.19,218.88 -97.19,218.88 C-97.19,218.88 -97.19,215.59 -97.19,215.59 C-97.19,215.59 -88.18,215.59 -88.18,215.59 C-88.18,215.59 -88.18,218.88 -88.18,218.88z "/><path id="_R_G_L_1_G_D_43_P_0" fill="#ffffff" fill-opacity="1" fill-rule="nonzero" d=" M-97.19 227.69 C-97.19,227.69 -106.2,227.69 -106.2,227.69 C-106.2,227.69 -106.2,224.4 -106.2,224.4 C-106.2,224.4 -97.19,224.4 -97.19,224.4 C-97.19,224.4 -97.19,227.69 -97.19,227.69z "/><path id="_R_G_L_1_G_D_44_P_0" fill="#ffffff" fill-opacity="1" fill-rule="nonzero" d=" M-37.39 227.69 C-37.39,227.69 -90.63,227.69 -90.63,227.69 C-90.63,227.69 -90.63,224.4 -90.63,224.4 C-90.63,224.4 -37.39,224.4 -37.39,224.4 C-37.39,224.4 -37.39,227.69 -37.39,227.69z "/><path id="_R_G_L_1_G_D_45_P_0" fill="#ffffff" fill-opacity="1" fill-rule="nonzero" d=" M77.49 236.49 C77.49,236.49 -22.2,236.49 -22.2,236.49 C-22.2,236.49 -22.2,233.2 -22.2,233.2 C-22.2,233.2 77.49,233.2 77.49,233.2 C77.49,233.2 77.49,236.49 77.49,236.49z "/><path id="_R_G_L_1_G_D_46_P_0" fill="#ffffff" fill-opacity="1" fill-rule="nonzero" d=" M67.64 227.69 C67.64,227.69 -31.98,227.69 -31.98,227.69 C-31.98,227.69 -31.98,224.4 -31.98,224.4 C-31.98,224.4 67.64,224.4 67.64,224.4 C67.64,224.4 67.64,227.69 67.64,227.69z "/><path id="_R_G_L_1_G_D_47_P_0" fill="#ffffff" fill-opacity="1" fill-rule="nonzero" d=" M-97.19 236.49 C-97.19,236.49 -106.2,236.49 -106.2,236.49 C-106.2,236.49 -106.2,233.2 -106.2,233.2 C-106.2,233.2 -97.19,233.2 -97.19,233.2 C-97.19,233.2 -97.19,236.49 -97.19,236.49z "/><path id="_R_G_L_1_G_D_48_P_0" fill="#ffffff" fill-opacity="1" fill-rule="nonzero" d=" M-100.63 120.31 C-100.32,120.63 -100.32,121.11 -100.63,121.42 C-100.79,121.57 -100.98,121.64 -101.18,121.64 C-101.39,121.64 -101.59,121.57 -101.75,121.42 C-101.75,121.42 -105.22,117.9 -105.22,117.9 C-105.26,117.89 -105.27,117.86 -105.28,117.82 C-105.29,117.81 -105.32,117.8 -105.32,117.8 C-105.34,117.76 -105.34,117.74 -105.36,117.7 C-105.38,117.69 -105.39,117.66 -105.39,117.65 C-105.4,117.63 -105.41,117.59 -105.42,117.58 C-105.42,117.54 -105.44,117.53 -105.44,117.51 C-105.44,117.48 -105.44,117.45 -105.44,117.43 C-105.44,117.4 -105.45,117.39 -105.45,117.35 C-105.45,117.34 -105.44,117.3 -105.44,117.29 C-105.44,117.27 -105.44,117.23 -105.44,117.21 C-105.44,117.18 -105.42,117.17 -105.42,117.16 C-105.41,117.12 -105.4,117.09 -105.39,117.06 C-105.39,117.04 -105.38,117.04 -105.38,117.03 C-105.35,116.99 -105.34,116.95 -105.32,116.92 C-105.32,116.92 -105.32,116.9 -105.29,116.9 C-105.28,116.87 -105.26,116.83 -105.22,116.81 C-105.22,116.81 -101.75,113.29 -101.75,113.29 C-101.44,112.99 -100.93,112.99 -100.63,113.29 C-100.32,113.6 -100.32,114.09 -100.63,114.4 C-100.63,114.4 -103.56,117.35 -103.56,117.35 C-103.56,117.35 -100.63,120.31 -100.63,120.31z "/><path id="_R_G_L_1_G_D_49_P_0" fill="#ffffff" fill-opacity="1" fill-rule="nonzero" d=" M-97.48 120.7 C-97.48,120.7 -94.46,113.5 -94.46,113.5 C-94.31,113.15 -93.91,112.99 -93.55,113.14 C-93.22,113.27 -93.06,113.68 -93.21,114.02 C-93.21,114.02 -96.24,121.24 -96.24,121.24 C-96.35,121.5 -96.61,121.64 -96.87,121.64 C-96.94,121.64 -97.04,121.63 -97.11,121.6 C-97.47,121.46 -97.63,121.05 -97.48,120.7z "/><path id="_R_G_L_1_G_D_50_P_0" fill="#ffffff" fill-opacity="1" fill-rule="nonzero" d=" M-87.23 117.8 C-87.23,117.8 -87.23,117.81 -87.24,117.81 C-87.26,117.84 -87.29,117.87 -87.33,117.9 C-87.33,117.9 -90.8,121.42 -90.8,121.42 C-90.95,121.57 -91.16,121.64 -91.36,121.64 C-91.57,121.64 -91.75,121.57 -91.91,121.42 C-92.22,121.11 -92.22,120.63 -91.91,120.31 C-91.91,120.31 -88.98,117.35 -88.98,117.35 C-88.98,117.35 -91.91,114.4 -91.91,114.4 C-92.22,114.09 -92.22,113.6 -91.91,113.29 C-91.61,112.99 -91.11,112.99 -90.8,113.29 C-90.8,113.29 -87.33,116.81 -87.33,116.81 C-87.29,116.83 -87.26,116.87 -87.24,116.9 C-87.23,116.9 -87.23,116.92 -87.23,116.92 C-87.2,116.97 -87.18,116.99 -87.16,117.03 C-87.16,117.04 -87.15,117.04 -87.15,117.06 C-87.14,117.09 -87.14,117.12 -87.11,117.17 C-87.11,117.18 -87.1,117.18 -87.1,117.21 C-87.1,117.23 -87.1,117.27 -87.1,117.29 C-87.1,117.3 -87.09,117.34 -87.09,117.35 C-87.09,117.37 -87.1,117.4 -87.1,117.42 C-87.1,117.45 -87.1,117.48 -87.1,117.51 C-87.1,117.53 -87.11,117.53 -87.11,117.54 C-87.14,117.59 -87.14,117.63 -87.15,117.65 C-87.15,117.66 -87.16,117.66 -87.16,117.69 C-87.18,117.71 -87.2,117.75 -87.23,117.8z "/></g></g><g id="_R_G_L_0_G_N_4_T_0"><g id="_R_G_L_0_G" opacity="0.3" transform=" translate(24.072, -232.819) translate(-24.072, -179.181)"><path id="_R_G_L_0_G_D_0_P_0" fill="#ffffff" fill-opacity="1" fill-rule="nonzero" d=" M-97.19 132.26 C-97.19,132.26 -106.2,132.26 -106.2,132.26 C-106.2,132.26 -106.2,128.97 -106.2,128.97 C-106.2,128.97 -97.19,128.97 -97.19,128.97 C-97.19,128.97 -97.19,132.26 -97.19,132.26z "/><path id="_R_G_L_0_G_D_1_P_0" fill="#ffffff" fill-opacity="1" fill-rule="nonzero" d=" M54.85 132.26 C54.85,132.26 -90.63,132.26 -90.63,132.26 C-90.63,132.26 -90.63,128.97 -90.63,128.97 C-90.63,128.97 54.85,128.97 54.85,128.97 C54.85,128.97 54.85,132.26 54.85,132.26z "/><path id="_R_G_L_0_G_D_2_P_0" fill="#ffffff" fill-opacity="1" fill-rule="nonzero" d=" M77.49 132.26 C77.49,132.26 60.38,132.26 60.38,132.26 C60.38,132.26 60.38,128.97 60.38,128.97 C60.38,128.97 77.49,128.97 77.49,128.97 C77.49,128.97 77.49,132.26 77.49,132.26z "/><path id="_R_G_L_0_G_D_3_P_0" fill="#ffffff" fill-opacity="1" fill-rule="nonzero" d=" M104.87 176.29 C104.87,176.29 87.76,176.29 87.76,176.29 C87.76,176.29 87.76,173 87.76,173 C87.76,173 104.87,173 104.87,173 C104.87,173 104.87,176.29 104.87,176.29z "/><path id="_R_G_L_0_G_D_4_P_0" fill="#ffffff" fill-opacity="1" fill-rule="nonzero" d=" M138.89 132.26 C138.89,132.26 81.21,132.26 81.21,132.26 C81.21,132.26 81.21,128.97 81.21,128.97 C81.21,128.97 138.89,128.97 138.89,128.97 C138.89,128.97 138.89,132.26 138.89,132.26z "/><path id="_R_G_L_0_G_D_5_P_0" fill="#ffffff" fill-opacity="1" fill-rule="nonzero" d=" M-88.18 141.07 C-88.18,141.07 -97.19,141.07 -97.19,141.07 C-97.19,141.07 -97.19,137.78 -97.19,137.78 C-97.19,137.78 -88.18,137.78 -88.18,137.78 C-88.18,137.78 -88.18,141.07 -88.18,141.07z "/><path id="_R_G_L_0_G_D_6_P_0" fill="#ffffff" fill-opacity="1" fill-rule="nonzero" d=" M-14.04 141.07 C-14.04,141.07 -81.84,141.07 -81.84,141.07 C-81.84,141.07 -81.84,137.78 -81.84,137.78 C-81.84,137.78 -14.04,137.78 -14.04,137.78 C-14.04,137.78 -14.04,141.07 -14.04,141.07z "/><path id="_R_G_L_0_G_D_7_P_0" fill="#ffffff" fill-opacity="1" fill-rule="nonzero" d=" M83.7 176.29 C83.7,176.29 58.05,176.29 58.05,176.29 C58.05,176.29 58.05,173 58.05,173 C58.05,173 83.7,173 83.7,173 C83.7,173 83.7,176.29 83.7,176.29z "/><path id="_R_G_L_0_G_D_8_P_0" fill="#ffffff" fill-opacity="1" fill-rule="nonzero" d=" M-25.86 167.48 C-25.86,167.48 -90.63,167.48 -90.63,167.48 C-90.63,167.48 -90.63,164.19 -90.63,164.19 C-90.63,164.19 -25.86,164.19 -25.86,164.19 C-25.86,164.19 -25.86,167.48 -25.86,167.48z "/><path id="_R_G_L_0_G_D_9_P_0" fill="#ffffff" fill-opacity="1" fill-rule="nonzero" d=" M-36.41 149.87 C-36.41,149.87 -81.84,149.87 -81.84,149.87 C-81.84,149.87 -81.84,146.58 -81.84,146.58 C-81.84,146.58 -36.41,146.58 -36.41,146.58 C-36.41,146.58 -36.41,149.87 -36.41,149.87z "/><path id="_R_G_L_0_G_D_10_P_0" fill="#ffffff" fill-opacity="1" fill-rule="nonzero" d=" M117.26 158.68 C117.26,158.68 71.82,158.68 71.82,158.68 C71.82,158.68 71.82,155.39 71.82,155.39 C71.82,155.39 117.26,155.39 117.26,155.39 C117.26,155.39 117.26,158.68 117.26,158.68z "/><path id="_R_G_L_0_G_D_11_P_0" fill="#ffffff" fill-opacity="1" fill-rule="nonzero" d=" M83.34 149.87 C83.34,149.87 -31.37,149.87 -31.37,149.87 C-31.37,149.87 -31.37,146.58 -31.37,146.58 C-31.37,146.58 83.34,146.58 83.34,146.58 C83.34,146.58 83.34,149.87 83.34,149.87z "/><path id="_R_G_L_0_G_D_12_P_0" fill="#ffffff" fill-opacity="1" fill-rule="nonzero" d=" M52.19 176.29 C52.19,176.29 -90.63,176.29 -90.63,176.29 C-90.63,176.29 -90.63,173 -90.63,173 C-90.63,173 52.19,173 52.19,173 C52.19,173 52.19,176.29 52.19,176.29z "/><path id="_R_G_L_0_G_D_13_P_0" fill="#ffffff" fill-opacity="1" fill-rule="nonzero" d=" M154.34 141.07 C154.34,141.07 79.3,141.07 79.3,141.07 C79.3,141.07 79.3,137.78 79.3,137.78 C79.3,137.78 154.34,137.78 154.34,137.78 C154.34,137.78 154.34,141.07 154.34,141.07z "/><path id="_R_G_L_0_G_D_14_P_0" fill="#ffffff" fill-opacity="1" fill-rule="nonzero" d=" M75.58 141.07 C75.58,141.07 -9.78,141.07 -9.78,141.07 C-9.78,141.07 -9.78,137.78 -9.78,137.78 C-9.78,137.78 75.58,137.78 75.58,137.78 C75.58,137.78 75.58,141.07 75.58,141.07z "/><path id="_R_G_L_0_G_D_15_P_0" fill="#ffffff" fill-opacity="1" fill-rule="nonzero" d=" M144.01 149.87 C144.01,149.87 114.85,149.87 114.85,149.87 C114.85,149.87 114.85,146.58 114.85,146.58 C114.85,146.58 144.01,146.58 144.01,146.58 C144.01,146.58 144.01,149.87 144.01,149.87z "/><path id="_R_G_L_0_G_D_16_P_0" fill="#ffffff" fill-opacity="1" fill-rule="nonzero" d=" M-88.18 149.87 C-88.18,149.87 -97.19,149.87 -97.19,149.87 C-97.19,149.87 -97.19,146.58 -97.19,146.58 C-97.19,146.58 -88.18,146.58 -88.18,146.58 C-88.18,146.58 -88.18,149.87 -88.18,149.87z "/><path id="_R_G_L_0_G_D_17_P_0" fill="#ffffff" fill-opacity="1" fill-rule="nonzero" d=" M-97.19 158.68 C-97.19,158.68 -106.2,158.68 -106.2,158.68 C-106.2,158.68 -106.2,155.39 -106.2,155.39 C-106.2,155.39 -97.19,155.39 -97.19,155.39 C-97.19,155.39 -97.19,158.68 -97.19,158.68z "/><path id="_R_G_L_0_G_D_18_P_0" fill="#ffffff" fill-opacity="1" fill-rule="nonzero" d=" M-37.39 158.68 C-37.39,158.68 -90.63,158.68 -90.63,158.68 C-90.63,158.68 -90.63,155.39 -90.63,155.39 C-90.63,155.39 -37.39,155.39 -37.39,155.39 C-37.39,155.39 -37.39,158.68 -37.39,158.68z "/><path id="_R_G_L_0_G_D_19_P_0" fill="#ffffff" fill-opacity="1" fill-rule="nonzero" d=" M-28.61 185.09 C-28.61,185.09 -81.84,185.09 -81.84,185.09 C-81.84,185.09 -81.84,181.8 -81.84,181.8 C-81.84,181.8 -28.61,181.8 -28.61,181.8 C-28.61,181.8 -28.61,185.09 -28.61,185.09z "/><path id="_R_G_L_0_G_D_20_P_0" fill="#ffffff" fill-opacity="1" fill-rule="nonzero" d=" M128.14 193.9 C128.14,193.9 59.57,193.9 59.57,193.9 C59.57,193.9 59.57,190.61 59.57,190.61 C59.57,190.61 128.14,190.61 128.14,190.61 C128.14,190.61 128.14,193.9 128.14,193.9z "/><path id="_R_G_L_0_G_D_21_P_0" fill="#ffffff" fill-opacity="1" fill-rule="nonzero" d=" M71.25 185.09 C71.25,185.09 -24.29,185.09 -24.29,185.09 C-24.29,185.09 -24.29,181.8 -24.29,181.8 C-24.29,181.8 71.25,181.8 71.25,181.8 C71.25,181.8 71.25,185.09 71.25,185.09z "/><path id="_R_G_L_0_G_D_22_P_0" fill="#ffffff" fill-opacity="1" fill-rule="nonzero" d=" M54.91 193.9 C54.91,193.9 -33.71,193.9 -33.71,193.9 C-33.71,193.9 -33.71,190.61 -33.71,190.61 C-33.71,190.61 54.91,190.61 54.91,190.61 C54.91,190.61 54.91,193.9 54.91,193.9z "/><path id="_R_G_L_0_G_D_23_P_0" fill="#ffffff" fill-opacity="1" fill-rule="nonzero" d=" M-66.43 193.9 C-66.43,193.9 -81.84,193.9 -81.84,193.9 C-81.84,193.9 -81.84,190.61 -81.84,190.61 C-81.84,190.61 -66.43,190.61 -66.43,190.61 C-66.43,190.61 -66.43,193.9 -66.43,193.9z "/><path id="_R_G_L_0_G_D_24_P_0" fill="#ffffff" fill-opacity="1" fill-rule="nonzero" d=" M77.49 167.48 C77.49,167.48 -22.2,167.48 -22.2,167.48 C-22.2,167.48 -22.2,164.19 -22.2,164.19 C-22.2,164.19 77.49,164.19 77.49,164.19 C77.49,164.19 77.49,167.48 77.49,167.48z "/><path id="_R_G_L_0_G_D_25_P_0" fill="#ffffff" fill-opacity="1" fill-rule="nonzero" d=" M145.92 167.48 C145.92,167.48 81.21,167.48 81.21,167.48 C81.21,167.48 81.21,164.19 81.21,164.19 C81.21,164.19 145.92,164.19 145.92,164.19 C145.92,164.19 145.92,167.48 145.92,167.48z "/><path id="_R_G_L_0_G_D_26_P_0" fill="#ffffff" fill-opacity="1" fill-rule="nonzero" d=" M67.64 158.68 C67.64,158.68 -31.98,158.68 -31.98,158.68 C-31.98,158.68 -31.98,155.39 -31.98,155.39 C-31.98,155.39 67.64,155.39 67.64,155.39 C67.64,155.39 67.64,158.68 67.64,158.68z "/><path id="_R_G_L_0_G_D_27_P_0" fill="#ffffff" fill-opacity="1" fill-rule="nonzero" d=" M-97.19 167.48 C-97.19,167.48 -106.2,167.48 -106.2,167.48 C-106.2,167.48 -106.2,164.19 -106.2,164.19 C-106.2,164.19 -97.19,164.19 -97.19,164.19 C-97.19,164.19 -97.19,167.48 -97.19,167.48z "/><path id="_R_G_L_0_G_D_28_P_0" fill="#ffffff" fill-opacity="1" fill-rule="nonzero" d=" M-97.19 176.29 C-97.19,176.29 -106.2,176.29 -106.2,176.29 C-106.2,176.29 -106.2,173 -106.2,173 C-106.2,173 -97.19,173 -97.19,173 C-97.19,173 -97.19,176.29 -97.19,176.29z "/><path id="_R_G_L_0_G_D_29_P_0" fill="#ffffff" fill-opacity="1" fill-rule="nonzero" d=" M-88.18 185.09 C-88.18,185.09 -97.19,185.09 -97.19,185.09 C-97.19,185.09 -97.19,181.8 -97.19,181.8 C-97.19,181.8 -88.18,181.8 -88.18,181.8 C-88.18,181.8 -88.18,185.09 -88.18,185.09z "/><path id="_R_G_L_0_G_D_30_P_0" fill="#ffffff" fill-opacity="1" fill-rule="nonzero" d=" M-88.18 193.9 C-88.18,193.9 -97.19,193.9 -97.19,193.9 C-97.19,193.9 -97.19,190.61 -97.19,190.61 C-97.19,190.61 -88.18,190.61 -88.18,190.61 C-88.18,190.61 -88.18,193.9 -88.18,193.9z "/><path id="_R_G_L_0_G_D_31_P_0" fill="#ffffff" fill-opacity="1" fill-rule="nonzero" d=" M-97.19 201.27 C-97.19,201.27 -106.2,201.27 -106.2,201.27 C-106.2,201.27 -106.2,197.98 -106.2,197.98 C-106.2,197.98 -97.19,197.98 -97.19,197.98 C-97.19,197.98 -97.19,201.27 -97.19,201.27z "/><path id="_R_G_L_0_G_D_32_P_0" fill="#ffffff" fill-opacity="1" fill-rule="nonzero" d=" M14.99 201.27 C14.99,201.27 -90.63,201.27 -90.63,201.27 C-90.63,201.27 -90.63,197.98 -90.63,197.98 C-90.63,197.98 14.99,197.98 14.99,197.98 C14.99,197.98 14.99,201.27 14.99,201.27z "/><path id="_R_G_L_0_G_D_33_P_0" fill="#ffffff" fill-opacity="1" fill-rule="nonzero" d=" M-88.18 210.08 C-88.18,210.08 -97.19,210.08 -97.19,210.08 C-97.19,210.08 -97.19,206.79 -97.19,206.79 C-97.19,206.79 -88.18,206.79 -88.18,206.79 C-88.18,206.79 -88.18,210.08 -88.18,210.08z "/><path id="_R_G_L_0_G_D_34_P_0" fill="#ffffff" fill-opacity="1" fill-rule="nonzero" d=" M-14.04 210.08 C-14.04,210.08 -81.84,210.08 -81.84,210.08 C-81.84,210.08 -81.84,206.79 -81.84,206.79 C-81.84,206.79 -14.04,206.79 -14.04,206.79 C-14.04,206.79 -14.04,210.08 -14.04,210.08z "/><path id="_R_G_L_0_G_D_35_P_0" fill="#ffffff" fill-opacity="1" fill-rule="nonzero" d=" M-25.86 236.49 C-25.86,236.49 -90.63,236.49 -90.63,236.49 C-90.63,236.49 -90.63,233.2 -90.63,233.2 C-90.63,233.2 -25.86,233.2 -25.86,233.2 C-25.86,233.2 -25.86,236.49 -25.86,236.49z "/><path id="_R_G_L_0_G_D_36_P_0" fill="#ffffff" fill-opacity="1" fill-rule="nonzero" d=" M-36.41 218.88 C-36.41,218.88 -81.84,218.88 -81.84,218.88 C-81.84,218.88 -81.84,215.59 -81.84,215.59 C-81.84,215.59 -36.41,215.59 -36.41,215.59 C-36.41,215.59 -36.41,218.88 -36.41,218.88z "/><path id="_R_G_L_0_G_D_37_P_0" fill="#ffffff" fill-opacity="1" fill-rule="nonzero" d=" M83.34 218.88 C83.34,218.88 -31.37,218.88 -31.37,218.88 C-31.37,218.88 -31.37,215.59 -31.37,215.59 C-31.37,215.59 83.34,215.59 83.34,215.59 C83.34,215.59 83.34,218.88 83.34,218.88z "/><path id="_R_G_L_0_G_D_38_P_0" fill="#ffffff" fill-opacity="1" fill-rule="nonzero" d=" M52.19 245.3 C52.19,245.3 -90.63,245.3 -90.63,245.3 C-90.63,245.3 -90.63,242.01 -90.63,242.01 C-90.63,242.01 52.19,242.01 52.19,242.01 C52.19,242.01 52.19,245.3 52.19,245.3z "/><path id="_R_G_L_0_G_D_39_P_0" fill="#ffffff" fill-opacity="1" fill-rule="nonzero" d=" M154.34 210.08 C154.34,210.08 79.3,210.08 79.3,210.08 C79.3,210.08 79.3,206.79 79.3,206.79 C79.3,206.79 154.34,206.79 154.34,206.79 C154.34,206.79 154.34,210.08 154.34,210.08z "/><path id="_R_G_L_0_G_D_40_P_0" fill="#ffffff" fill-opacity="1" fill-rule="nonzero" d=" M75.58 210.08 C75.58,210.08 -9.78,210.08 -9.78,210.08 C-9.78,210.08 -9.78,206.79 -9.78,206.79 C-9.78,206.79 75.58,206.79 75.58,206.79 C75.58,206.79 75.58,210.08 75.58,210.08z "/><path id="_R_G_L_0_G_D_41_P_0" fill="#ffffff" fill-opacity="1" fill-rule="nonzero" d=" M144.01 218.88 C144.01,218.88 114.85,218.88 114.85,218.88 C114.85,218.88 114.85,215.59 114.85,215.59 C114.85,215.59 144.01,215.59 144.01,215.59 C144.01,215.59 144.01,218.88 144.01,218.88z "/><path id="_R_G_L_0_G_D_42_P_0" fill="#ffffff" fill-opacity="1" fill-rule="nonzero" d=" M-88.18 218.88 C-88.18,218.88 -97.19,218.88 -97.19,218.88 C-97.19,218.88 -97.19,215.59 -97.19,215.59 C-97.19,215.59 -88.18,215.59 -88.18,215.59 C-88.18,215.59 -88.18,218.88 -88.18,218.88z "/><path id="_R_G_L_0_G_D_43_P_0" fill="#ffffff" fill-opacity="1" fill-rule="nonzero" d=" M-97.19 227.69 C-97.19,227.69 -106.2,227.69 -106.2,227.69 C-106.2,227.69 -106.2,224.4 -106.2,224.4 C-106.2,224.4 -97.19,224.4 -97.19,224.4 C-97.19,224.4 -97.19,227.69 -97.19,227.69z "/><path id="_R_G_L_0_G_D_44_P_0" fill="#ffffff" fill-opacity="1" fill-rule="nonzero" d=" M-37.39 227.69 C-37.39,227.69 -90.63,227.69 -90.63,227.69 C-90.63,227.69 -90.63,224.4 -90.63,224.4 C-90.63,224.4 -37.39,224.4 -37.39,224.4 C-37.39,224.4 -37.39,227.69 -37.39,227.69z "/><path id="_R_G_L_0_G_D_45_P_0" fill="#ffffff" fill-opacity="1" fill-rule="nonzero" d=" M77.49 236.49 C77.49,236.49 -22.2,236.49 -22.2,236.49 C-22.2,236.49 -22.2,233.2 -22.2,233.2 C-22.2,233.2 77.49,233.2 77.49,233.2 C77.49,233.2 77.49,236.49 77.49,236.49z "/><path id="_R_G_L_0_G_D_46_P_0" fill="#ffffff" fill-opacity="1" fill-rule="nonzero" d=" M67.64 227.69 C67.64,227.69 -31.98,227.69 -31.98,227.69 C-31.98,227.69 -31.98,224.4 -31.98,224.4 C-31.98,224.4 67.64,224.4 67.64,224.4 C67.64,224.4 67.64,227.69 67.64,227.69z "/><path id="_R_G_L_0_G_D_47_P_0" fill="#ffffff" fill-opacity="1" fill-rule="nonzero" d=" M-97.19 236.49 C-97.19,236.49 -106.2,236.49 -106.2,236.49 C-106.2,236.49 -106.2,233.2 -106.2,233.2 C-106.2,233.2 -97.19,233.2 -97.19,233.2 C-97.19,233.2 -97.19,236.49 -97.19,236.49z "/><path id="_R_G_L_0_G_D_48_P_0" fill="#ffffff" fill-opacity="1" fill-rule="nonzero" d=" M-100.63 120.31 C-100.32,120.63 -100.32,121.11 -100.63,121.42 C-100.79,121.57 -100.98,121.64 -101.18,121.64 C-101.39,121.64 -101.59,121.57 -101.75,121.42 C-101.75,121.42 -105.22,117.9 -105.22,117.9 C-105.26,117.89 -105.27,117.86 -105.28,117.82 C-105.29,117.81 -105.32,117.8 -105.32,117.8 C-105.34,117.76 -105.34,117.74 -105.36,117.7 C-105.38,117.69 -105.39,117.66 -105.39,117.65 C-105.4,117.63 -105.41,117.59 -105.42,117.58 C-105.42,117.54 -105.44,117.53 -105.44,117.51 C-105.44,117.48 -105.44,117.45 -105.44,117.43 C-105.44,117.4 -105.45,117.39 -105.45,117.35 C-105.45,117.34 -105.44,117.3 -105.44,117.29 C-105.44,117.27 -105.44,117.23 -105.44,117.21 C-105.44,117.18 -105.42,117.17 -105.42,117.16 C-105.41,117.12 -105.4,117.09 -105.39,117.06 C-105.39,117.04 -105.38,117.04 -105.38,117.03 C-105.35,116.99 -105.34,116.95 -105.32,116.92 C-105.32,116.92 -105.32,116.9 -105.29,116.9 C-105.28,116.87 -105.26,116.83 -105.22,116.81 C-105.22,116.81 -101.75,113.29 -101.75,113.29 C-101.44,112.99 -100.93,112.99 -100.63,113.29 C-100.32,113.6 -100.32,114.09 -100.63,114.4 C-100.63,114.4 -103.56,117.35 -103.56,117.35 C-103.56,117.35 -100.63,120.31 -100.63,120.31z "/><path id="_R_G_L_0_G_D_49_P_0" fill="#ffffff" fill-opacity="1" fill-rule="nonzero" d=" M-97.48 120.7 C-97.48,120.7 -94.46,113.5 -94.46,113.5 C-94.31,113.15 -93.91,112.99 -93.55,113.14 C-93.22,113.27 -93.06,113.68 -93.21,114.02 C-93.21,114.02 -96.24,121.24 -96.24,121.24 C-96.35,121.5 -96.61,121.64 -96.87,121.64 C-96.94,121.64 -97.04,121.63 -97.11,121.6 C-97.47,121.46 -97.63,121.05 -97.48,120.7z "/><path id="_R_G_L_0_G_D_50_P_0" fill="#ffffff" fill-opacity="1" fill-rule="nonzero" d=" M-87.23 117.8 C-87.23,117.8 -87.23,117.81 -87.24,117.81 C-87.26,117.84 -87.29,117.87 -87.33,117.9 C-87.33,117.9 -90.8,121.42 -90.8,121.42 C-90.95,121.57 -91.16,121.64 -91.36,121.64 C-91.57,121.64 -91.75,121.57 -91.91,121.42 C-92.22,121.11 -92.22,120.63 -91.91,120.31 C-91.91,120.31 -88.98,117.35 -88.98,117.35 C-88.98,117.35 -91.91,114.4 -91.91,114.4 C-92.22,114.09 -92.22,113.6 -91.91,113.29 C-91.61,112.99 -91.11,112.99 -90.8,113.29 C-90.8,113.29 -87.33,116.81 -87.33,116.81 C-87.29,116.83 -87.26,116.87 -87.24,116.9 C-87.23,116.9 -87.23,116.92 -87.23,116.92 C-87.2,116.97 -87.18,116.99 -87.16,117.03 C-87.16,117.04 -87.15,117.04 -87.15,117.06 C-87.14,117.09 -87.14,117.12 -87.11,117.17 C-87.11,117.18 -87.1,117.18 -87.1,117.21 C-87.1,117.23 -87.1,117.27 -87.1,117.29 C-87.1,117.3 -87.09,117.34 -87.09,117.35 C-87.09,117.37 -87.1,117.4 -87.1,117.42 C-87.1,117.45 -87.1,117.48 -87.1,117.51 C-87.1,117.53 -87.11,117.53 -87.11,117.54 C-87.14,117.59 -87.14,117.63 -87.15,117.65 C-87.15,117.66 -87.16,117.66 -87.16,117.69 C-87.18,117.71 -87.2,117.75 -87.23,117.8z "/></g></g></g><g id="time_group"/></svg>