<svg xmlns="http://www.w3.org/2000/svg" xmlns:xlink="http://www.w3.org/1999/xlink" preserveAspectRatio="xMidYMid meet" width="1080" height="708" viewBox="0 0 1080 708" style="width:100%;height:100%"><defs><animateMotion repeatCount="indefinite" dur="3s" begin="0s" xlink:href="#_R_G_L_36_G" fill="freeze" keyTimes="0;0.5222222;1" path="M175.43 173.52 C176.76,173.52 183.43,173.52 183.43,173.52 C183.43,173.52 176.76,173.52 175.43,173.52 " keyPoints="0;0.5;1" keySplines="0.167 0.167 0.667 1;0.333 0 0.833 0.833" calcMode="spline"/><animateTransform repeatCount="indefinite" dur="3s" begin="0s" xlink:href="#_R_G_L_36_G" fill="freeze" attributeName="transform" from="364.574 180.478" to="364.574 180.478" type="translate" additive="sum" keyTimes="0;1" values="364.574 180.478;364.574 180.478" keySplines="0 0 1 1" calcMode="spline"/><animateMotion repeatCount="indefinite" dur="3s" begin="0s" xlink:href="#_R_G_L_35_G" fill="freeze" keyTimes="0;0.5222222;1" path="M802.82 35.07 C801.82,35.07 796.82,35.07 796.82,35.07 C796.82,35.07 801.82,35.07 802.82,35.07 " keyPoints="0;0.5;1" keySplines="0.167 0.167 0.667 1;0.333 0 0.833 0.833" calcMode="spline"/><animateTransform repeatCount="indefinite" dur="3s" begin="0s" xlink:href="#_R_G_L_35_G" fill="freeze" attributeName="transform" from="-262.822 318.933" to="-262.822 318.933" type="translate" additive="sum" keyTimes="0;1" values="-262.822 318.933;-262.822 318.933" keySplines="0 0 1 1" calcMode="spline"/><animate repeatCount="indefinite" dur="3s" begin="0s" xlink:href="#_R_G_L_33_G" fill="freeze" attributeName="opacity" from="0" to="0" keyTimes="0;0.1333333;0.7444444;0.8777778;1" values="0;0.3;0.3;0;0" keySplines="0.8 0 0.4 1;0.8 0 0.4 1;0.8 0 0.4 1;0 0 0 0" calcMode="spline"/><animate repeatCount="indefinite" dur="3s" begin="0s" xlink:href="#_R_G_L_32_G" fill="freeze" attributeName="opacity" from="0" to="0" keyTimes="0;0.1444444;0.2777778;0.8555556;0.9888889;1" values="0;0;0.5;0.5;0;0" keySplines="0.8 0 0.4 1;0.8 0 0.4 1;0.8 0 0.4 1;0.8 0 0.4 1;0 0 0 0" calcMode="spline"/><animateTransform repeatCount="indefinite" dur="3s" begin="0s" xlink:href="#_R_G_L_31_G" fill="freeze" attributeName="transform" from="0 0" to="0 0" type="scale" additive="sum" keyTimes="0;0.2333333;0.8777778;1" values="0 0;1 1;1 1;0 0" keySplines="0.8 0 0.4 1;0.8 0 0.4 1;0.8 0 0.4 1" calcMode="spline"/><animateTransform repeatCount="indefinite" dur="3s" begin="0s" xlink:href="#_R_G_L_31_G" fill="freeze" attributeName="transform" from="-421.616 169.884" to="-421.616 169.884" type="translate" additive="sum" keyTimes="0;1" values="-421.616 169.884;-421.616 169.884" keySplines="0 0 1 1" calcMode="spline"/><animateTransform repeatCount="indefinite" dur="3s" begin="0s" xlink:href="#_R_G_L_30_G" fill="freeze" attributeName="transform" from="0 0" to="0 0" type="scale" additive="sum" keyTimes="0;0.1222222;0.3555556;0.8777778;1" values="0 0;0 0;1 1;1 1;0 0" keySplines="0.8 0 0.4 1;0.8 0 0.4 1;0.8 0 0.4 1;0.8 0 0.4 1" calcMode="spline"/><animateTransform repeatCount="indefinite" dur="3s" begin="0s" xlink:href="#_R_G_L_30_G" fill="freeze" attributeName="transform" from="356.838 -219.877" to="356.838 -219.877" type="translate" additive="sum" keyTimes="0;1" values="356.838 -219.877;356.838 -219.877" keySplines="0 0 1 1" calcMode="spline"/><animateMotion repeatCount="indefinite" dur="3s" begin="0s" xlink:href="#_R_G_L_29_G" fill="freeze" keyTimes="0;0.5222222;1" path="M331.91 537.54 C329.91,537.54 319.91,537.54 319.91,537.54 C319.91,537.54 329.91,537.54 331.91,537.54 " keyPoints="0;0.5;1" keySplines="0.167 0.167 0.667 1;0.333 0 0.833 0.833" calcMode="spline"/><animateTransform repeatCount="indefinite" dur="3s" begin="0s" xlink:href="#_R_G_L_29_G" fill="freeze" attributeName="transform" from="208.093 -183.54" to="208.093 -183.54" type="translate" additive="sum" keyTimes="0;1" values="208.093 -183.54;208.093 -183.54" keySplines="0 0 1 1" calcMode="spline"/><animate repeatCount="indefinite" dur="3s" begin="0s" xlink:href="#_R_G_L_28_G" fill="freeze" attributeName="opacity" from="0" to="0" keyTimes="0;0.0888889;0.2555556;0.7444444;0.8888889;1" values="0;0;0.5;0.5;0;0" keySplines="0.8 0 0.4 1;0.8 0 0.4 1;0.167 0 0.4 1;0.8 0 0.4 1;0 0 0 0" calcMode="spline"/><animateMotion repeatCount="indefinite" dur="3s" begin="0s" xlink:href="#_R_G_L_26_G" fill="freeze" keyTimes="0;0.5222222;1" path="M897.85 564.5 C898.35,564.5 900.85,564.5 900.85,564.5 C900.85,564.5 898.35,564.5 897.85,564.5 " keyPoints="0;0.5;1" keySplines="0.167 0.167 0.667 1;0.333 0 0.833 0.833" calcMode="spline"/><animateTransform repeatCount="indefinite" dur="3s" begin="0s" xlink:href="#_R_G_L_26_G" fill="freeze" attributeName="transform" from="-357.853 -210.498" to="-357.853 -210.498" type="translate" additive="sum" keyTimes="0;1" values="-357.853 -210.498;-357.853 -210.498" keySplines="0 0 1 1" calcMode="spline"/><animate repeatCount="indefinite" dur="3s" begin="0s" xlink:href="#_R_G_L_24_G" fill="freeze" attributeName="opacity" from="0" to="0" keyTimes="0;0.1222222;0.2555556;0.7333333;0.8666667;1" values="0;0;0.3;0.3;0;0" keySplines="0.8 0 0.4 1;0.8 0 0.4 1;0.8 0 0.4 1;0.8 0 0.4 1;0 0 0 0" calcMode="spline"/><animateMotion repeatCount="indefinite" dur="3s" begin="0s" xlink:href="#_R_G_L_23_G_N_31_T_0" fill="freeze" keyTimes="0;0.5222222;1" path="M331.91 537.54 C329.91,537.54 319.91,537.54 319.91,537.54 C319.91,537.54 329.91,537.54 331.91,537.54 " keyPoints="0;0.5;1" keySplines="0.167 0.167 0.667 1;0.333 0 0.833 0.833" calcMode="spline"/><animateTransform repeatCount="indefinite" dur="3s" begin="0s" xlink:href="#_R_G_L_23_G_N_31_T_0" fill="freeze" attributeName="transform" from="208.093 -183.54" to="208.093 -183.54" type="translate" additive="sum" keyTimes="0;1" values="208.093 -183.54;208.093 -183.54" keySplines="0 0 1 1" calcMode="spline"/><animate repeatCount="indefinite" dur="3s" begin="0s" xlink:href="#_R_G_L_23_G_N_31_T_0_M" fill="freeze" attributeName="opacity" from="1" to="0" keyTimes="0;0.5222222;0.5222222;1" values="1;1;0;0" keySplines="0 0 0 0;0 0 0 0;0 0 0 0" calcMode="spline"/><animateMotion repeatCount="indefinite" dur="3s" begin="0s" xlink:href="#_R_G_L_22_G_N_31_T_0" fill="freeze" keyTimes="0;0.5222222;1" path="M331.91 537.54 C329.91,537.54 319.91,537.54 319.91,537.54 C319.91,537.54 329.91,537.54 331.91,537.54 " keyPoints="0;0.5;1" keySplines="0.167 0.167 0.667 1;0.333 0 0.833 0.833" calcMode="spline"/><animateTransform repeatCount="indefinite" dur="3s" begin="0s" xlink:href="#_R_G_L_22_G_N_31_T_0" fill="freeze" attributeName="transform" from="208.093 -183.54" to="208.093 -183.54" type="translate" additive="sum" keyTimes="0;1" values="208.093 -183.54;208.093 -183.54" keySplines="0 0 1 1" calcMode="spline"/><animate repeatCount="indefinite" dur="3s" begin="0s" xlink:href="#_R_G_L_22_G_N_31_T_0_M" fill="freeze" attributeName="opacity" from="0" to="0" keyTimes="0;0.0611111;0.0611122;0.5222222;0.5222222;1" values="0;0;1;1;0;0" keySplines="0 0 0 0;0 0 0 0;0 0 0 0;0 0 0 0;0 0 0 0" calcMode="spline"/><animateMotion repeatCount="indefinite" dur="3s" begin="0s" xlink:href="#_R_G_L_21_G_N_31_T_0" fill="freeze" keyTimes="0;0.5222222;1" path="M331.91 537.54 C329.91,537.54 319.91,537.54 319.91,537.54 C319.91,537.54 329.91,537.54 331.91,537.54 " keyPoints="0;0.5;1" keySplines="0.167 0.167 0.667 1;0.333 0 0.833 0.833" calcMode="spline"/><animateTransform repeatCount="indefinite" dur="3s" begin="0s" xlink:href="#_R_G_L_21_G_N_31_T_0" fill="freeze" attributeName="transform" from="208.093 -183.54" to="208.093 -183.54" type="translate" additive="sum" keyTimes="0;1" values="208.093 -183.54;208.093 -183.54" keySplines="0 0 1 1" calcMode="spline"/><animate repeatCount="indefinite" dur="3s" begin="0s" xlink:href="#_R_G_L_21_G_N_31_T_0_M" fill="freeze" attributeName="opacity" from="0" to="0" keyTimes="0;0.1222222;0.1222233;0.5222222;0.5222222;1" values="0;0;1;1;0;0" keySplines="0 0 0 0;0 0 0 0;0 0 0 0;0 0 0 0;0 0 0 0" calcMode="spline"/><animateMotion repeatCount="indefinite" dur="3s" begin="0s" xlink:href="#_R_G_L_20_G_N_31_T_0" fill="freeze" keyTimes="0;0.5222222;1" path="M331.91 537.54 C329.91,537.54 319.91,537.54 319.91,537.54 C319.91,537.54 329.91,537.54 331.91,537.54 " keyPoints="0;0.5;1" keySplines="0.167 0.167 0.667 1;0.333 0 0.833 0.833" calcMode="spline"/><animateTransform repeatCount="indefinite" dur="3s" begin="0s" xlink:href="#_R_G_L_20_G_N_31_T_0" fill="freeze" attributeName="transform" from="208.093 -183.54" to="208.093 -183.54" type="translate" additive="sum" keyTimes="0;1" values="208.093 -183.54;208.093 -183.54" keySplines="0 0 1 1" calcMode="spline"/><animate repeatCount="indefinite" dur="3s" begin="0s" xlink:href="#_R_G_L_20_G_N_31_T_0_M" fill="freeze" attributeName="opacity" from="0" to="0" keyTimes="0;0.1833333;0.1833344;0.5222222;0.5222222;1" values="0;0;1;1;0;0" keySplines="0 0 0 0;0 0 0 0;0 0 0 0;0 0 0 0;0 0 0 0" calcMode="spline"/><animateMotion repeatCount="indefinite" dur="3s" begin="0s" xlink:href="#_R_G_L_19_G_N_31_T_0" fill="freeze" keyTimes="0;0.5222222;1" path="M331.91 537.54 C329.91,537.54 319.91,537.54 319.91,537.54 C319.91,537.54 329.91,537.54 331.91,537.54 " keyPoints="0;0.5;1" keySplines="0.167 0.167 0.667 1;0.333 0 0.833 0.833" calcMode="spline"/><animateTransform repeatCount="indefinite" dur="3s" begin="0s" xlink:href="#_R_G_L_19_G_N_31_T_0" fill="freeze" attributeName="transform" from="208.093 -183.54" to="208.093 -183.54" type="translate" additive="sum" keyTimes="0;1" values="208.093 -183.54;208.093 -183.54" keySplines="0 0 1 1" calcMode="spline"/><animate repeatCount="indefinite" dur="3s" begin="0s" xlink:href="#_R_G_L_19_G_N_31_T_0_M" fill="freeze" attributeName="opacity" from="0" to="0" keyTimes="0;0.2444444;0.2444456;0.5222222;0.5222222;1" values="0;0;1;1;0;0" keySplines="0 0 0 0;0 0 0 0;0 0 0 0;0 0 0 0;0 0 0 0" calcMode="spline"/><animateMotion repeatCount="indefinite" dur="3s" begin="0s" xlink:href="#_R_G_L_18_G_N_31_T_0" fill="freeze" keyTimes="0;0.5222222;1" path="M331.91 537.54 C329.91,537.54 319.91,537.54 319.91,537.54 C319.91,537.54 329.91,537.54 331.91,537.54 " keyPoints="0;0.5;1" keySplines="0.167 0.167 0.667 1;0.333 0 0.833 0.833" calcMode="spline"/><animateTransform repeatCount="indefinite" dur="3s" begin="0s" xlink:href="#_R_G_L_18_G_N_31_T_0" fill="freeze" attributeName="transform" from="208.093 -183.54" to="208.093 -183.54" type="translate" additive="sum" keyTimes="0;1" values="208.093 -183.54;208.093 -183.54" keySplines="0 0 1 1" calcMode="spline"/><animate repeatCount="indefinite" dur="3s" begin="0s" xlink:href="#_R_G_L_18_G_N_31_T_0_M" fill="freeze" attributeName="opacity" from="0" to="0" keyTimes="0;0.3055556;0.3055567;0.5222222;0.5222222;1" values="0;0;1;1;0;0" keySplines="0 0 0 0;0 0 0 0;0 0 0 0;0 0 0 0;0 0 0 0" calcMode="spline"/><animateMotion repeatCount="indefinite" dur="3s" begin="0s" xlink:href="#_R_G_L_17_G_N_31_T_0" fill="freeze" keyTimes="0;0.5222222;1" path="M331.91 537.54 C329.91,537.54 319.91,537.54 319.91,537.54 C319.91,537.54 329.91,537.54 331.91,537.54 " keyPoints="0;0.5;1" keySplines="0.167 0.167 0.667 1;0.333 0 0.833 0.833" calcMode="spline"/><animateTransform repeatCount="indefinite" dur="3s" begin="0s" xlink:href="#_R_G_L_17_G_N_31_T_0" fill="freeze" attributeName="transform" from="208.093 -183.54" to="208.093 -183.54" type="translate" additive="sum" keyTimes="0;1" values="208.093 -183.54;208.093 -183.54" keySplines="0 0 1 1" calcMode="spline"/><animate repeatCount="indefinite" dur="3s" begin="0s" xlink:href="#_R_G_L_17_G_N_31_T_0_M" fill="freeze" attributeName="opacity" from="0" to="1" keyTimes="0;0.5222222;0.5222233;1" values="0;0;1;1" keySplines="0 0 0 0;0 0 0 0;0 0 0 0" calcMode="spline"/><animateMotion repeatCount="indefinite" dur="3s" begin="0s" xlink:href="#_R_G_L_16_G_N_31_T_0" fill="freeze" keyTimes="0;0.5222222;1" path="M331.91 537.54 C329.91,537.54 319.91,537.54 319.91,537.54 C319.91,537.54 329.91,537.54 331.91,537.54 " keyPoints="0;0.5;1" keySplines="0.167 0.167 0.667 1;0.333 0 0.833 0.833" calcMode="spline"/><animateTransform repeatCount="indefinite" dur="3s" begin="0s" xlink:href="#_R_G_L_16_G_N_31_T_0" fill="freeze" attributeName="transform" from="208.093 -183.54" to="208.093 -183.54" type="translate" additive="sum" keyTimes="0;1" values="208.093 -183.54;208.093 -183.54" keySplines="0 0 1 1" calcMode="spline"/><animate repeatCount="indefinite" dur="3s" begin="0s" xlink:href="#_R_G_L_16_G_N_31_T_0_M" fill="freeze" attributeName="opacity" from="0" to="1" keyTimes="0;0.5833333;0.5833344;1" values="0;0;1;1" keySplines="0 0 0 0;0 0 0 0;0 0 0 0" calcMode="spline"/><animateMotion repeatCount="indefinite" dur="3s" begin="0s" xlink:href="#_R_G_L_15_G_N_31_T_0" fill="freeze" keyTimes="0;0.5222222;1" path="M331.91 537.54 C329.91,537.54 319.91,537.54 319.91,537.54 C319.91,537.54 329.91,537.54 331.91,537.54 " keyPoints="0;0.5;1" keySplines="0.167 0.167 0.667 1;0.333 0 0.833 0.833" calcMode="spline"/><animateTransform repeatCount="indefinite" dur="3s" begin="0s" xlink:href="#_R_G_L_15_G_N_31_T_0" fill="freeze" attributeName="transform" from="208.093 -183.54" to="208.093 -183.54" type="translate" additive="sum" keyTimes="0;1" values="208.093 -183.54;208.093 -183.54" keySplines="0 0 1 1" calcMode="spline"/><animate repeatCount="indefinite" dur="3s" begin="0s" xlink:href="#_R_G_L_15_G_N_31_T_0_M" fill="freeze" attributeName="opacity" from="0" to="1" keyTimes="0;0.6444444;0.6444456;1" values="0;0;1;1" keySplines="0 0 0 0;0 0 0 0;0 0 0 0" calcMode="spline"/><animateMotion repeatCount="indefinite" dur="3s" begin="0s" xlink:href="#_R_G_L_14_G_N_31_T_0" fill="freeze" keyTimes="0;0.5222222;1" path="M331.91 537.54 C329.91,537.54 319.91,537.54 319.91,537.54 C319.91,537.54 329.91,537.54 331.91,537.54 " keyPoints="0;0.5;1" keySplines="0.167 0.167 0.667 1;0.333 0 0.833 0.833" calcMode="spline"/><animateTransform repeatCount="indefinite" dur="3s" begin="0s" xlink:href="#_R_G_L_14_G_N_31_T_0" fill="freeze" attributeName="transform" from="208.093 -183.54" to="208.093 -183.54" type="translate" additive="sum" keyTimes="0;1" values="208.093 -183.54;208.093 -183.54" keySplines="0 0 1 1" calcMode="spline"/><animate repeatCount="indefinite" dur="3s" begin="0s" xlink:href="#_R_G_L_14_G_N_31_T_0_M" fill="freeze" attributeName="opacity" from="0" to="1" keyTimes="0;0.7055556;0.7055567;1" values="0;0;1;1" keySplines="0 0 0 0;0 0 0 0;0 0 0 0" calcMode="spline"/><animateMotion repeatCount="indefinite" dur="3s" begin="0s" xlink:href="#_R_G_L_13_G_N_31_T_0" fill="freeze" keyTimes="0;0.5222222;1" path="M331.91 537.54 C329.91,537.54 319.91,537.54 319.91,537.54 C319.91,537.54 329.91,537.54 331.91,537.54 " keyPoints="0;0.5;1" keySplines="0.167 0.167 0.667 1;0.333 0 0.833 0.833" calcMode="spline"/><animateTransform repeatCount="indefinite" dur="3s" begin="0s" xlink:href="#_R_G_L_13_G_N_31_T_0" fill="freeze" attributeName="transform" from="208.093 -183.54" to="208.093 -183.54" type="translate" additive="sum" keyTimes="0;1" values="208.093 -183.54;208.093 -183.54" keySplines="0 0 1 1" calcMode="spline"/><animate repeatCount="indefinite" dur="3s" begin="0s" xlink:href="#_R_G_L_13_G_N_31_T_0_M" fill="freeze" attributeName="opacity" from="0" to="1" keyTimes="0;0.7666667;0.7666678;1" values="0;0;1;1" keySplines="0 0 0 0;0 0 0 0;0 0 0 0" calcMode="spline"/><animateMotion repeatCount="indefinite" dur="3s" begin="0s" xlink:href="#_R_G_L_12_G_N_31_T_0" fill="freeze" keyTimes="0;0.5222222;1" path="M331.91 537.54 C329.91,537.54 319.91,537.54 319.91,537.54 C319.91,537.54 329.91,537.54 331.91,537.54 " keyPoints="0;0.5;1" keySplines="0.167 0.167 0.667 1;0.333 0 0.833 0.833" calcMode="spline"/><animateTransform repeatCount="indefinite" dur="3s" begin="0s" xlink:href="#_R_G_L_12_G_N_31_T_0" fill="freeze" attributeName="transform" from="208.093 -183.54" to="208.093 -183.54" type="translate" additive="sum" keyTimes="0;1" values="208.093 -183.54;208.093 -183.54" keySplines="0 0 1 1" calcMode="spline"/><animate repeatCount="indefinite" dur="3s" begin="0s" xlink:href="#_R_G_L_12_G_N_31_T_0_M" fill="freeze" attributeName="opacity" from="0" to="1" keyTimes="0;0.8277778;0.8277789;1" values="0;0;1;1" keySplines="0 0 0 0;0 0 0 0;0 0 0 0" calcMode="spline"/><animateMotion repeatCount="indefinite" dur="3s" begin="0s" xlink:href="#_R_G_L_11_G_N_37_T_0" fill="freeze" keyTimes="0;0.5222222;1" path="M802.82 35.07 C801.82,35.07 796.82,35.07 796.82,35.07 C796.82,35.07 801.82,35.07 802.82,35.07 " keyPoints="0;0.5;1" keySplines="0.167 0.167 0.667 1;0.333 0 0.833 0.833" calcMode="spline"/><animateTransform repeatCount="indefinite" dur="3s" begin="0s" xlink:href="#_R_G_L_11_G_N_37_T_0" fill="freeze" attributeName="transform" from="-262.822 318.933" to="-262.822 318.933" type="translate" additive="sum" keyTimes="0;1" values="-262.822 318.933;-262.822 318.933" keySplines="0 0 1 1" calcMode="spline"/><animate repeatCount="indefinite" dur="3s" begin="0s" xlink:href="#_R_G_L_11_G_N_37_T_0_M" fill="freeze" attributeName="opacity" from="1" to="0" keyTimes="0;0.5222222;0.5222222;1" values="1;1;0;0" keySplines="0 0 0 0;0 0 0 0;0 0 0 0" calcMode="spline"/><animateMotion repeatCount="indefinite" dur="3s" begin="0s" xlink:href="#_R_G_L_10_G_N_37_T_0" fill="freeze" keyTimes="0;0.5222222;1" path="M802.82 35.07 C801.82,35.07 796.82,35.07 796.82,35.07 C796.82,35.07 801.82,35.07 802.82,35.07 " keyPoints="0;0.5;1" keySplines="0.167 0.167 0.667 1;0.333 0 0.833 0.833" calcMode="spline"/><animateTransform repeatCount="indefinite" dur="3s" begin="0s" xlink:href="#_R_G_L_10_G_N_37_T_0" fill="freeze" attributeName="transform" from="-262.822 318.933" to="-262.822 318.933" type="translate" additive="sum" keyTimes="0;1" values="-262.822 318.933;-262.822 318.933" keySplines="0 0 1 1" calcMode="spline"/><animate repeatCount="indefinite" dur="3s" begin="0s" xlink:href="#_R_G_L_10_G_N_37_T_0_M" fill="freeze" attributeName="opacity" from="0" to="0" keyTimes="0;0.0611111;0.0611122;0.5222222;0.5222222;1" values="0;0;1;1;0;0" keySplines="0 0 0 0;0 0 0 0;0 0 0 0;0 0 0 0;0 0 0 0" calcMode="spline"/><animateMotion repeatCount="indefinite" dur="3s" begin="0s" xlink:href="#_R_G_L_9_G_N_37_T_0" fill="freeze" keyTimes="0;0.5222222;1" path="M802.82 35.07 C801.82,35.07 796.82,35.07 796.82,35.07 C796.82,35.07 801.82,35.07 802.82,35.07 " keyPoints="0;0.5;1" keySplines="0.167 0.167 0.667 1;0.333 0 0.833 0.833" calcMode="spline"/><animateTransform repeatCount="indefinite" dur="3s" begin="0s" xlink:href="#_R_G_L_9_G_N_37_T_0" fill="freeze" attributeName="transform" from="-262.822 318.933" to="-262.822 318.933" type="translate" additive="sum" keyTimes="0;1" values="-262.822 318.933;-262.822 318.933" keySplines="0 0 1 1" calcMode="spline"/><animate repeatCount="indefinite" dur="3s" begin="0s" xlink:href="#_R_G_L_9_G_N_37_T_0_M" fill="freeze" attributeName="opacity" from="0" to="0" keyTimes="0;0.1222222;0.1222233;0.5222222;0.5222222;1" values="0;0;1;1;0;0" keySplines="0 0 0 0;0 0 0 0;0 0 0 0;0 0 0 0;0 0 0 0" calcMode="spline"/><animateMotion repeatCount="indefinite" dur="3s" begin="0s" xlink:href="#_R_G_L_8_G_N_37_T_0" fill="freeze" keyTimes="0;0.5222222;1" path="M802.82 35.07 C801.82,35.07 796.82,35.07 796.82,35.07 C796.82,35.07 801.82,35.07 802.82,35.07 " keyPoints="0;0.5;1" keySplines="0.167 0.167 0.667 1;0.333 0 0.833 0.833" calcMode="spline"/><animateTransform repeatCount="indefinite" dur="3s" begin="0s" xlink:href="#_R_G_L_8_G_N_37_T_0" fill="freeze" attributeName="transform" from="-262.822 318.933" to="-262.822 318.933" type="translate" additive="sum" keyTimes="0;1" values="-262.822 318.933;-262.822 318.933" keySplines="0 0 1 1" calcMode="spline"/><animate repeatCount="indefinite" dur="3s" begin="0s" xlink:href="#_R_G_L_8_G_N_37_T_0_M" fill="freeze" attributeName="opacity" from="0" to="0" keyTimes="0;0.1833333;0.1833344;0.5222222;0.5222222;1" values="0;0;1;1;0;0" keySplines="0 0 0 0;0 0 0 0;0 0 0 0;0 0 0 0;0 0 0 0" calcMode="spline"/><animateMotion repeatCount="indefinite" dur="3s" begin="0s" xlink:href="#_R_G_L_7_G_N_37_T_0" fill="freeze" keyTimes="0;0.5222222;1" path="M802.82 35.07 C801.82,35.07 796.82,35.07 796.82,35.07 C796.82,35.07 801.82,35.07 802.82,35.07 " keyPoints="0;0.5;1" keySplines="0.167 0.167 0.667 1;0.333 0 0.833 0.833" calcMode="spline"/><animateTransform repeatCount="indefinite" dur="3s" begin="0s" xlink:href="#_R_G_L_7_G_N_37_T_0" fill="freeze" attributeName="transform" from="-262.822 318.933" to="-262.822 318.933" type="translate" additive="sum" keyTimes="0;1" values="-262.822 318.933;-262.822 318.933" keySplines="0 0 1 1" calcMode="spline"/><animate repeatCount="indefinite" dur="3s" begin="0s" xlink:href="#_R_G_L_7_G_N_37_T_0_M" fill="freeze" attributeName="opacity" from="0" to="0" keyTimes="0;0.2444444;0.2444456;0.5222222;0.5222222;1" values="0;0;1;1;0;0" keySplines="0 0 0 0;0 0 0 0;0 0 0 0;0 0 0 0;0 0 0 0" calcMode="spline"/><animateMotion repeatCount="indefinite" dur="3s" begin="0s" xlink:href="#_R_G_L_6_G_N_37_T_0" fill="freeze" keyTimes="0;0.5222222;1" path="M802.82 35.07 C801.82,35.07 796.82,35.07 796.82,35.07 C796.82,35.07 801.82,35.07 802.82,35.07 " keyPoints="0;0.5;1" keySplines="0.167 0.167 0.667 1;0.333 0 0.833 0.833" calcMode="spline"/><animateTransform repeatCount="indefinite" dur="3s" begin="0s" xlink:href="#_R_G_L_6_G_N_37_T_0" fill="freeze" attributeName="transform" from="-262.822 318.933" to="-262.822 318.933" type="translate" additive="sum" keyTimes="0;1" values="-262.822 318.933;-262.822 318.933" keySplines="0 0 1 1" calcMode="spline"/><animate repeatCount="indefinite" dur="3s" begin="0s" xlink:href="#_R_G_L_6_G_N_37_T_0_M" fill="freeze" attributeName="opacity" from="0" to="0" keyTimes="0;0.3055556;0.3055567;0.5222222;0.5222222;1" values="0;0;1;1;0;0" keySplines="0 0 0 0;0 0 0 0;0 0 0 0;0 0 0 0;0 0 0 0" calcMode="spline"/><animateMotion repeatCount="indefinite" dur="3s" begin="0s" xlink:href="#_R_G_L_5_G_N_37_T_0" fill="freeze" keyTimes="0;0.5222222;1" path="M802.82 35.07 C801.82,35.07 796.82,35.07 796.82,35.07 C796.82,35.07 801.82,35.07 802.82,35.07 " keyPoints="0;0.5;1" keySplines="0.167 0.167 0.667 1;0.333 0 0.833 0.833" calcMode="spline"/><animateTransform repeatCount="indefinite" dur="3s" begin="0s" xlink:href="#_R_G_L_5_G_N_37_T_0" fill="freeze" attributeName="transform" from="-262.822 318.933" to="-262.822 318.933" type="translate" additive="sum" keyTimes="0;1" values="-262.822 318.933;-262.822 318.933" keySplines="0 0 1 1" calcMode="spline"/><animate repeatCount="indefinite" dur="3s" begin="0s" xlink:href="#_R_G_L_5_G_N_37_T_0_M" fill="freeze" attributeName="opacity" from="0" to="1" keyTimes="0;0.5222222;0.5222233;1" values="0;0;1;1" keySplines="0 0 0 0;0 0 0 0;0 0 0 0" calcMode="spline"/><animateMotion repeatCount="indefinite" dur="3s" begin="0s" xlink:href="#_R_G_L_4_G_N_37_T_0" fill="freeze" keyTimes="0;0.5222222;1" path="M802.82 35.07 C801.82,35.07 796.82,35.07 796.82,35.07 C796.82,35.07 801.82,35.07 802.82,35.07 " keyPoints="0;0.5;1" keySplines="0.167 0.167 0.667 1;0.333 0 0.833 0.833" calcMode="spline"/><animateTransform repeatCount="indefinite" dur="3s" begin="0s" xlink:href="#_R_G_L_4_G_N_37_T_0" fill="freeze" attributeName="transform" from="-262.822 318.933" to="-262.822 318.933" type="translate" additive="sum" keyTimes="0;1" values="-262.822 318.933;-262.822 318.933" keySplines="0 0 1 1" calcMode="spline"/><animate repeatCount="indefinite" dur="3s" begin="0s" xlink:href="#_R_G_L_4_G_N_37_T_0_M" fill="freeze" attributeName="opacity" from="0" to="1" keyTimes="0;0.5833333;0.5833344;1" values="0;0;1;1" keySplines="0 0 0 0;0 0 0 0;0 0 0 0" calcMode="spline"/><animateMotion repeatCount="indefinite" dur="3s" begin="0s" xlink:href="#_R_G_L_3_G_N_37_T_0" fill="freeze" keyTimes="0;0.5222222;1" path="M802.82 35.07 C801.82,35.07 796.82,35.07 796.82,35.07 C796.82,35.07 801.82,35.07 802.82,35.07 " keyPoints="0;0.5;1" keySplines="0.167 0.167 0.667 1;0.333 0 0.833 0.833" calcMode="spline"/><animateTransform repeatCount="indefinite" dur="3s" begin="0s" xlink:href="#_R_G_L_3_G_N_37_T_0" fill="freeze" attributeName="transform" from="-262.822 318.933" to="-262.822 318.933" type="translate" additive="sum" keyTimes="0;1" values="-262.822 318.933;-262.822 318.933" keySplines="0 0 1 1" calcMode="spline"/><animate repeatCount="indefinite" dur="3s" begin="0s" xlink:href="#_R_G_L_3_G_N_37_T_0_M" fill="freeze" attributeName="opacity" from="0" to="1" keyTimes="0;0.6444444;0.6444456;1" values="0;0;1;1" keySplines="0 0 0 0;0 0 0 0;0 0 0 0" calcMode="spline"/><animateMotion repeatCount="indefinite" dur="3s" begin="0s" xlink:href="#_R_G_L_2_G_N_37_T_0" fill="freeze" keyTimes="0;0.5222222;1" path="M802.82 35.07 C801.82,35.07 796.82,35.07 796.82,35.07 C796.82,35.07 801.82,35.07 802.82,35.07 " keyPoints="0;0.5;1" keySplines="0.167 0.167 0.667 1;0.333 0 0.833 0.833" calcMode="spline"/><animateTransform repeatCount="indefinite" dur="3s" begin="0s" xlink:href="#_R_G_L_2_G_N_37_T_0" fill="freeze" attributeName="transform" from="-262.822 318.933" to="-262.822 318.933" type="translate" additive="sum" keyTimes="0;1" values="-262.822 318.933;-262.822 318.933" keySplines="0 0 1 1" calcMode="spline"/><animate repeatCount="indefinite" dur="3s" begin="0s" xlink:href="#_R_G_L_2_G_N_37_T_0_M" fill="freeze" attributeName="opacity" from="0" to="1" keyTimes="0;0.7055556;0.7055567;1" values="0;0;1;1" keySplines="0 0 0 0;0 0 0 0;0 0 0 0" calcMode="spline"/><animateMotion repeatCount="indefinite" dur="3s" begin="0s" xlink:href="#_R_G_L_1_G_N_37_T_0" fill="freeze" keyTimes="0;0.5222222;1" path="M802.82 35.07 C801.82,35.07 796.82,35.07 796.82,35.07 C796.82,35.07 801.82,35.07 802.82,35.07 " keyPoints="0;0.5;1" keySplines="0.167 0.167 0.667 1;0.333 0 0.833 0.833" calcMode="spline"/><animateTransform repeatCount="indefinite" dur="3s" begin="0s" xlink:href="#_R_G_L_1_G_N_37_T_0" fill="freeze" attributeName="transform" from="-262.822 318.933" to="-262.822 318.933" type="translate" additive="sum" keyTimes="0;1" values="-262.822 318.933;-262.822 318.933" keySplines="0 0 1 1" calcMode="spline"/><animate repeatCount="indefinite" dur="3s" begin="0s" xlink:href="#_R_G_L_1_G_N_37_T_0_M" fill="freeze" attributeName="opacity" from="0" to="1" keyTimes="0;0.7666667;0.7666678;1" values="0;0;1;1" keySplines="0 0 0 0;0 0 0 0;0 0 0 0" calcMode="spline"/><animateMotion repeatCount="indefinite" dur="3s" begin="0s" xlink:href="#_R_G_L_0_G_N_37_T_0" fill="freeze" keyTimes="0;0.5222222;1" path="M802.82 35.07 C801.82,35.07 796.82,35.07 796.82,35.07 C796.82,35.07 801.82,35.07 802.82,35.07 " keyPoints="0;0.5;1" keySplines="0.167 0.167 0.667 1;0.333 0 0.833 0.833" calcMode="spline"/><animateTransform repeatCount="indefinite" dur="3s" begin="0s" xlink:href="#_R_G_L_0_G_N_37_T_0" fill="freeze" attributeName="transform" from="-262.822 318.933" to="-262.822 318.933" type="translate" additive="sum" keyTimes="0;1" values="-262.822 318.933;-262.822 318.933" keySplines="0 0 1 1" calcMode="spline"/><animate repeatCount="indefinite" dur="3s" begin="0s" xlink:href="#_R_G_L_0_G_N_37_T_0_M" fill="freeze" attributeName="opacity" from="0" to="1" keyTimes="0;0.8277778;0.8277789;1" values="0;0;1;1" keySplines="0 0 0 0;0 0 0 0;0 0 0 0" calcMode="spline"/><animate attributeType="XML" attributeName="opacity" dur="3s" from="0" to="1" xlink:href="#time_group"/></defs><g id="_R_G"><g id="_R_G_L_36_G"><path id="_R_G_L_36_G_D_0_P_0" fill="#0067ce" fill-opacity="1" fill-rule="nonzero" d=" M-375.79 -167.02 C-374.91,-166.11 -374.91,-164.74 -375.79,-163.86 C-376.25,-163.44 -376.77,-163.23 -377.33,-163.23 C-377.93,-163.23 -378.49,-163.44 -378.95,-163.86 C-378.95,-163.86 -388.81,-173.86 -388.81,-173.86 C-388.92,-173.9 -388.95,-173.97 -388.99,-174.08 C-389.02,-174.11 -389.09,-174.15 -389.09,-174.15 C-389.16,-174.25 -389.16,-174.32 -389.2,-174.43 C-389.27,-174.46 -389.3,-174.53 -389.3,-174.57 C-389.34,-174.64 -389.34,-174.74 -389.37,-174.78 C-389.37,-174.88 -389.44,-174.92 -389.44,-174.95 C-389.44,-175.06 -389.44,-175.13 -389.44,-175.2 C-389.44,-175.27 -389.48,-175.3 -389.48,-175.41 C-389.48,-175.44 -389.44,-175.55 -389.44,-175.59 C-389.44,-175.66 -389.44,-175.76 -389.44,-175.83 C-389.44,-175.9 -389.37,-175.94 -389.37,-175.97 C-389.34,-176.08 -389.34,-176.15 -389.3,-176.25 C-389.3,-176.29 -389.27,-176.29 -389.27,-176.32 C-389.2,-176.43 -389.16,-176.57 -389.09,-176.64 C-389.09,-176.64 -389.09,-176.71 -389.02,-176.71 C-388.99,-176.78 -388.92,-176.88 -388.81,-176.95 C-388.81,-176.95 -378.95,-186.96 -378.95,-186.96 C-378.07,-187.8 -376.63,-187.8 -375.79,-186.96 C-374.91,-186.08 -374.91,-184.68 -375.79,-183.8 C-375.79,-183.8 -384.11,-175.41 -384.11,-175.41 C-384.11,-175.41 -375.79,-167.02 -375.79,-167.02z "/><path id="_R_G_L_36_G_D_1_P_0" fill="#0067ce" fill-opacity="1" fill-rule="nonzero" d=" M-366.84 -165.9 C-366.84,-165.9 -358.24,-186.36 -358.24,-186.36 C-357.82,-187.34 -356.69,-187.8 -355.68,-187.38 C-354.73,-186.99 -354.27,-185.84 -354.69,-184.89 C-354.69,-184.89 -363.29,-164.39 -363.29,-164.39 C-363.61,-163.65 -364.35,-163.23 -365.08,-163.23 C-365.29,-163.23 -365.57,-163.26 -365.79,-163.37 C-366.8,-163.75 -367.26,-164.91 -366.84,-165.9z "/><path id="_R_G_L_36_G_D_2_P_0" fill="#0067ce" fill-opacity="1" fill-rule="nonzero" d=" M-337.7 -174.15 C-337.7,-174.15 -337.7,-174.11 -337.74,-174.11 C-337.81,-174.04 -337.88,-173.94 -337.98,-173.86 C-337.98,-173.86 -347.85,-163.86 -347.85,-163.86 C-348.27,-163.44 -348.87,-163.23 -349.43,-163.23 C-350.02,-163.23 -350.55,-163.44 -351.01,-163.86 C-351.88,-164.74 -351.88,-166.11 -351.01,-167.02 C-351.01,-167.02 -342.69,-175.41 -342.69,-175.41 C-342.69,-175.41 -351.01,-183.8 -351.01,-183.8 C-351.88,-184.68 -351.88,-186.08 -351.01,-186.96 C-350.17,-187.8 -348.72,-187.8 -347.85,-186.96 C-347.85,-186.96 -337.98,-176.95 -337.98,-176.95 C-337.88,-176.88 -337.81,-176.78 -337.74,-176.71 C-337.7,-176.71 -337.7,-176.64 -337.7,-176.64 C-337.63,-176.5 -337.56,-176.43 -337.53,-176.32 C-337.53,-176.29 -337.49,-176.29 -337.49,-176.25 C-337.46,-176.15 -337.46,-176.08 -337.39,-175.94 C-337.39,-175.9 -337.35,-175.9 -337.35,-175.83 C-337.35,-175.76 -337.35,-175.66 -337.35,-175.59 C-337.35,-175.55 -337.32,-175.44 -337.32,-175.41 C-337.32,-175.37 -337.35,-175.27 -337.35,-175.23 C-337.35,-175.13 -337.35,-175.06 -337.35,-174.95 C-337.35,-174.92 -337.39,-174.92 -337.39,-174.88 C-337.46,-174.74 -337.46,-174.64 -337.49,-174.57 C-337.49,-174.53 -337.53,-174.53 -337.53,-174.46 C-337.56,-174.39 -337.63,-174.29 -337.7,-174.15z "/><path id="_R_G_L_36_G_D_3_P_0" fill="#0067ce" fill-opacity="1" fill-rule="nonzero" d=" M-316.52 -147.96 C-316.52,-147.96 -412.63,-147.96 -412.63,-147.96 C-412.63,-147.96 -412.63,-212.99 -412.63,-212.99 C-412.63,-212.99 -316.52,-212.99 -316.52,-212.99 C-316.52,-212.99 -316.52,-147.96 -316.52,-147.96z  M-411.83 -148.77 C-411.83,-148.77 -317.32,-148.77 -317.32,-148.77 C-317.32,-148.77 -317.32,-212.19 -317.32,-212.19 C-317.32,-212.19 -411.83,-212.19 -411.83,-212.19 C-411.83,-212.19 -411.83,-148.77 -411.83,-148.77z "/><path id="_R_G_L_36_G_D_4_P_0" fill="#0067ce" fill-opacity="1" fill-rule="nonzero" d=" M-403.02 -207.73 C-403.02,-206.52 -404,-205.54 -405.21,-205.54 C-406.42,-205.54 -407.41,-206.52 -407.41,-207.73 C-407.41,-208.94 -406.42,-209.93 -405.21,-209.93 C-404,-209.93 -403.02,-208.94 -403.02,-207.73z "/><path id="_R_G_L_36_G_D_5_P_0" fill="#0067ce" fill-opacity="1" fill-rule="nonzero" d=" M-394.06 -207.73 C-394.06,-206.52 -395.04,-205.54 -396.25,-205.54 C-397.46,-205.54 -398.45,-206.52 -398.45,-207.73 C-398.45,-208.94 -397.46,-209.93 -396.25,-209.93 C-395.04,-209.93 -394.06,-208.94 -394.06,-207.73z "/><path id="_R_G_L_36_G_D_6_P_0" fill="#0067ce" fill-opacity="1" fill-rule="nonzero" d=" M-385.09 -207.73 C-385.09,-206.52 -386.08,-205.54 -387.29,-205.54 C-388.5,-205.54 -389.48,-206.52 -389.48,-207.73 C-389.48,-208.94 -388.5,-209.93 -387.29,-209.93 C-386.08,-209.93 -385.09,-208.94 -385.09,-207.73z "/><path id="_R_G_L_36_G_D_7_P_0" fill="#0067ce" fill-opacity="1" fill-rule="nonzero" d=" M-316.92 -202.51 C-316.92,-202.51 -412.23,-202.51 -412.23,-202.51 C-412.23,-202.51 -412.23,-203.32 -412.23,-203.32 C-412.23,-203.32 -316.92,-203.32 -316.92,-203.32 C-316.92,-203.32 -316.92,-202.51 -316.92,-202.51z "/></g><g id="_R_G_L_35_G"><path id="_R_G_L_35_G_D_0_P_0" fill="#0067ce" fill-opacity="1" fill-rule="nonzero" d=" M315.93 -284.81 C315.93,-284.81 209.71,-284.81 209.71,-284.81 C209.71,-284.81 209.71,-353.05 209.71,-353.05 C209.71,-353.05 315.93,-353.05 315.93,-353.05 C315.93,-353.05 315.93,-284.81 315.93,-284.81z  M211.04 -286.14 C211.04,-286.14 314.61,-286.14 314.61,-286.14 C314.61,-286.14 314.61,-351.73 314.61,-351.73 C314.61,-351.73 211.04,-351.73 211.04,-351.73 C211.04,-351.73 211.04,-286.14 211.04,-286.14z "/><path id="_R_G_L_35_G_D_1_P_0" fill="#0067ce" fill-opacity="1" fill-rule="nonzero" d=" M315.93 -339.07 C315.93,-339.07 209.71,-339.07 209.71,-339.07 C209.71,-339.07 209.71,-353.05 209.71,-353.05 C209.71,-353.05 315.93,-353.05 315.93,-353.05 C315.93,-353.05 315.93,-339.07 315.93,-339.07z  M211.04 -340.4 C211.04,-340.4 314.61,-340.4 314.61,-340.4 C314.61,-340.4 314.61,-351.73 314.61,-351.73 C314.61,-351.73 211.04,-351.73 211.04,-351.73 C211.04,-351.73 211.04,-340.4 211.04,-340.4z "/><path id="_R_G_L_35_G_D_2_P_0" fill="#0067ce" fill-opacity="1" fill-rule="nonzero" d=" M222.25 -345.97 C222.25,-344.21 220.83,-342.79 219.07,-342.79 C217.31,-342.79 215.88,-344.21 215.88,-345.97 C215.88,-347.73 217.31,-349.16 219.07,-349.16 C220.83,-349.16 222.25,-347.73 222.25,-345.97z "/><path id="_R_G_L_35_G_D_3_P_0" fill="#0067ce" fill-opacity="1" fill-rule="nonzero" d=" M235.26 -345.97 C235.26,-344.21 233.83,-342.79 232.07,-342.79 C230.31,-342.79 228.89,-344.21 228.89,-345.97 C228.89,-347.73 230.31,-349.16 232.07,-349.16 C233.83,-349.16 235.26,-347.73 235.26,-345.97z "/><path id="_R_G_L_35_G_D_4_P_0" fill="#0067ce" fill-opacity="1" fill-rule="nonzero" d=" M248.26 -345.97 C248.26,-344.21 246.84,-342.79 245.08,-342.79 C243.32,-342.79 241.89,-344.21 241.89,-345.97 C241.89,-347.73 243.32,-349.16 245.08,-349.16 C246.84,-349.16 248.26,-347.73 248.26,-345.97z "/></g><g id="_R_G_L_34_G" opacity="NaN" transform=" translate(432.183, 28.683) translate(107.817, 325.317)"><path id="_R_G_L_34_G_D_0_P_0" fill="#ffffff" fill-opacity="1" fill-rule="nonzero" d=" M-124.85 -313.79 C-123.64,-312.53 -123.64,-310.65 -124.85,-309.44 C-125.48,-308.86 -126.2,-308.57 -126.97,-308.57 C-127.79,-308.57 -128.56,-308.86 -129.19,-309.44 C-129.19,-309.44 -142.75,-323.19 -142.75,-323.19 C-142.9,-323.24 -142.94,-323.34 -142.99,-323.48 C-143.04,-323.53 -143.14,-323.58 -143.14,-323.58 C-143.23,-323.73 -143.23,-323.82 -143.28,-323.97 C-143.38,-324.01 -143.43,-324.11 -143.43,-324.16 C-143.47,-324.25 -143.47,-324.4 -143.52,-324.45 C-143.52,-324.59 -143.62,-324.64 -143.62,-324.69 C-143.62,-324.84 -143.62,-324.93 -143.62,-325.03 C-143.62,-325.12 -143.67,-325.17 -143.67,-325.32 C-143.67,-325.37 -143.62,-325.51 -143.62,-325.56 C-143.62,-325.66 -143.62,-325.8 -143.62,-325.9 C-143.62,-325.99 -143.52,-326.04 -143.52,-326.09 C-143.47,-326.23 -143.47,-326.33 -143.43,-326.48 C-143.43,-326.52 -143.38,-326.52 -143.38,-326.57 C-143.28,-326.72 -143.23,-326.91 -143.14,-327.01 C-143.14,-327.01 -143.14,-327.1 -143.04,-327.1 C-142.99,-327.2 -142.9,-327.34 -142.75,-327.44 C-142.75,-327.44 -129.19,-341.19 -129.19,-341.19 C-127.99,-342.35 -126.01,-342.35 -124.85,-341.19 C-123.64,-339.99 -123.64,-338.06 -124.85,-336.85 C-124.85,-336.85 -136.28,-325.32 -136.28,-325.32 C-136.28,-325.32 -124.85,-313.79 -124.85,-313.79z "/><path id="_R_G_L_34_G_D_1_P_0" fill="#ffffff" fill-opacity="1" fill-rule="nonzero" d=" M-112.55 -312.24 C-112.55,-312.24 -100.72,-340.37 -100.72,-340.37 C-100.14,-341.72 -98.6,-342.35 -97.2,-341.77 C-95.9,-341.24 -95.27,-339.65 -95.85,-338.34 C-95.85,-338.34 -107.67,-310.17 -107.67,-310.17 C-108.11,-309.15 -109.12,-308.57 -110.13,-308.57 C-110.42,-308.57 -110.81,-308.62 -111.1,-308.77 C-112.5,-309.3 -113.12,-310.89 -112.55,-312.24z "/><path id="_R_G_L_34_G_D_2_P_0" fill="#ffffff" fill-opacity="1" fill-rule="nonzero" d=" M-72.5 -323.58 C-72.5,-323.58 -72.5,-323.53 -72.55,-323.53 C-72.64,-323.44 -72.74,-323.29 -72.88,-323.19 C-72.88,-323.19 -86.44,-309.44 -86.44,-309.44 C-87.02,-308.86 -87.84,-308.57 -88.61,-308.57 C-89.43,-308.57 -90.16,-308.86 -90.78,-309.44 C-91.99,-310.65 -91.99,-312.53 -90.78,-313.79 C-90.78,-313.79 -79.35,-325.32 -79.35,-325.32 C-79.35,-325.32 -90.78,-336.85 -90.78,-336.85 C-91.99,-338.06 -91.99,-339.99 -90.78,-341.19 C-89.63,-342.35 -87.65,-342.35 -86.44,-341.19 C-86.44,-341.19 -72.88,-327.44 -72.88,-327.44 C-72.74,-327.34 -72.64,-327.2 -72.55,-327.1 C-72.5,-327.1 -72.5,-327.01 -72.5,-327.01 C-72.4,-326.81 -72.3,-326.72 -72.26,-326.57 C-72.26,-326.52 -72.21,-326.52 -72.21,-326.48 C-72.16,-326.33 -72.16,-326.23 -72.06,-326.04 C-72.06,-325.99 -72.01,-325.99 -72.01,-325.9 C-72.01,-325.8 -72.01,-325.66 -72.01,-325.56 C-72.01,-325.51 -71.97,-325.37 -71.97,-325.32 C-71.97,-325.27 -72.01,-325.12 -72.01,-325.08 C-72.01,-324.93 -72.01,-324.84 -72.01,-324.69 C-72.01,-324.64 -72.06,-324.64 -72.06,-324.59 C-72.16,-324.4 -72.16,-324.25 -72.21,-324.16 C-72.21,-324.11 -72.26,-324.11 -72.26,-324.01 C-72.3,-323.92 -72.4,-323.77 -72.5,-323.58z "/></g><g id="_R_G_L_33_G" transform=" translate(303.576, 132.528) translate(236.424, 221.472)"><path id="_R_G_L_33_G_D_0_P_0" fill="#ececec" fill-opacity="1" fill-rule="nonzero" d=" M-247.45 -212.89 C-247.45,-213.46 -247.37,-214.96 -247.37,-215.6 C-247.37,-218.35 -248.35,-219.59 -250.91,-219.67 C-252.11,-219.74 -252.83,-220.46 -252.83,-221.47 C-252.83,-222.49 -252.11,-223.2 -250.91,-223.28 C-248.35,-223.39 -247.37,-224.6 -247.37,-227.38 C-247.37,-228.02 -247.45,-229.52 -247.45,-230.09 C-247.45,-233.74 -245.9,-236.07 -240.07,-237.35 C-238.91,-237.61 -238,-236.9 -238,-235.81 C-238,-234.9 -238.61,-234.41 -239.06,-234.26 C-242.71,-233.14 -243.23,-231.97 -243.23,-229.41 C-243.23,-228.66 -243.16,-227.42 -243.16,-226.63 C-243.16,-223.69 -244.59,-222.26 -247.07,-221.47 C-244.55,-220.64 -243.16,-219.25 -243.16,-216.32 C-243.16,-215.53 -243.23,-214.29 -243.23,-213.53 C-243.23,-210.98 -242.71,-209.81 -239.06,-208.68 C-238.61,-208.53 -238,-208.04 -238,-207.14 C-238,-206.05 -238.91,-205.33 -240.07,-205.59 C-245.9,-206.87 -247.45,-209.21 -247.45,-212.89z "/><path id="_R_G_L_33_G_D_1_P_0" fill="#ececec" fill-opacity="1" fill-rule="nonzero" d=" M-225.4 -230.09 C-225.4,-229.52 -225.47,-228.02 -225.47,-227.38 C-225.47,-224.6 -224.46,-223.39 -221.9,-223.28 C-220.73,-223.2 -220.02,-222.49 -220.02,-221.47 C-220.02,-220.46 -220.73,-219.74 -221.9,-219.67 C-224.46,-219.59 -225.47,-218.35 -225.47,-215.6 C-225.47,-214.96 -225.4,-213.46 -225.4,-212.89 C-225.4,-209.21 -226.94,-206.87 -232.77,-205.59 C-233.94,-205.33 -234.84,-206.05 -234.84,-207.14 C-234.84,-208.04 -234.24,-208.53 -233.75,-208.68 C-230.14,-209.81 -229.61,-210.98 -229.61,-213.53 C-229.61,-214.29 -229.69,-215.53 -229.69,-216.32 C-229.69,-219.25 -228.26,-220.68 -225.78,-221.47 C-228.3,-222.3 -229.69,-223.69 -229.69,-226.63 C-229.69,-227.42 -229.61,-228.66 -229.61,-229.41 C-229.61,-231.97 -230.14,-233.14 -233.75,-234.26 C-234.24,-234.41 -234.84,-234.9 -234.84,-235.81 C-234.84,-236.9 -233.94,-237.61 -232.77,-237.35 C-226.94,-236.07 -225.4,-233.74 -225.4,-230.09z "/></g><g id="_R_G_L_32_G" transform=" translate(802.587, 164.443) translate(-262.587, 189.557)"><path id="_R_G_L_32_G_D_0_P_0" fill="#0067ce" fill-opacity="1" fill-rule="nonzero" d=" M237.77 -194.39 C239.06,-193.65 239.76,-192.25 239.69,-190.77 C239.67,-190.37 239.66,-189.96 239.66,-189.56 C239.66,-189.15 239.67,-188.74 239.69,-188.34 C239.76,-186.86 239.06,-185.46 237.78,-184.72 C237.78,-184.72 233.41,-182.2 233.41,-182.2 C233.41,-182.2 241.62,-167.97 241.62,-167.97 C241.62,-167.97 245.99,-170.48 245.99,-170.48 C247.27,-171.22 248.85,-171.15 250.09,-170.34 C250.77,-169.89 251.48,-169.49 252.21,-169.11 C253.52,-168.44 254.37,-167.12 254.37,-165.64 C254.37,-165.64 254.37,-160.61 254.37,-160.61 C254.37,-160.61 270.81,-160.61 270.81,-160.61 C270.81,-160.61 270.81,-165.64 270.81,-165.64 C270.81,-167.12 271.65,-168.44 272.96,-169.11 C273.69,-169.49 274.4,-169.89 275.08,-170.34 C276.32,-171.15 277.9,-171.22 279.18,-170.48 C279.18,-170.48 283.55,-167.97 283.55,-167.97 C283.55,-167.97 291.76,-182.2 291.76,-182.2 C291.76,-182.2 287.38,-184.74 287.38,-184.74 C286.1,-185.47 285.4,-186.87 285.47,-188.35 C285.49,-188.75 285.51,-189.15 285.51,-189.56 C285.51,-189.96 285.49,-190.37 285.47,-190.77 C285.4,-192.25 286.1,-193.65 287.39,-194.39 C287.39,-194.39 291.76,-196.91 291.76,-196.91 C291.76,-196.91 283.55,-211.15 283.55,-211.15 C283.55,-211.15 279.19,-208.63 279.19,-208.63 C277.91,-207.89 276.34,-207.96 275.1,-208.77 C274.41,-209.22 273.7,-209.63 272.97,-210 C271.65,-210.67 270.81,-212 270.81,-213.47 C270.81,-213.47 270.81,-218.5 270.81,-218.5 C270.81,-218.5 254.37,-218.5 254.37,-218.5 C254.37,-218.5 254.37,-213.47 254.37,-213.47 C254.37,-212 253.52,-210.67 252.21,-210 C251.47,-209.63 250.76,-209.22 250.08,-208.77 C248.84,-207.96 247.26,-207.89 245.98,-208.63 C245.98,-208.63 241.62,-211.15 241.62,-211.15 C241.62,-211.15 233.41,-196.91 233.41,-196.91 C233.41,-196.91 237.77,-194.39 237.77,-194.39z  M262.58 -203.03 C270.02,-203.03 276.05,-196.99 276.05,-189.56 C276.05,-182.12 270.02,-176.1 262.58,-176.1 C255.15,-176.1 249.12,-182.12 249.12,-189.56 C249.12,-196.99 255.15,-203.03 262.58,-203.03z "/></g><g id="_R_G_L_31_G" opacity="0.3" transform=" translate(961.616, 184.116)"><path id="_R_G_L_31_G_D_0_P_0" fill="#ececec" fill-opacity="1" fill-rule="nonzero" d=" M472.11 -155.17 C472.11,-148.32 466.81,-142.7 460.07,-142.2 C460.07,-142.2 460.07,-142.17 460.07,-142.17 C460.07,-142.17 386.41,-142.17 386.41,-142.17 C377.96,-142.17 371.12,-149.01 371.12,-157.45 C371.12,-165.42 377.2,-171.96 384.98,-172.68 C385.42,-186.51 396.77,-197.6 410.72,-197.6 C421.82,-197.6 431.28,-190.58 434.9,-180.73 C436.96,-181.77 439.27,-182.35 441.73,-182.35 C449.86,-182.35 456.51,-176.01 456.99,-168.01 C457.68,-168.12 458.39,-168.18 459.11,-168.18 C466.29,-168.18 472.11,-162.35 472.11,-155.17z "/></g><g id="_R_G_L_30_G" opacity="0.3" transform=" translate(183.162, 573.877)"><path id="_R_G_L_30_G_D_0_P_0" fill="#ececec" fill-opacity="1" fill-rule="nonzero" d=" M-309.71 233.61 C-309.71,240.01 -314.66,245.25 -320.95,245.71 C-320.95,245.71 -320.95,245.75 -320.95,245.75 C-320.95,245.75 -389.7,245.75 -389.7,245.75 C-397.58,245.75 -403.97,239.36 -403.97,231.48 C-403.97,224.05 -398.29,217.94 -391.03,217.27 C-390.62,204.36 -380.02,194.01 -367.01,194.01 C-356.65,194.01 -347.82,200.56 -344.44,209.75 C-342.52,208.78 -340.36,208.24 -338.06,208.24 C-330.48,208.24 -324.27,214.16 -323.82,221.63 C-323.18,221.52 -322.52,221.47 -321.85,221.47 C-315.15,221.47 -309.71,226.9 -309.71,233.61z "/></g><g id="_R_G_L_29_G"><path id="_R_G_L_29_G_D_0_P_0" fill="#0067ce" fill-opacity="1" fill-rule="nonzero" d=" M-166.44 210.3 C-166.44,210.3 -249.75,210.3 -249.75,210.3 C-249.75,210.3 -249.75,156.78 -249.75,156.78 C-249.75,156.78 -166.44,156.78 -166.44,156.78 C-166.44,156.78 -166.44,210.3 -166.44,210.3z  M-248.71 209.26 C-248.71,209.26 -167.48,209.26 -167.48,209.26 C-167.48,209.26 -167.48,157.82 -167.48,157.82 C-167.48,157.82 -248.71,157.82 -248.71,157.82 C-248.71,157.82 -248.71,209.26 -248.71,209.26z "/><path id="_R_G_L_29_G_D_1_P_0" fill="#0067ce" fill-opacity="1" fill-rule="nonzero" d=" M-166.44 167.74 C-166.44,167.74 -249.75,167.74 -249.75,167.74 C-249.75,167.74 -249.75,156.78 -249.75,156.78 C-249.75,156.78 -166.44,156.78 -166.44,156.78 C-166.44,156.78 -166.44,167.74 -166.44,167.74z  M-248.71 166.7 C-248.71,166.7 -167.48,166.7 -167.48,166.7 C-167.48,166.7 -167.48,157.82 -167.48,157.82 C-167.48,157.82 -248.71,157.82 -248.71,157.82 C-248.71,157.82 -248.71,166.7 -248.71,166.7z "/><path id="_R_G_L_29_G_D_2_P_0" fill="#0067ce" fill-opacity="1" fill-rule="nonzero" d=" M-239.91 162.33 C-239.91,163.71 -241.03,164.83 -242.41,164.83 C-243.79,164.83 -244.91,163.71 -244.91,162.33 C-244.91,160.95 -243.79,159.84 -242.41,159.84 C-241.03,159.84 -239.91,160.95 -239.91,162.33z "/><path id="_R_G_L_29_G_D_3_P_0" fill="#0067ce" fill-opacity="1" fill-rule="nonzero" d=" M-229.71 162.33 C-229.71,163.71 -230.83,164.83 -232.21,164.83 C-233.59,164.83 -234.71,163.71 -234.71,162.33 C-234.71,160.95 -233.59,159.84 -232.21,159.84 C-230.83,159.84 -229.71,160.95 -229.71,162.33z "/><path id="_R_G_L_29_G_D_4_P_0" fill="#0067ce" fill-opacity="1" fill-rule="nonzero" d=" M-219.51 162.33 C-219.51,163.71 -220.63,164.83 -222.01,164.83 C-223.39,164.83 -224.51,163.71 -224.51,162.33 C-224.51,160.95 -223.39,159.84 -222.01,159.84 C-220.63,159.84 -219.51,160.95 -219.51,162.33z "/></g><g id="_R_G_L_28_G" transform=" translate(319.061, 681.326) translate(220.939, -327.326)"><path id="_R_G_L_28_G_D_0_P_0" fill="#0067ce" fill-opacity="1" fill-rule="nonzero" d=" M-243.8 322.87 C-242.62,323.55 -241.97,324.85 -242.04,326.21 C-242.06,326.58 -242.07,326.95 -242.07,327.33 C-242.07,327.7 -242.06,328.08 -242.04,328.45 C-241.97,329.81 -242.62,331.1 -243.8,331.78 C-243.8,331.78 -247.83,334.1 -247.83,334.1 C-247.83,334.1 -240.26,347.22 -240.26,347.22 C-240.26,347.22 -236.23,344.9 -236.23,344.9 C-235.05,344.22 -233.6,344.29 -232.45,345.03 C-231.83,345.44 -231.18,345.82 -230.5,346.16 C-229.29,346.78 -228.51,348 -228.51,349.36 C-228.51,349.36 -228.51,354 -228.51,354 C-228.51,354 -213.36,354 -213.36,354 C-213.36,354 -213.36,349.36 -213.36,349.36 C-213.36,348 -212.59,346.78 -211.38,346.16 C-210.7,345.82 -210.05,345.44 -209.42,345.03 C-208.28,344.29 -206.83,344.22 -205.65,344.9 C-205.65,344.9 -201.62,347.22 -201.62,347.22 C-201.62,347.22 -194.05,334.1 -194.05,334.1 C-194.05,334.1 -198.1,331.77 -198.1,331.77 C-199.27,331.09 -199.92,329.8 -199.85,328.44 C-199.83,328.07 -199.82,327.7 -199.82,327.33 C-199.82,326.95 -199.83,326.58 -199.85,326.21 C-199.92,324.85 -199.27,323.55 -198.08,322.87 C-198.08,322.87 -194.05,320.55 -194.05,320.55 C-194.05,320.55 -201.62,307.43 -201.62,307.43 C-201.62,307.43 -205.64,309.75 -205.64,309.75 C-206.82,310.43 -208.27,310.37 -209.41,309.62 C-210.04,309.21 -210.7,308.83 -211.37,308.49 C-212.58,307.87 -213.36,306.65 -213.36,305.29 C-213.36,305.29 -213.36,300.65 -213.36,300.65 C-213.36,300.65 -228.51,300.65 -228.51,300.65 C-228.51,300.65 -228.51,305.29 -228.51,305.29 C-228.51,306.65 -229.29,307.87 -230.51,308.49 C-231.18,308.83 -231.84,309.21 -232.47,309.62 C-233.61,310.37 -235.06,310.43 -236.24,309.75 C-236.24,309.75 -240.26,307.43 -240.26,307.43 C-240.26,307.43 -247.83,320.55 -247.83,320.55 C-247.83,320.55 -243.8,322.87 -243.8,322.87z  M-220.94 314.91 C-214.09,314.91 -208.53,320.48 -208.53,327.33 C-208.53,334.18 -214.09,339.73 -220.94,339.73 C-227.8,339.73 -233.34,334.18 -233.34,327.33 C-233.34,320.48 -227.8,314.91 -220.94,314.91z "/></g><g id="_R_G_L_27_G" opacity="NaN" transform=" translate(721.033, 637.908) translate(-181.033, -283.908)"><path id="_R_G_L_27_G_D_0_P_0" fill="#ffffff" fill-opacity="1" fill-rule="nonzero" d=" M164 295.44 C165.21,296.7 165.21,298.58 164,299.78 C163.37,300.36 162.65,300.65 161.88,300.65 C161.06,300.65 160.29,300.36 159.66,299.78 C159.66,299.78 146.1,286.03 146.1,286.03 C145.95,285.98 145.91,285.89 145.86,285.74 C145.81,285.69 145.71,285.65 145.71,285.65 C145.62,285.5 145.62,285.4 145.57,285.26 C145.47,285.21 145.42,285.11 145.42,285.07 C145.38,284.97 145.38,284.82 145.33,284.78 C145.33,284.63 145.23,284.58 145.23,284.54 C145.23,284.39 145.23,284.29 145.23,284.2 C145.23,284.1 145.18,284.05 145.18,283.91 C145.18,283.86 145.23,283.71 145.23,283.67 C145.23,283.57 145.23,283.43 145.23,283.33 C145.23,283.23 145.33,283.18 145.33,283.14 C145.38,282.99 145.38,282.9 145.42,282.75 C145.42,282.7 145.47,282.7 145.47,282.65 C145.57,282.51 145.62,282.32 145.71,282.22 C145.71,282.22 145.71,282.12 145.81,282.12 C145.86,282.03 145.95,281.88 146.1,281.79 C146.1,281.79 159.66,268.03 159.66,268.03 C160.86,266.88 162.84,266.88 164,268.03 C165.21,269.24 165.21,271.17 164,272.38 C164,272.38 152.57,283.91 152.57,283.91 C152.57,283.91 164,295.44 164,295.44z "/><path id="_R_G_L_27_G_D_1_P_0" fill="#ffffff" fill-opacity="1" fill-rule="nonzero" d=" M176.3 296.99 C176.3,296.99 188.13,268.85 188.13,268.85 C188.71,267.5 190.25,266.88 191.65,267.45 C192.95,267.99 193.58,269.58 193,270.88 C193,270.88 181.18,299.06 181.18,299.06 C180.74,300.07 179.73,300.65 178.72,300.65 C178.43,300.65 178.04,300.6 177.75,300.46 C176.35,299.93 175.73,298.34 176.3,296.99z "/><path id="_R_G_L_27_G_D_2_P_0" fill="#ffffff" fill-opacity="1" fill-rule="nonzero" d=" M216.35 285.65 C216.35,285.65 216.35,285.69 216.3,285.69 C216.21,285.79 216.11,285.93 215.97,286.03 C215.97,286.03 202.41,299.78 202.41,299.78 C201.83,300.36 201.01,300.65 200.24,300.65 C199.42,300.65 198.69,300.36 198.07,299.78 C196.86,298.58 196.86,296.7 198.07,295.44 C198.07,295.44 209.5,283.91 209.5,283.91 C209.5,283.91 198.07,272.38 198.07,272.38 C196.86,271.17 196.86,269.24 198.07,268.03 C199.22,266.88 201.2,266.88 202.41,268.03 C202.41,268.03 215.97,281.79 215.97,281.79 C216.11,281.88 216.21,282.03 216.3,282.12 C216.35,282.12 216.35,282.22 216.35,282.22 C216.45,282.41 216.55,282.51 216.59,282.65 C216.59,282.7 216.64,282.7 216.64,282.75 C216.69,282.9 216.69,282.99 216.79,283.18 C216.79,283.23 216.84,283.23 216.84,283.33 C216.84,283.43 216.84,283.57 216.84,283.67 C216.84,283.71 216.88,283.86 216.88,283.91 C216.88,283.96 216.84,284.1 216.84,284.15 C216.84,284.29 216.84,284.39 216.84,284.54 C216.84,284.58 216.79,284.58 216.79,284.63 C216.69,284.83 216.69,284.97 216.64,285.07 C216.64,285.11 216.59,285.12 216.59,285.21 C216.55,285.31 216.45,285.45 216.35,285.65z "/></g><g id="_R_G_L_26_G" opacity="0.3"><path id="_R_G_L_26_G_D_0_P_0" fill="#ffffff" fill-opacity="1" fill-rule="nonzero" d=" M345.94 224.8 C346.87,225.77 346.87,227.22 345.94,228.16 C345.45,228.61 344.89,228.83 344.29,228.83 C343.66,228.83 343.06,228.61 342.58,228.16 C342.58,228.16 332.1,217.53 332.1,217.53 C331.98,217.49 331.95,217.41 331.91,217.3 C331.87,217.26 331.8,217.23 331.8,217.23 C331.72,217.11 331.72,217.04 331.69,216.93 C331.61,216.89 331.57,216.82 331.57,216.78 C331.54,216.7 331.54,216.59 331.5,216.56 C331.5,216.44 331.42,216.41 331.42,216.37 C331.42,216.26 331.42,216.18 331.42,216.11 C331.42,216.03 331.39,216 331.39,215.88 C331.39,215.85 331.42,215.73 331.42,215.7 C331.42,215.62 331.42,215.51 331.42,215.44 C331.42,215.36 331.5,215.32 331.5,215.29 C331.54,215.18 331.54,215.1 331.57,214.99 C331.57,214.95 331.61,214.95 331.61,214.91 C331.69,214.8 331.72,214.65 331.8,214.58 C331.8,214.58 331.8,214.5 331.87,214.5 C331.91,214.43 331.98,214.32 332.1,214.24 C332.1,214.24 342.58,203.61 342.58,203.61 C343.51,202.72 345.04,202.72 345.94,203.61 C346.87,204.54 346.87,206.04 345.94,206.97 C345.94,206.97 337.09,215.88 337.09,215.88 C337.09,215.88 345.94,224.8 345.94,224.8z "/><path id="_R_G_L_26_G_D_1_P_0" fill="#ffffff" fill-opacity="1" fill-rule="nonzero" d=" M355.45 225.99 C355.45,225.99 364.59,204.25 364.59,204.25 C365.03,203.2 366.23,202.72 367.31,203.16 C368.32,203.58 368.8,204.81 368.35,205.81 C368.35,205.81 359.21,227.6 359.21,227.6 C358.88,228.38 358.1,228.83 357.31,228.83 C357.09,228.83 356.79,228.79 356.57,228.68 C355.48,228.27 355,227.04 355.45,225.99z "/><path id="_R_G_L_26_G_D_2_P_0" fill="#ffffff" fill-opacity="1" fill-rule="nonzero" d=" M386.41 217.23 C386.41,217.23 386.41,217.26 386.37,217.26 C386.29,217.34 386.22,217.45 386.11,217.53 C386.11,217.53 375.63,228.16 375.63,228.16 C375.18,228.61 374.54,228.83 373.95,228.83 C373.31,228.83 372.75,228.61 372.27,228.16 C371.34,227.22 371.34,225.77 372.27,224.8 C372.27,224.8 381.11,215.88 381.11,215.88 C381.11,215.88 372.27,206.97 372.27,206.97 C371.34,206.04 371.34,204.54 372.27,203.61 C373.16,202.72 374.69,202.72 375.63,203.61 C375.63,203.61 386.11,214.24 386.11,214.24 C386.22,214.32 386.29,214.43 386.37,214.5 C386.41,214.5 386.41,214.58 386.41,214.58 C386.48,214.73 386.56,214.8 386.59,214.91 C386.59,214.95 386.63,214.95 386.63,214.99 C386.67,215.1 386.67,215.18 386.74,215.32 C386.74,215.36 386.78,215.36 386.78,215.44 C386.78,215.51 386.78,215.62 386.78,215.7 C386.78,215.73 386.82,215.85 386.82,215.88 C386.82,215.92 386.78,216.03 386.78,216.07 C386.78,216.18 386.78,216.26 386.78,216.37 C386.78,216.41 386.74,216.41 386.74,216.44 C386.67,216.59 386.67,216.7 386.63,216.78 C386.63,216.82 386.59,216.82 386.59,216.89 C386.56,216.97 386.48,217.08 386.41,217.23z "/><path id="_R_G_L_26_G_D_3_P_0" fill="#ffffff" fill-opacity="1" fill-rule="nonzero" d=" M408.92 245.05 C408.92,245.05 306.79,245.05 306.79,245.05 C306.79,245.05 306.79,175.95 306.79,175.95 C306.79,175.95 408.92,175.95 408.92,175.95 C408.92,175.95 408.92,245.05 408.92,245.05z  M307.64 244.2 C307.64,244.2 408.06,244.2 408.06,244.2 C408.06,244.2 408.06,176.8 408.06,176.8 C408.06,176.8 307.64,176.8 307.64,176.8 C307.64,176.8 307.64,244.2 307.64,244.2z "/><path id="_R_G_L_26_G_D_4_P_0" fill="#ffffff" fill-opacity="1" fill-rule="nonzero" d=" M317 181.54 C317,182.83 315.96,183.87 314.67,183.87 C313.38,183.87 312.34,182.83 312.34,181.54 C312.34,180.25 313.38,179.21 314.67,179.21 C315.96,179.21 317,180.25 317,181.54z "/><path id="_R_G_L_26_G_D_5_P_0" fill="#ffffff" fill-opacity="1" fill-rule="nonzero" d=" M326.52 181.54 C326.52,182.83 325.48,183.87 324.19,183.87 C322.9,183.87 321.86,182.83 321.86,181.54 C321.86,180.25 322.9,179.21 324.19,179.21 C325.48,179.21 326.52,180.25 326.52,181.54z "/><path id="_R_G_L_26_G_D_6_P_0" fill="#ffffff" fill-opacity="1" fill-rule="nonzero" d=" M336.05 181.54 C336.05,182.83 335,183.87 333.72,183.87 C332.43,183.87 331.38,182.83 331.38,181.54 C331.38,180.25 332.43,179.21 333.72,179.21 C335,179.21 336.05,180.25 336.05,181.54z "/><path id="_R_G_L_26_G_D_7_P_0" fill="#ffffff" fill-opacity="1" fill-rule="nonzero" d=" M408.49 187.08 C408.49,187.08 307.21,187.08 307.21,187.08 C307.21,187.08 307.21,186.23 307.21,186.23 C307.21,186.23 408.49,186.23 408.49,186.23 C408.49,186.23 408.49,187.08 408.49,187.08z "/></g><g id="_R_G_L_25_G" opacity="NaN" transform=" translate(791.685, 518.646) translate(-251.685, -164.646)"><path id="_R_G_L_25_G_D_0_P_0" fill="#ececec" fill-opacity="1" fill-rule="nonzero" d=" M239.24 174.33 C239.24,173.7 239.32,172 239.32,171.27 C239.32,168.17 238.22,166.77 235.33,166.69 C233.97,166.6 233.16,165.79 233.16,164.65 C233.16,163.5 233.97,162.69 235.33,162.61 C238.22,162.48 239.32,161.12 239.32,157.98 C239.32,157.25 239.24,155.55 239.24,154.92 C239.24,150.8 240.98,148.16 247.56,146.72 C248.88,146.42 249.9,147.23 249.9,148.46 C249.9,149.48 249.22,150.03 248.71,150.2 C244.59,151.48 243.99,152.79 243.99,155.68 C243.99,156.53 244.08,157.93 244.08,158.82 C244.08,162.14 242.47,163.75 239.66,164.65 C242.51,165.58 244.08,167.15 244.08,170.47 C244.08,171.36 243.99,172.76 243.99,173.61 C243.99,176.5 244.59,177.82 248.71,179.09 C249.22,179.26 249.9,179.81 249.9,180.83 C249.9,182.07 248.88,182.87 247.56,182.58 C240.98,181.13 239.24,178.5 239.24,174.33z "/><path id="_R_G_L_25_G_D_1_P_0" fill="#ececec" fill-opacity="1" fill-rule="nonzero" d=" M264.13 154.92 C264.13,155.55 264.05,157.25 264.05,157.98 C264.05,161.12 265.2,162.48 268.08,162.61 C269.4,162.69 270.21,163.5 270.21,164.65 C270.21,165.79 269.4,166.6 268.08,166.69 C265.2,166.77 264.05,168.17 264.05,171.27 C264.05,172 264.13,173.7 264.13,174.33 C264.13,178.5 262.39,181.13 255.81,182.58 C254.49,182.87 253.47,182.07 253.47,180.83 C253.47,179.81 254.15,179.26 254.7,179.09 C258.78,177.82 259.37,176.5 259.37,173.61 C259.37,172.76 259.29,171.36 259.29,170.47 C259.29,167.15 260.9,165.54 263.71,164.65 C260.86,163.71 259.29,162.14 259.29,158.82 C259.29,157.93 259.37,156.53 259.37,155.68 C259.37,152.79 258.78,151.48 254.7,150.2 C254.15,150.03 253.47,149.48 253.47,148.46 C253.47,147.23 254.49,146.42 255.81,146.72 C262.39,148.16 264.13,150.8 264.13,154.92z "/></g><g id="_R_G_L_24_G" transform=" translate(1006.455, 453.208) translate(-466.455, -99.208)"><path id="_R_G_L_24_G_D_0_P_0" fill="#ececec" fill-opacity="1" fill-rule="nonzero" d=" M453.34 96.65 C454.02,97.04 454.39,97.79 454.35,98.57 C454.34,98.78 454.33,98.99 454.33,99.21 C454.33,99.42 454.34,99.64 454.35,99.85 C454.39,100.63 454.02,101.37 453.34,101.76 C453.34,101.76 451.03,103.1 451.03,103.1 C451.03,103.1 455.37,110.62 455.37,110.62 C455.37,110.62 457.68,109.29 457.68,109.29 C458.36,108.9 459.19,108.94 459.85,109.37 C460.21,109.6 460.58,109.82 460.97,110.01 C461.66,110.37 462.11,111.07 462.11,111.85 C462.11,111.85 462.11,114.51 462.11,114.51 C462.11,114.51 470.8,114.51 470.8,114.51 C470.8,114.51 470.8,111.85 470.8,111.85 C470.8,111.07 471.25,110.37 471.94,110.01 C472.33,109.82 472.7,109.6 473.06,109.37 C473.72,108.94 474.55,108.9 475.23,109.29 C475.23,109.29 477.54,110.62 477.54,110.62 C477.54,110.62 481.88,103.1 481.88,103.1 C481.88,103.1 479.56,101.76 479.56,101.76 C478.88,101.37 478.51,100.63 478.55,99.85 C478.56,99.64 478.57,99.42 478.57,99.21 C478.57,98.99 478.56,98.78 478.55,98.57 C478.51,97.79 478.89,97.04 479.57,96.65 C479.57,96.65 481.88,95.32 481.88,95.32 C481.88,95.32 477.54,87.8 477.54,87.8 C477.54,87.8 475.23,89.13 475.23,89.13 C474.56,89.52 473.72,89.48 473.07,89.05 C472.71,88.82 472.33,88.6 471.94,88.4 C471.25,88.05 470.8,87.35 470.8,86.57 C470.8,86.57 470.8,83.91 470.8,83.91 C470.8,83.91 462.11,83.91 462.11,83.91 C462.11,83.91 462.11,86.57 462.11,86.57 C462.11,87.35 461.66,88.05 460.97,88.4 C460.58,88.6 460.2,88.82 459.84,89.05 C459.19,89.48 458.35,89.52 457.68,89.13 C457.68,89.13 455.37,87.8 455.37,87.8 C455.37,87.8 451.03,95.32 451.03,95.32 C451.03,95.32 453.34,96.65 453.34,96.65z  M466.45 92.09 C470.38,92.09 473.57,95.28 473.57,99.21 C473.57,103.14 470.38,106.32 466.45,106.32 C462.52,106.32 459.34,103.14 459.34,99.21 C459.34,95.28 462.52,92.09 466.45,92.09z "/></g><g id="_R_G_L_23_G_N_31_T_0_M"><g id="_R_G_L_23_G_N_31_T_0"><g id="_R_G_L_23_G" transform=" translate(-220.583, 187.5) scale(0.19635999999999998, 0.19635999999999998) translate(0, 0)"><text id="_R_G_L_23_G_X" font-size="80px" font-family="Poppins" font-weight="SemiBold" fill="#0067ce" text-anchor="middle" letter-spacing="0"><tspan id="_R_G_L_23_G_X_A_0" x="0" dy="0">0</tspan></text></g></g></g><g id="_R_G_L_22_G_N_31_T_0_M"><g id="_R_G_L_22_G_N_31_T_0"><g id="_R_G_L_22_G" transform=" translate(-209.583, 187.5) scale(0.19635999999999998, 0.19635999999999998) translate(0, 0)"><text id="_R_G_L_22_G_X" font-size="80px" font-family="Poppins" font-weight="SemiBold" fill="#0067ce" text-anchor="middle" letter-spacing="0"><tspan id="_R_G_L_22_G_X_A_0" x="0" dy="0">1</tspan></text></g></g></g><g id="_R_G_L_21_G_N_31_T_0_M"><g id="_R_G_L_21_G_N_31_T_0"><g id="_R_G_L_21_G" transform=" translate(-199.083, 187.5) scale(0.19635999999999998, 0.19635999999999998) translate(0, 0)"><text id="_R_G_L_21_G_X" font-size="80px" font-family="Poppins" font-weight="SemiBold" fill="#0067ce" text-anchor="middle" letter-spacing="0"><tspan id="_R_G_L_21_G_X_A_0" x="0" dy="0">0</tspan></text></g></g></g><g id="_R_G_L_20_G_N_31_T_0_M"><g id="_R_G_L_20_G_N_31_T_0"><g id="_R_G_L_20_G" transform=" translate(-220.333, 203.25) scale(0.19635999999999998, 0.19635999999999998) translate(0, 0)"><text id="_R_G_L_20_G_X" font-size="80px" font-family="Poppins" font-weight="SemiBold" fill="#0067ce" text-anchor="middle" letter-spacing="0"><tspan id="_R_G_L_20_G_X_A_0" x="0" dy="0">1</tspan></text></g></g></g><g id="_R_G_L_19_G_N_31_T_0_M"><g id="_R_G_L_19_G_N_31_T_0"><g id="_R_G_L_19_G" transform=" translate(-209.333, 203.25) scale(0.19635999999999998, 0.19635999999999998) translate(0, 0)"><text id="_R_G_L_19_G_X" font-size="80px" font-family="Poppins" font-weight="SemiBold" fill="#0067ce" text-anchor="middle" letter-spacing="0"><tspan id="_R_G_L_19_G_X_A_0" x="0" dy="0">0</tspan></text></g></g></g><g id="_R_G_L_18_G_N_31_T_0_M"><g id="_R_G_L_18_G_N_31_T_0"><g id="_R_G_L_18_G" transform=" translate(-198.583, 203.25) scale(0.19635999999999998, 0.19635999999999998) translate(0, 0)"><text id="_R_G_L_18_G_X" font-size="80px" font-family="Poppins" font-weight="SemiBold" fill="#0067ce" text-anchor="middle" letter-spacing="0"><tspan id="_R_G_L_18_G_X_A_0" x="0" dy="0">1</tspan></text></g></g></g><g id="_R_G_L_17_G_N_31_T_0_M"><g id="_R_G_L_17_G_N_31_T_0"><g id="_R_G_L_17_G" transform=" translate(-220.583, 187.5) scale(0.19635999999999998, 0.19635999999999998) translate(0, 0)"><text id="_R_G_L_17_G_X" font-size="80px" font-family="Poppins" font-weight="SemiBold" fill="#0067ce" text-anchor="middle" letter-spacing="0"><tspan id="_R_G_L_17_G_X_A_0" x="0" dy="0">0</tspan></text></g></g></g><g id="_R_G_L_16_G_N_31_T_0_M"><g id="_R_G_L_16_G_N_31_T_0"><g id="_R_G_L_16_G" transform=" translate(-209.583, 187.5) scale(0.19635999999999998, 0.19635999999999998) translate(0, 0)"><text id="_R_G_L_16_G_X" font-size="80px" font-family="Poppins" font-weight="SemiBold" fill="#0067ce" text-anchor="middle" letter-spacing="0"><tspan id="_R_G_L_16_G_X_A_0" x="0" dy="0">1</tspan></text></g></g></g><g id="_R_G_L_15_G_N_31_T_0_M"><g id="_R_G_L_15_G_N_31_T_0"><g id="_R_G_L_15_G" transform=" translate(-199.083, 187.5) scale(0.19635999999999998, 0.19635999999999998) translate(0, 0)"><text id="_R_G_L_15_G_X" font-size="80px" font-family="Poppins" font-weight="SemiBold" fill="#0067ce" text-anchor="middle" letter-spacing="0"><tspan id="_R_G_L_15_G_X_A_0" x="0" dy="0">0</tspan></text></g></g></g><g id="_R_G_L_14_G_N_31_T_0_M"><g id="_R_G_L_14_G_N_31_T_0"><g id="_R_G_L_14_G" transform=" translate(-220.333, 203.25) scale(0.19635999999999998, 0.19635999999999998) translate(0, 0)"><text id="_R_G_L_14_G_X" font-size="80px" font-family="Poppins" font-weight="SemiBold" fill="#0067ce" text-anchor="middle" letter-spacing="0"><tspan id="_R_G_L_14_G_X_A_0" x="0" dy="0">1</tspan></text></g></g></g><g id="_R_G_L_13_G_N_31_T_0_M"><g id="_R_G_L_13_G_N_31_T_0"><g id="_R_G_L_13_G" transform=" translate(-209.333, 203.25) scale(0.19635999999999998, 0.19635999999999998) translate(0, 0)"><text id="_R_G_L_13_G_X" font-size="80px" font-family="Poppins" font-weight="SemiBold" fill="#0067ce" text-anchor="middle" letter-spacing="0"><tspan id="_R_G_L_13_G_X_A_0" x="0" dy="0">0</tspan></text></g></g></g><g id="_R_G_L_12_G_N_31_T_0_M"><g id="_R_G_L_12_G_N_31_T_0"><g id="_R_G_L_12_G" transform=" translate(-198.583, 203.25) scale(0.19635999999999998, 0.19635999999999998) translate(0, 0)"><text id="_R_G_L_12_G_X" font-size="80px" font-family="Poppins" font-weight="SemiBold" fill="#0067ce" text-anchor="middle" letter-spacing="0"><tspan id="_R_G_L_12_G_X_A_0" x="0" dy="0">1</tspan></text></g></g></g><g id="_R_G_L_11_G_N_37_T_0_M"><g id="_R_G_L_11_G_N_37_T_0"><g id="_R_G_L_11_G" transform=" translate(252.484, -314) scale(0.19635999999999998, 0.19635999999999998) translate(0, 0)"><text id="_R_G_L_11_G_X" font-size="80px" font-family="Poppins" font-weight="SemiBold" fill="#0067ce" text-anchor="middle" letter-spacing="0"><tspan id="_R_G_L_11_G_X_A_0" x="0" dy="0">0</tspan></text></g></g></g><g id="_R_G_L_10_G_N_37_T_0_M"><g id="_R_G_L_10_G_N_37_T_0"><g id="_R_G_L_10_G" transform=" translate(263.484, -314) scale(0.19635999999999998, 0.19635999999999998) translate(0, 0)"><text id="_R_G_L_10_G_X" font-size="80px" font-family="Poppins" font-weight="SemiBold" fill="#0067ce" text-anchor="middle" letter-spacing="0"><tspan id="_R_G_L_10_G_X_A_0" x="0" dy="0">1</tspan></text></g></g></g><g id="_R_G_L_9_G_N_37_T_0_M"><g id="_R_G_L_9_G_N_37_T_0"><g id="_R_G_L_9_G" transform=" translate(273.984, -314) scale(0.19635999999999998, 0.19635999999999998) translate(0, 0)"><text id="_R_G_L_9_G_X" font-size="80px" font-family="Poppins" font-weight="SemiBold" fill="#0067ce" text-anchor="middle" letter-spacing="0"><tspan id="_R_G_L_9_G_X_A_0" x="0" dy="0">0</tspan></text></g></g></g><g id="_R_G_L_8_G_N_37_T_0_M"><g id="_R_G_L_8_G_N_37_T_0"><g id="_R_G_L_8_G" transform=" translate(252.734, -298.25) scale(0.19635999999999998, 0.19635999999999998) translate(0, 0)"><text id="_R_G_L_8_G_X" font-size="80px" font-family="Poppins" font-weight="SemiBold" fill="#0067ce" text-anchor="middle" letter-spacing="0"><tspan id="_R_G_L_8_G_X_A_0" x="0" dy="0">1</tspan></text></g></g></g><g id="_R_G_L_7_G_N_37_T_0_M"><g id="_R_G_L_7_G_N_37_T_0"><g id="_R_G_L_7_G" transform=" translate(263.734, -298.25) scale(0.19635999999999998, 0.19635999999999998) translate(0, 0)"><text id="_R_G_L_7_G_X" font-size="80px" font-family="Poppins" font-weight="SemiBold" fill="#0067ce" text-anchor="middle" letter-spacing="0"><tspan id="_R_G_L_7_G_X_A_0" x="0" dy="0">0</tspan></text></g></g></g><g id="_R_G_L_6_G_N_37_T_0_M"><g id="_R_G_L_6_G_N_37_T_0"><g id="_R_G_L_6_G" transform=" translate(274.484, -298.25) scale(0.19635999999999998, 0.19635999999999998) translate(0, 0)"><text id="_R_G_L_6_G_X" font-size="80px" font-family="Poppins" font-weight="SemiBold" fill="#0067ce" text-anchor="middle" letter-spacing="0"><tspan id="_R_G_L_6_G_X_A_0" x="0" dy="0">1</tspan></text></g></g></g><g id="_R_G_L_5_G_N_37_T_0_M"><g id="_R_G_L_5_G_N_37_T_0"><g id="_R_G_L_5_G" transform=" translate(252.484, -314) scale(0.19635999999999998, 0.19635999999999998) translate(0, 0)"><text id="_R_G_L_5_G_X" font-size="80px" font-family="Poppins" font-weight="SemiBold" fill="#0067ce" text-anchor="middle" letter-spacing="0"><tspan id="_R_G_L_5_G_X_A_0" x="0" dy="0">0</tspan></text></g></g></g><g id="_R_G_L_4_G_N_37_T_0_M"><g id="_R_G_L_4_G_N_37_T_0"><g id="_R_G_L_4_G" transform=" translate(263.484, -314) scale(0.19635999999999998, 0.19635999999999998) translate(0, 0)"><text id="_R_G_L_4_G_X" font-size="80px" font-family="Poppins" font-weight="SemiBold" fill="#0067ce" text-anchor="middle" letter-spacing="0"><tspan id="_R_G_L_4_G_X_A_0" x="0" dy="0">1</tspan></text></g></g></g><g id="_R_G_L_3_G_N_37_T_0_M"><g id="_R_G_L_3_G_N_37_T_0"><g id="_R_G_L_3_G" transform=" translate(273.984, -314) scale(0.19635999999999998, 0.19635999999999998) translate(0, 0)"><text id="_R_G_L_3_G_X" font-size="80px" font-family="Poppins" font-weight="SemiBold" fill="#0067ce" text-anchor="middle" letter-spacing="0"><tspan id="_R_G_L_3_G_X_A_0" x="0" dy="0">0</tspan></text></g></g></g><g id="_R_G_L_2_G_N_37_T_0_M"><g id="_R_G_L_2_G_N_37_T_0"><g id="_R_G_L_2_G" transform=" translate(252.734, -298.25) scale(0.19635999999999998, 0.19635999999999998) translate(0, 0)"><text id="_R_G_L_2_G_X" font-size="80px" font-family="Poppins" font-weight="SemiBold" fill="#0067ce" text-anchor="middle" letter-spacing="0"><tspan id="_R_G_L_2_G_X_A_0" x="0" dy="0">1</tspan></text></g></g></g><g id="_R_G_L_1_G_N_37_T_0_M"><g id="_R_G_L_1_G_N_37_T_0"><g id="_R_G_L_1_G" transform=" translate(263.734, -298.25) scale(0.19635999999999998, 0.19635999999999998) translate(0, 0)"><text id="_R_G_L_1_G_X" font-size="80px" font-family="Poppins" font-weight="SemiBold" fill="#0067ce" text-anchor="middle" letter-spacing="0"><tspan id="_R_G_L_1_G_X_A_0" x="0" dy="0">0</tspan></text></g></g></g><g id="_R_G_L_0_G_N_37_T_0_M"><g id="_R_G_L_0_G_N_37_T_0"><g id="_R_G_L_0_G" transform=" translate(274.484, -298.25) scale(0.19635999999999998, 0.19635999999999998) translate(0, 0)"><text id="_R_G_L_0_G_X" font-size="80px" font-family="Poppins" font-weight="SemiBold" fill="#0067ce" text-anchor="middle" letter-spacing="0"><tspan id="_R_G_L_0_G_X_A_0" x="0" dy="0">1</tspan></text></g></g></g></g><g id="time_group"/></svg>