<svg xmlns="http://www.w3.org/2000/svg" width="81.218" height="44" viewBox="0 0 81.218 44">
  <path id="icons8-invisible" d="M41.613,12C19.051,12,1.42,32.889,1.42,32.889a1.689,1.689,0,0,0,0,2.221S19.051,56,41.613,56,81.8,35.111,81.8,35.111a1.689,1.689,0,0,0,0-2.221S64.175,12,41.613,12Zm0,3.385a37.547,37.547,0,0,1,12.639,2.327,16.9,16.9,0,1,1-25.332,0A37.69,37.69,0,0,1,41.613,15.385ZM23.315,20.2A20.292,20.292,0,1,0,61.92,28.923,20.432,20.432,0,0,0,59.964,20.2,69.2,69.2,0,0,1,78.156,34c-2.75,2.975-17.974,18.615-36.543,18.615S7.819,36.975,5.069,34A69.278,69.278,0,0,1,23.315,20.2Zm18.3.264a8.462,8.462,0,1,0,8.462,8.462A8.486,8.486,0,0,0,41.613,20.462Zm0,3.385a5.077,5.077,0,1,1-5.077,5.077A5.053,5.053,0,0,1,41.613,23.846Z" transform="translate(-1.004 -12)" fill="#1789fb"/>
</svg>
