<svg xmlns="http://www.w3.org/2000/svg" width="38" height="47" viewBox="0 0 38 47">
  <path id="icons8-privacy" d="M25,1A11.988,11.988,0,0,0,13,13v5H9a3.016,3.016,0,0,0-3,3V45a3.016,3.016,0,0,0,3,3H41a3.016,3.016,0,0,0,3-3V21a3.016,3.016,0,0,0-3-3H37V13A11.988,11.988,0,0,0,25,1Zm0,2A9.945,9.945,0,0,1,35,13v5H15V13A9.945,9.945,0,0,1,25,3ZM9,20H41a1,1,0,0,1,1,1V45a1,1,0,0,1-1,1H9a1,1,0,0,1-1-1V21A1,1,0,0,1,9,20Zm16,5a8,8,0,1,0,8,8A8.015,8.015,0,0,0,25,25Zm0,2a6,6,0,1,1-6,6A5.987,5.987,0,0,1,25,27Zm0,2a4,4,0,1,0,4,4,4.821,4.821,0,0,0-.187-1.187A1.983,1.983,0,0,1,27,33a2,2,0,0,1-2-2,1.983,1.983,0,0,1,1.188-1.812A4.821,4.821,0,0,0,25,29Z" transform="translate(-6 -1)" fill="#1683f5"/>
</svg>
