<svg xmlns="http://www.w3.org/2000/svg" xmlns:xlink="http://www.w3.org/1999/xlink" viewBox="0 0 500 500"><defs><style>.cls-1{isolation:isolate;}.cls-2,.cls-4{fill:#ebebf2;}.cls-2,.cls-3{opacity:0.1;}.cls-5{fill:#43434c;}.cls-6{fill:#5e5e6b;}.cls-7{fill:#32323f;}.cls-8{fill:url(#linear-gradient);}.cls-22,.cls-23,.cls-9{mix-blend-mode:multiply;}.cls-9{fill:url(#Degradado_sin_nombre_156);}.cls-10{fill:#0d5dea;}.cls-11{fill:url(#linear-gradient-2);filter:url(#filter);}.cls-12{filter:url(#filter-2);}.cls-13,.cls-14{fill:#fff;}.cls-14{opacity:0.15;}.cls-15{fill:url(#linear-gradient-3);filter:url(#filter-3);}.cls-16{fill:#ffc700;}.cls-17{fill:#1e9aff;}.cls-18{fill:url(#linear-gradient-4);filter:url(#filter-4);}.cls-19{filter:url(#filter-5);}.cls-20{fill:url(#linear-gradient-5);filter:url(#filter-6);}.cls-21{fill:url(#linear-gradient-6);filter:url(#filter-7);}.cls-22{fill:#a9ccff;}.cls-23{fill:#a7c8ff;}</style><linearGradient id="linear-gradient" x1="151.32" y1="148.3" x2="349.18" y2="346.16" gradientUnits="userSpaceOnUse"><stop offset="0" stop-color="#0d5dea"/><stop offset="1" stop-color="#0d5dea" stop-opacity="0.5"/></linearGradient><linearGradient id="Degradado_sin_nombre_156" x1="244.13" y1="339.83" x2="255.87" y2="351.57" gradientUnits="userSpaceOnUse"><stop offset="0" stop-color="#a7c8ff"/><stop offset="1" stop-color="#d8e9ff"/></linearGradient><linearGradient id="linear-gradient-2" x1="351.88" y1="312.48" x2="404.31" y2="364.91" gradientUnits="userSpaceOnUse"><stop offset="0" stop-color="#28ef00" stop-opacity="0.4"/><stop offset="1" stop-color="#28ef00"/></linearGradient><filter id="filter" x="333" y="301.94" width="90" height="91" filterUnits="userSpaceOnUse"><feOffset dy="8.89" input="SourceAlpha"/><feGaussianBlur stdDeviation="5.33" result="blur"/><feFlood flood-color="#1172d5"/><feComposite operator="in" in2="blur"/><feComposite in="SourceGraphic"/></filter><filter id="filter-2"><feOffset dy="3.75" input="SourceAlpha"/><feGaussianBlur stdDeviation="3.75" result="blur-2"/><feFlood flood-color="#1e85ff"/><feComposite operator="in" in2="blur-2"/><feComposite in="SourceGraphic"/></filter><linearGradient id="linear-gradient-3" x1="171.22" y1="138.43" x2="310.06" y2="277.27" xlink:href="#linear-gradient-2"/><filter id="filter-3" x="137" y="143.94" width="208" height="146" filterUnits="userSpaceOnUse"><feOffset dy="8.89" input="SourceAlpha"/><feGaussianBlur stdDeviation="5.33" result="blur-3"/><feFlood flood-color="#1e85ff"/><feComposite operator="in" in2="blur-3"/><feComposite in="SourceGraphic"/></filter><linearGradient id="linear-gradient-4" x1="135.5" y1="275.85" x2="203.22" y2="343.57" xlink:href="#linear-gradient-2"/><filter id="filter-4" x="110" y="271.94" width="119" height="93" filterUnits="userSpaceOnUse"><feOffset dy="8.89" input="SourceAlpha"/><feGaussianBlur stdDeviation="5.33" result="blur-4"/><feFlood flood-color="#1e85ff"/><feComposite operator="in" in2="blur-4"/><feComposite in="SourceGraphic"/></filter><filter id="filter-5"><feOffset dy="3.75" input="SourceAlpha"/><feGaussianBlur stdDeviation="3.75" result="blur-5"/><feFlood flood-color="#1e85ff"/><feComposite operator="in" in2="blur-5"/><feComposite in="SourceGraphic"/></filter><linearGradient id="linear-gradient-5" x1="350.61" y1="118.65" x2="440.56" y2="208.6" xlink:href="#linear-gradient-2"/><filter id="filter-6" x="332" y="107.94" width="128" height="129" filterUnits="userSpaceOnUse"><feOffset dy="8.89" input="SourceAlpha"/><feGaussianBlur stdDeviation="5.33" result="blur-6"/><feFlood flood-color="#1e85ff"/><feComposite operator="in" in2="blur-6"/><feComposite in="SourceGraphic"/></filter><linearGradient id="linear-gradient-6" x1="64.91" y1="145.99" x2="133.39" y2="145.99" xlink:href="#linear-gradient-2"/><filter id="filter-7" x="48" y="103.94" width="102" height="102" filterUnits="userSpaceOnUse"><feOffset dy="8.89" input="SourceAlpha"/><feGaussianBlur stdDeviation="5.33" result="blur-7"/><feFlood flood-color="#1e85ff"/><feComposite operator="in" in2="blur-7"/><feComposite in="SourceGraphic"/></filter></defs><g class="cls-1"><g id="OBJECTS"><path class="cls-2" d="M389.45,134.67a47.24,47.24,0,0,0-.94-9.36l15.65-9L389.5,90.87l-15.61,9a46.7,46.7,0,0,0-16.48-9.55v-18H328.09v18a47.1,47.1,0,0,0-7.86,3.43c-.3.16-.59.34-.88.5l-.88.51a46.4,46.4,0,0,0-6.89,5.09l-15.58-9-14.66,25.4,15.58,9a46.54,46.54,0,0,0-1,8.52v2a46.34,46.34,0,0,0,1,8.51l-15.58,9L296,178.72l15.58-9a46.62,46.62,0,0,0,16.51,9.5v18h29.32V179.16a47.13,47.13,0,0,0,16.38-9.51l15.71,9.07,14.66-25.4-15.7-9.07A47.24,47.24,0,0,0,389.45,134.67ZM362,155.34l-.39.35c-.5.45-1,.88-1.56,1.3-.25.2-.5.39-.76.57-.44.32-.89.62-1.34.91s-.73.46-1.1.67-.75.42-1.13.62-1,.48-1.46.71l-.87.37c-.63.25-1.27.49-1.92.7l-.49.16a28.26,28.26,0,0,1-36.44-27,28,28,0,0,1,2.15-10.78c.06-.16.13-.31.2-.47.25-.58.53-1.15.82-1.72.19-.35.38-.7.58-1s.41-.69.63-1c.34-.54.69-1.06,1.07-1.58l.3-.4a28.25,28.25,0,0,1,49.9,10.79c0,.17.07.34.11.51.14.66.25,1.33.35,2,0,.31.08.62.11.93q.07.81.12,1.62,0,.65,0,1.29t0,1.29c0,.54-.07,1.08-.12,1.61,0,.32-.07.64-.11.95-.1.67-.21,1.34-.35,2,0,.17-.08.34-.11.51a28.05,28.05,0,0,1-3,7.7A28.36,28.36,0,0,1,362,155.34Z"/><path class="cls-2" d="M459.12,224a26.17,26.17,0,0,0-.53-5.27l8.83-5.1-8.27-14.32-8.8,5.08a26.31,26.31,0,0,0-9.29-5.38V188.85H424.53V199a26.5,26.5,0,0,0-4.43,1.93c-.17.09-.33.19-.49.29s-.34.18-.5.28a26.89,26.89,0,0,0-3.89,2.87l-8.78-5.07-8.27,14.32,8.79,5.07a26,26,0,0,0-.54,4.8c0,.2,0,.39,0,.58s0,.38,0,.57a26.14,26.14,0,0,0,.54,4.8l-8.79,5.07,8.27,14.32,8.78-5.07a26.51,26.51,0,0,0,9.31,5.35v10.16h16.53V249.07a26.36,26.36,0,0,0,9.24-5.37l8.85,5.12,8.27-14.32-8.86-5.11A26.06,26.06,0,0,0,459.12,224Zm-15.5,11.66-.21.19c-.29.26-.58.5-.88.74l-.43.32c-.25.18-.5.35-.76.51l-.62.38c-.21.12-.42.24-.64.35l-.82.4-.49.21c-.35.14-.71.28-1.08.39l-.28.09a15.91,15.91,0,0,1-19.33-21.31l.11-.27c.15-.33.3-.65.47-1s.21-.4.33-.6.23-.39.35-.58.39-.6.6-.89a2,2,0,0,0,.17-.23,16.14,16.14,0,0,1,4.66-4.08,15.91,15.91,0,0,1,23.47,10.17l.06.28c.08.38.15.76.2,1.14,0,.17.05.35.06.53a9.06,9.06,0,0,1,.07.91c0,.24,0,.48,0,.72s0,.49,0,.73,0,.61-.07.91,0,.36-.06.53c-.05.38-.12.76-.2,1.13l-.06.29a15.81,15.81,0,0,1-4.62,8Z"/><path class="cls-2" d="M137.56,322.09a36.28,36.28,0,0,0-3.34-6.58l8.89-11.05L125.19,290l-8.86,11a36.41,36.41,0,0,0-14.75-2.31l-5.1-13.16L75,293.89,80.13,307a36.84,36.84,0,0,0-4.78,4.73c-.17.2-.33.41-.5.62l-.49.62a35.43,35.43,0,0,0-3.6,5.68l-13.94-2.17-3.53,22.73,13.94,2.16a35.72,35.72,0,0,0,1.71,6.5c.09.26.19.51.29.76s.18.49.28.73a35.93,35.93,0,0,0,3.12,6l-8.85,11L81.7,380.76l8.84-11A36.53,36.53,0,0,0,105.3,372l5.11,13.18,21.44-8.3-5.12-13.22A36.93,36.93,0,0,0,136,352.1l14,2.18,3.53-22.72-14-2.19A36.48,36.48,0,0,0,137.56,322.09ZM123.31,345l-.18.36c-.24.48-.5.94-.78,1.4-.12.21-.26.42-.39.63-.23.36-.47.7-.72,1.05s-.41.54-.62.8-.43.52-.65.77-.57.63-.87.93-.35.35-.53.52c-.39.36-.78.72-1.2,1.05l-.32.26a22.13,22.13,0,0,1-35.78-17.94c0-.13,0-.27,0-.4,0-.5.07-1,.12-1.49,0-.31.07-.62.12-.93s.11-.63.17-.93c.1-.49.21-1,.34-1.46,0-.13.07-.25.11-.38a21.89,21.89,0,0,1,4-7.64,22.15,22.15,0,0,1,35.55,1.4l.22.34c.29.45.57.91.83,1.37.12.22.23.43.34.66s.38.76.55,1.15.27.61.39.93.23.63.34.95.26.8.37,1.21c.07.24.13.49.19.73.12.51.22,1,.31,1.56l.06.41a22.08,22.08,0,0,1,0,6.49A22.41,22.41,0,0,1,123.31,345Z"/><g class="cls-3"><path class="cls-4" d="M249.35,123.94h-200a2.56,2.56,0,0,1-2.56-2.56h0a2.56,2.56,0,0,1,2.56-2.56h200a2.56,2.56,0,0,1,2.56,2.56h0A2.55,2.55,0,0,1,249.35,123.94Z"/><path class="cls-4" d="M249.35,142.28h-200a2.56,2.56,0,0,1-2.56-2.56h0a2.56,2.56,0,0,1,2.56-2.56h200a2.56,2.56,0,0,1,2.56,2.56h0A2.56,2.56,0,0,1,249.35,142.28Z"/><path class="cls-4" d="M249.35,160.62h-200a2.56,2.56,0,0,1-2.56-2.56h0a2.56,2.56,0,0,1,2.56-2.56h200a2.55,2.55,0,0,1,2.56,2.56h0A2.56,2.56,0,0,1,249.35,160.62Z"/><rect class="cls-4" x="46.82" y="173.83" width="205.09" height="5.12" rx="2.56"/><path class="cls-4" d="M249.35,197.29h-200a2.56,2.56,0,0,1-2.56-2.56h0a2.56,2.56,0,0,1,2.56-2.56h200a2.56,2.56,0,0,1,2.56,2.56h0A2.56,2.56,0,0,1,249.35,197.29Z"/><path class="cls-4" d="M249.35,215.63h-200a2.56,2.56,0,0,1-2.56-2.56h0a2.56,2.56,0,0,1,2.56-2.56h200a2.55,2.55,0,0,1,2.56,2.56h0A2.56,2.56,0,0,1,249.35,215.63Z"/><path class="cls-4" d="M249.35,234h-200a2.56,2.56,0,0,1-2.56-2.56h0a2.56,2.56,0,0,1,2.56-2.56h200a2.56,2.56,0,0,1,2.56,2.56h0A2.55,2.55,0,0,1,249.35,234Z"/><path class="cls-4" d="M249.35,252.3h-200a2.56,2.56,0,0,1-2.56-2.56h0a2.56,2.56,0,0,1,2.56-2.56h200a2.56,2.56,0,0,1,2.56,2.56h0A2.56,2.56,0,0,1,249.35,252.3Z"/><path class="cls-4" d="M249.35,270.64h-200a2.56,2.56,0,0,1-2.56-2.56h0a2.56,2.56,0,0,1,2.56-2.56h200a2.55,2.55,0,0,1,2.56,2.56h0A2.56,2.56,0,0,1,249.35,270.64Z"/></g><ellipse class="cls-2" cx="250" cy="386.76" rx="153.55" ry="14.5"/><polygon class="cls-5" points="294.5 387.53 205.5 387.53 220.81 343.41 279.19 343.41 294.5 387.53"/><path class="cls-6" d="M107.41,209.16H392.59a0,0,0,0,1,0,0V350.39a15.3,15.3,0,0,1-15.3,15.3H122.71a15.3,15.3,0,0,1-15.3-15.3V209.16A0,0,0,0,1,107.41,209.16Z"/><path class="cls-7" d="M122.71,165.29H377.29a15.3,15.3,0,0,1,15.3,15.3V329.47a0,0,0,0,1,0,0H107.41a0,0,0,0,1,0,0V180.59A15.3,15.3,0,0,1,122.71,165.29Z"/><rect class="cls-8" x="118.88" y="180.75" width="262.74" height="132.97"/><circle class="cls-9" cx="250" cy="345.7" r="8.3"/><path class="cls-6" d="M317.68,387.53H182.32a8.23,8.23,0,0,1,8.23-8.23h118.9a8.23,8.23,0,0,1,8.23,8.23Z"/><ellipse class="cls-2" cx="378.1" cy="410.82" rx="62.22" ry="8.9"/><rect class="cls-6" x="338.08" y="270.01" width="80.04" height="137.37" rx="8.89"/><rect class="cls-10" x="338.08" y="279.58" width="80.04" height="117.68"/><rect class="cls-11" x="349.28" y="309.88" width="57.63" height="57.63" rx="8.89"/><g class="cls-12"><path class="cls-13" d="M378.1,360.76a22.07,22.07,0,1,1,22.06-22.06A22.09,22.09,0,0,1,378.1,360.76Zm0-40.05a18,18,0,1,0,18,18A18,18,0,0,0,378.1,320.71Z"/><polygon class="cls-13" points="376.5 347.08 368.79 340.29 372.02 336.62 376.05 340.17 383.72 331.39 387.4 334.61 376.5 347.08"/></g><path class="cls-6" d="M388.13,284.24H368.06a5.6,5.6,0,0,1-5.6-5.6h31.27A5.6,5.6,0,0,1,388.13,284.24Z"/><path class="cls-14" d="M385.33,279.58H370.86a.94.94,0,0,1-.94-.93h0a.94.94,0,0,1,.94-.94h14.47a.94.94,0,0,1,.94.94h0A.94.94,0,0,1,385.33,279.58Z"/><rect class="cls-15" x="153.07" y="151.39" width="175.15" height="112.93" rx="8.89"/><rect class="cls-10" x="161.95" y="160.27" width="157.37" height="95.15"/><rect class="cls-16" x="178.73" y="172.99" width="16.37" height="2.21"/><rect class="cls-16" x="200.28" y="172.99" width="33.5" height="2.21"/><rect class="cls-13" x="185.68" y="181.95" width="16.37" height="2.21"/><rect class="cls-17" x="207.23" y="181.95" width="95.72" height="2.21"/><rect class="cls-13" x="185.68" y="190.26" width="16.37" height="2.21"/><rect class="cls-17" x="207.23" y="190.26" width="95.72" height="2.21"/><rect class="cls-13" x="185.68" y="198.58" width="16.37" height="2.21"/><rect class="cls-17" x="207.23" y="198.58" width="95.72" height="2.21"/><rect class="cls-13" x="185.68" y="206.9" width="16.37" height="2.21"/><rect class="cls-16" x="178.73" y="215.7" width="16.37" height="2.21"/><rect class="cls-16" x="200.28" y="215.7" width="33.5" height="2.21"/><rect class="cls-13" x="207.23" y="224.66" width="61.72" height="2.21"/><rect class="cls-13" x="207.23" y="232.97" width="61.72" height="2.21"/><rect class="cls-17" x="196.62" y="232.97" width="5.43" height="2.21"/><rect class="cls-17" x="185.68" y="241.29" width="16.37" height="2.21"/><rect class="cls-13" x="207.23" y="241.29" width="61.72" height="2.21"/><rect class="cls-13" x="273.4" y="224.66" width="30.25" height="2.21"/><rect class="cls-13" x="273.4" y="232.97" width="30.25" height="2.21"/><rect class="cls-13" x="273.4" y="241.29" width="30.25" height="2.21"/><rect class="cls-17" x="207.23" y="206.9" width="95.72" height="2.21"/><rect class="cls-18" x="126.23" y="279.91" width="86.26" height="59.6" rx="8.89"/><g class="cls-19"><polygon class="cls-13" points="156.88 295.66 140.65 309.71 156.88 323.76 156.88 316.15 149.45 309.71 156.88 303.27 156.88 295.66"/><polygon class="cls-13" points="181.84 323.76 198.07 309.71 181.84 295.66 181.84 303.27 189.27 309.71 181.84 316.15 181.84 323.76"/><polygon class="cls-13" points="167.79 328.35 160.91 328.35 170.93 291.07 177.8 291.07 167.79 328.35"/></g><rect class="cls-20" x="348.01" y="116.05" width="95.15" height="95.15" rx="8.89"/><rect class="cls-21" x="64.91" y="111.74" width="68.49" height="68.49" rx="8.89"/><rect class="cls-10" x="73" y="119.83" width="52.31" height="52.31"/><rect class="cls-13" x="81.84" y="130.02" width="4.81" height="2.21"/><rect class="cls-17" x="89.18" y="130.02" width="24.61" height="2.21"/><rect class="cls-13" x="81.84" y="137.44" width="7.48" height="2.21"/><rect class="cls-17" x="91.84" y="137.44" width="24.61" height="2.21"/><rect class="cls-13" x="81.84" y="151.41" width="4.81" height="2.21"/><rect class="cls-17" x="89.18" y="151.41" width="24.61" height="2.21"/><rect class="cls-13" x="81.84" y="158.84" width="7.48" height="2.21"/><rect class="cls-17" x="91.84" y="158.84" width="24.61" height="2.21"/><rect class="cls-13" x="77.4" y="144.87" width="7.48" height="2.21"/><rect class="cls-17" x="87.4" y="144.87" width="33.5" height="2.21"/><rect class="cls-22" x="251.86" y="278.04" width="20.06" height="20.06"/><rect class="cls-22" x="281.01" y="278.04" width="20.06" height="20.06"/><rect class="cls-22" x="310.15" y="278.04" width="20.06" height="20.06"/><rect class="cls-23" x="339.91" y="223.55" width="30.25" height="2.21"/><rect class="cls-23" x="339.91" y="231.87" width="30.25" height="2.21"/><rect class="cls-23" x="339.91" y="240.18" width="30.25" height="2.21"/><path class="cls-13" d="M390.09,133.26a21.66,21.66,0,1,0,11.59,39.94l15.65,15.65,5.41-5.42L407.29,168a21.61,21.61,0,0,0-17.2-34.76Zm0,5.09a16.57,16.57,0,1,1-16.57,16.57A16.54,16.54,0,0,1,390.09,138.35Z"/></g></g></svg>