<svg xmlns="http://www.w3.org/2000/svg" xmlns:xlink="http://www.w3.org/1999/xlink" preserveAspectRatio="xMidYMid meet" width="284" height="86" viewBox="0 0 284 86" style="width:100%;height:100%"><defs><clipPath id="_R_G_L_0_C_0"><path id="_R_G_L_0_C_0_P_0" fill-rule="nonzero" d="M51.05 -0.5 C51.05,-0.5 -0.5,-0.5 -0.5,-0.5 C-0.5,-0.5 -0.5,49.53 -0.5,49.53 C-0.5,49.53 51.05,49.53 51.05,49.53 C51.05,49.53 51.05,-0.5 51.05,-0.5z "/></clipPath><animateMotion repeatCount="indefinite" dur="3.003003s" begin="0s" xlink:href="#_R_G_L_0_G_G_0_L_12_G" fill="freeze" keyTimes="0;0.0666667;0.4111111;1" path="M-7.42 48.09 C-7.42,48.09 -7.42,48.09 -7.42,48.09 C-3.71,45.26 11.12,33.92 14.83,31.09 C14.83,31.09 14.83,31.09 14.83,31.09 " keyPoints="0;0;1;1" keySplines="0.69 0 0.31 1;0.69 0 0.31 1;0 0 0 0" calcMode="spline"/><animateMotion repeatCount="indefinite" dur="3.003003s" begin="0s" xlink:href="#_R_G_L_0_G_G_0_L_11_G" fill="freeze" keyTimes="0;0.0666667;0.4111111;1" path="M25.5 61.44 C25.5,61.44 25.5,61.44 25.5,61.44 C25.5,57.4 25.5,41.23 25.5,37.19 C25.5,37.19 25.5,37.19 25.5,37.19 " keyPoints="0;0;1;1" keySplines="0.69 0 0.31 1;0.69 0 0.31 1;0 0 0 0" calcMode="spline"/><animateMotion repeatCount="indefinite" dur="3.003003s" begin="0s" xlink:href="#_R_G_L_0_G_G_0_L_10_G" fill="freeze" keyTimes="0;0.0666667;0.4111111;1" path="M56.67 48.47 C56.67,48.47 56.67,48.47 56.67,48.47 C53.26,45.6 39.59,34.1 36.17,31.22 C36.17,31.22 36.17,31.22 36.17,31.22 " keyPoints="0;0;1;1" keySplines="0.69 0 0.31 1;0.69 0 0.31 1;0 0 0 0" calcMode="spline"/><animateMotion repeatCount="indefinite" dur="3.003003s" begin="0s" xlink:href="#_R_G_L_0_G_G_0_L_9_G" fill="freeze" keyTimes="0;0.0666667;0.4111111;1" path="M60.92 18.89 C60.92,18.89 60.92,18.89 60.92,18.89 C56.8,18.89 40.3,18.89 36.17,18.89 C36.17,18.89 36.17,18.89 36.17,18.89 " keyPoints="0;0;1;1" keySplines="0.69 0 0.31 1;0.69 0 0.31 1;0 0 0 0" calcMode="spline"/><animateMotion repeatCount="indefinite" dur="3.003003s" begin="0s" xlink:href="#_R_G_L_0_G_G_0_L_8_G" fill="freeze" keyTimes="0;0.0666667;0.4111111;1" path="M48.75 -4.76 C48.75,-4.76 48.75,-4.76 48.75,-4.76 C44.88,0.2 29.38,20.03 25.5,24.99 C25.5,24.99 25.5,24.99 25.5,24.99 " keyPoints="0;0;1;1" keySplines="0.69 0 0.31 1;0.69 0 0.31 1;0 0 0 0" calcMode="spline"/><animateMotion repeatCount="indefinite" dur="3.003003s" begin="0s" xlink:href="#_R_G_L_0_G_G_0_L_7_G" fill="freeze" keyTimes="0;0.0666667;0.4111111;1" path="M-12.17 18.89 C-12.17,18.89 -12.17,18.89 -12.17,18.89 C-7.67,18.89 10.33,18.89 14.83,18.89 C14.83,18.89 14.83,18.89 14.83,18.89 " keyPoints="0;0;1;1" keySplines="0.69 0 0.31 1;0.69 0 0.31 1;0 0 0 0" calcMode="spline"/><animateMotion repeatCount="indefinite" dur="3.003003s" begin="0s" xlink:href="#_R_G_L_0_G_G_0_L_6_G" fill="freeze" keyTimes="0;0.0666667;0.4111111;1" path="M25.5 -7.96 C25.5,-7.96 25.5,-7.96 25.5,-7.96 C25.5,-4.5 25.5,9.33 25.5,12.79 C25.5,12.79 25.5,12.79 25.5,12.79 " keyPoints="0;0;1;1" keySplines="0.69 0 0.31 1;0.69 0 0.31 1;0 0 0 0" calcMode="spline"/><animateMotion repeatCount="indefinite" dur="3.003003s" begin="0s" xlink:href="#_R_G_L_0_G_G_0_L_5_G" fill="freeze" keyTimes="0;0.0666667;0.4111111;1" path="M25.5 54.34 C25.5,54.34 25.5,54.34 25.5,54.34 C25.5,50.46 25.5,34.96 25.5,31.09 C25.5,31.09 25.5,31.09 25.5,31.09 " keyPoints="0;0;1;1" keySplines="0.69 0 0.31 1;0.69 0 0.31 1;0 0 0 0" calcMode="spline"/><animateMotion repeatCount="indefinite" dur="3.003003s" begin="0s" xlink:href="#_R_G_L_0_G_G_0_L_4_G" fill="freeze" keyTimes="0;0.0666667;0.4111111;1" path="M44.8 54.29 C44.8,54.29 44.8,54.29 44.8,54.29 C42.51,50.95 33.34,37.62 31.05,34.29 C31.05,34.29 31.05,34.29 31.05,34.29 " keyPoints="0;0;1;1" keySplines="0.69 0 0.31 1;0.69 0 0.31 1;0 0 0 0" calcMode="spline"/><animateTransform repeatCount="indefinite" dur="3.003003s" begin="0s" xlink:href="#_R_G_L_0_G_G_0_L_4_G" fill="freeze" attributeName="transform" from="101.202" to="0" type="rotate" additive="sum" keyTimes="0;0.0666667;0.4111111;1" values="101.202;101.202;0;0" keySplines="0.69 0 0.31 1;0.69 0 0.31 1;0 0 0 0" calcMode="spline"/><animateMotion repeatCount="indefinite" dur="3.003003s" begin="0s" xlink:href="#_R_G_L_0_G_G_0_L_3_G" fill="freeze" keyTimes="0;0.0666667;0.4111111;1" path="M9.13 58.04 C9.13,58.04 9.13,58.04 9.13,58.04 C11,54.08 18.5,38.24 20.38,34.29 C20.38,34.29 20.38,34.29 20.38,34.29 " keyPoints="0;0;1;1" keySplines="0.69 0 0.31 1;0.69 0 0.31 1;0 0 0 0" calcMode="spline"/><animateTransform repeatCount="indefinite" dur="3.003003s" begin="0s" xlink:href="#_R_G_L_0_G_G_0_L_3_G" fill="freeze" attributeName="transform" from="133.439" to="0" type="rotate" additive="sum" keyTimes="0;0.0666667;0.4111111;1" values="133.439;133.439;0;0" keySplines="0.69 0 0.31 1;0.69 0 0.31 1;0 0 0 0" calcMode="spline"/><animateMotion repeatCount="indefinite" dur="3.003003s" begin="0s" xlink:href="#_R_G_L_0_G_G_0_L_2_G" fill="freeze" keyTimes="0;0.0666667;0.4111111;1" path="M55.3 21.91 C55.3,21.91 55.3,21.91 55.3,21.91 C51.26,21.91 35.09,21.91 31.05,21.91 C31.05,21.91 31.05,21.91 31.05,21.91 " keyPoints="0;0;1;1" keySplines="0.69 0 0.31 1;0.69 0 0.31 1;0 0 0 0" calcMode="spline"/><animateTransform repeatCount="indefinite" dur="3.003003s" begin="0s" xlink:href="#_R_G_L_0_G_G_0_L_2_G" fill="freeze" attributeName="transform" from="-111.974" to="0" type="rotate" additive="sum" keyTimes="0;0.0666667;0.4111111;1" values="-111.974;-111.974;0;0" keySplines="0.69 0 0.31 1;0.69 0 0.31 1;0 0 0 0" calcMode="spline"/><animateMotion repeatCount="indefinite" dur="3.003003s" begin="0s" xlink:href="#_R_G_L_0_G_G_0_L_1_G" fill="freeze" keyTimes="0;0.0666667;0.4111111;1" path="M-6.37 21.91 C-6.37,21.91 -6.37,21.91 -6.37,21.91 C-1.91,21.91 15.92,21.91 20.38,21.91 C20.38,21.91 20.38,21.91 20.38,21.91 " keyPoints="0;0;1;1" keySplines="0.69 0 0.31 1;0.69 0 0.31 1;0 0 0 0" calcMode="spline"/><animateTransform repeatCount="indefinite" dur="3.003003s" begin="0s" xlink:href="#_R_G_L_0_G_G_0_L_1_G" fill="freeze" attributeName="transform" from="-102.866" to="0" type="rotate" additive="sum" keyTimes="0;0.0666667;0.4111111;1" values="-102.866;-102.866;0;0" keySplines="0.69 0 0.31 1;0.69 0 0.31 1;0 0 0 0" calcMode="spline"/><animateMotion repeatCount="indefinite" dur="3.003003s" begin="0s" xlink:href="#_R_G_L_0_G_G_0_L_0_G" fill="freeze" keyTimes="0;0.0666667;0.4111111;1" path="M17.88 -5.63 C17.88,-5.63 17.88,-5.63 17.88,-5.63 C18.29,-2.05 19.96,12.29 20.38,15.87 C20.38,15.87 20.38,15.87 20.38,15.87 " keyPoints="0;0;1;1" keySplines="0.69 0 0.31 1;0.69 0 0.31 1;0 0 0 0" calcMode="spline"/><animateTransform repeatCount="indefinite" dur="3.003003s" begin="0s" xlink:href="#_R_G_L_0_G_G_0_L_0_G" fill="freeze" attributeName="transform" from="-94.461" to="0" type="rotate" additive="sum" keyTimes="0;0.0666667;0.4111111;1" values="-94.461;-94.461;0;0" keySplines="0.69 0 0.31 1;0.69 0 0.31 1;0 0 0 0" calcMode="spline"/><animate attributeType="XML" attributeName="opacity" dur="3s" from="0" to="1" xlink:href="#time_group"/></defs><g id="_R_G"><g id="_R_G_L_3_G" transform=" translate(141.911, 43) translate(271.589, 237)"><path id="_R_G_L_3_G_D_0_P_0" fill="#0b0d1d" fill-opacity="1" fill-rule="nonzero" d=" M-398.45 -280 C-398.45,-280 -144.73,-280 -144.73,-280 C-136.42,-280 -129.68,-273.73 -129.68,-266 C-129.68,-266 -129.68,-208 -129.68,-208 C-129.68,-200.27 -136.42,-194 -144.73,-194 C-144.73,-194 -398.45,-194 -398.45,-194 C-406.76,-194 -413.5,-200.27 -413.5,-208 C-413.5,-208 -413.5,-266 -413.5,-266 C-413.5,-273.73 -406.76,-280 -398.45,-280z "/><path id="_R_G_L_3_G_D_1_P_0" fill="#202133" fill-opacity="1" fill-rule="nonzero" d=" M-390.5 -262 C-390.5,-262 -349.5,-262 -349.5,-262 C-346.19,-262 -343.5,-259.31 -343.5,-256 C-343.5,-256 -343.5,-217 -343.5,-217 C-343.5,-213.69 -346.19,-211 -349.5,-211 C-349.5,-211 -390.5,-211 -390.5,-211 C-393.81,-211 -396.5,-213.69 -396.5,-217 C-396.5,-217 -396.5,-256 -396.5,-256 C-396.5,-259.31 -393.81,-262 -390.5,-262z "/></g><g id="_R_G_L_2_G" transform=" translate(139.51, 57.419) translate(-49.51, 3.581)"><text id="_R_G_L_2_G_X" font-size="14px" font-family="Poppins" font-weight="Medium" fill="#8b8787" text-anchor="start" letter-spacing="0"><tspan id="_R_G_L_2_G_X_A_0" x="0" dy="0">Private DApps</tspan></text></g><g id="_R_G_L_1_G" transform=" translate(179.173, 34.156) translate(-90.173, 4.844)"><text id="_R_G_L_1_G_X" font-size="20px" font-family="Poppins" font-weight="Medium" fill="#1dbe3d" text-anchor="start" letter-spacing="0"><tspan id="_R_G_L_1_G_X_A_0" x="0" dy="0">Beldex Ecosystem</tspan></text></g><g id="_R_G_L_0_G" transform=" translate(44.024, 43.767) translate(-25.524, -24.767)"><g clip-path="url(#_R_G_L_0_C_0)"><g id="_R_G_L_0_G_G_0_L_12_G"><path id="_R_G_L_0_G_G_0_L_12_G_D_0_P_0" stroke="#1dbe3d" stroke-linecap="round" stroke-linejoin="round" fill="none" stroke-width="1" stroke-opacity="1" d=" M3.02 0 C3.02,1.67 1.67,3.02 0,3.02 C-1.67,3.02 -3.02,1.67 -3.02,0 C-3.02,-1.67 -1.67,-3.02 0,-3.02 C1.67,-3.02 3.02,-1.67 3.02,0z "/></g><g id="_R_G_L_0_G_G_0_L_11_G"><path id="_R_G_L_0_G_G_0_L_11_G_D_0_P_0" stroke="#1dbe3d" stroke-linecap="round" stroke-linejoin="round" fill="none" stroke-width="1" stroke-opacity="1" d=" M3.02 0 C3.02,1.67 1.67,3.02 0,3.02 C-1.67,3.02 -3.02,1.67 -3.02,0 C-3.02,-1.67 -1.67,-3.02 0,-3.02 C1.67,-3.02 3.02,-1.67 3.02,0z "/></g><g id="_R_G_L_0_G_G_0_L_10_G"><path id="_R_G_L_0_G_G_0_L_10_G_D_0_P_0" stroke="#1dbe3d" stroke-linecap="round" stroke-linejoin="round" fill="none" stroke-width="1" stroke-opacity="1" d=" M3.02 0 C3.02,1.67 1.67,3.02 0,3.02 C-1.67,3.02 -3.02,1.67 -3.02,0 C-3.02,-1.67 -1.67,-3.02 0,-3.02 C1.67,-3.02 3.02,-1.67 3.02,0z "/></g><g id="_R_G_L_0_G_G_0_L_9_G"><path id="_R_G_L_0_G_G_0_L_9_G_D_0_P_0" stroke="#1dbe3d" stroke-linecap="round" stroke-linejoin="round" fill="none" stroke-width="1" stroke-opacity="1" d=" M3.02 0 C3.02,1.67 1.67,3.02 0,3.02 C-1.67,3.02 -3.02,1.67 -3.02,0 C-3.02,-1.67 -1.67,-3.02 0,-3.02 C1.67,-3.02 3.02,-1.67 3.02,0z "/></g><g id="_R_G_L_0_G_G_0_L_8_G"><path id="_R_G_L_0_G_G_0_L_8_G_D_0_P_0" stroke="#1dbe3d" stroke-linecap="round" stroke-linejoin="round" fill="none" stroke-width="1" stroke-opacity="1" d=" M3.02 0 C3.02,1.67 1.67,3.02 0,3.02 C-1.67,3.02 -3.02,1.67 -3.02,0 C-3.02,-1.67 -1.67,-3.02 0,-3.02 C1.67,-3.02 3.02,-1.67 3.02,0z "/></g><g id="_R_G_L_0_G_G_0_L_7_G"><path id="_R_G_L_0_G_G_0_L_7_G_D_0_P_0" stroke="#1dbe3d" stroke-linecap="round" stroke-linejoin="round" fill="none" stroke-width="1" stroke-opacity="1" d=" M3.02 0 C3.02,1.67 1.67,3.02 0,3.02 C-1.67,3.02 -3.02,1.67 -3.02,0 C-3.02,-1.67 -1.67,-3.02 0,-3.02 C1.67,-3.02 3.02,-1.67 3.02,0z "/></g><g id="_R_G_L_0_G_G_0_L_6_G"><path id="_R_G_L_0_G_G_0_L_6_G_D_0_P_0" stroke="#1dbe3d" stroke-linecap="round" stroke-linejoin="round" fill="none" stroke-width="1" stroke-opacity="1" d=" M3.02 0 C3.02,1.67 1.67,3.02 0,3.02 C-1.67,3.02 -3.02,1.67 -3.02,0 C-3.02,-1.67 -1.67,-3.02 0,-3.02 C1.67,-3.02 3.02,-1.67 3.02,0z "/></g><g id="_R_G_L_0_G_G_0_L_5_G"><path id="_R_G_L_0_G_G_0_L_5_G_D_0_P_0" stroke="#1dbe3d" stroke-linecap="round" stroke-linejoin="round" fill="none" stroke-width="1" stroke-opacity="1" d=" M0 -3.08 C0,-3.08 0,3.08 0,3.08 "/></g><g id="_R_G_L_0_G_G_0_L_4_G"><path id="_R_G_L_0_G_G_0_L_4_G_D_0_P_0" stroke="#1dbe3d" stroke-linecap="round" stroke-linejoin="round" fill="none" stroke-width="1" stroke-opacity="1" d=" M-2.53 1.53 C-2.53,1.53 2.53,-1.52 2.53,-1.52 "/></g><g id="_R_G_L_0_G_G_0_L_3_G"><path id="_R_G_L_0_G_G_0_L_3_G_D_0_P_0" stroke="#1dbe3d" stroke-linecap="round" stroke-linejoin="round" fill="none" stroke-width="1" stroke-opacity="1" d=" M2.53 1.53 C2.53,1.53 -2.53,-1.52 -2.53,-1.52 "/></g><g id="_R_G_L_0_G_G_0_L_2_G"><path id="_R_G_L_0_G_G_0_L_2_G_D_0_P_0" stroke="#1dbe3d" stroke-linecap="round" stroke-linejoin="round" fill="none" stroke-width="1" stroke-opacity="1" d=" M-2.53 1.53 C-2.53,1.53 2.53,-1.52 2.53,-1.52 "/></g><g id="_R_G_L_0_G_G_0_L_1_G"><path id="_R_G_L_0_G_G_0_L_1_G_D_0_P_0" stroke="#1dbe3d" stroke-linecap="round" stroke-linejoin="round" fill="none" stroke-width="1" stroke-opacity="1" d=" M2.53 1.53 C2.53,1.53 -2.53,-1.52 -2.53,-1.52 "/></g><g id="_R_G_L_0_G_G_0_L_0_G"><path id="_R_G_L_0_G_G_0_L_0_G_D_0_P_0" stroke="#1dbe3d" stroke-linecap="round" stroke-linejoin="round" fill="none" stroke-width="1" stroke-opacity="1" d=" M2.53 -1.52 C2.53,-1.52 -2.53,1.53 -2.53,1.53 "/></g></g></g></g><g id="time_group"/></svg>