<svg xmlns="http://www.w3.org/2000/svg" width="44" height="49.805" viewBox="0 0 44 49.805">
  <path id="icons8-security_lock" d="M25,0c-2.453,0-4.523,1.367-7.594,2.945a52.651,52.651,0,0,1-13.621,4.9L3,8.02v.8c0,15.324,5.355,25.551,10.734,31.9A35.64,35.64,0,0,0,24.578,49.6l.441.2.434-.219S47,38.48,47,8.82v-.8l-.785-.176a52.651,52.651,0,0,1-13.621-4.9C29.523,1.367,27.453,0,25,0Zm0,2c1.645,0,3.543,1.109,6.684,2.727a56.5,56.5,0,0,0,13.254,4.82C44.582,36.68,26.277,46.84,24.984,47.52a31.641,31.641,0,0,1-9.719-8.094C10.234,33.492,5.242,23.961,5.063,9.547a56.5,56.5,0,0,0,13.254-4.82C21.457,3.109,23.355,2,25,2Zm0,14a4,4,0,0,0-2.187,7.344L21,31.5h8l-1.812-8.156A4,4,0,0,0,25,16Z" transform="translate(-3)" fill="#0080ff"/>
</svg>
