<svg xmlns="http://www.w3.org/2000/svg" width="67.868" height="76.821" viewBox="0 0 67.868 76.821">
  <path id="icons8-security_shield_green" d="M36.934.1C33.152.1,29.956,2.2,25.218,4.641A81.349,81.349,0,0,1,4.211,12.2L3,12.464v1.241c0,23.631,8.263,39.41,16.56,49.2s16.726,13.7,16.726,13.7l.681.313.666-.34S70.868,59.45,70.868,13.706V12.464L69.657,12.2A81.349,81.349,0,0,1,48.65,4.641C43.912,2.2,40.716.1,36.934.1Zm0,3.085c2.539,0,5.466,1.713,10.306,4.2a87.025,87.025,0,0,0,20.444,7.438C67.137,56.672,38.905,72.345,36.91,73.4c-.963-.468-7.64-3.806-14.994-12.484C14.158,51.758,6.456,37.055,6.181,14.823A87.028,87.028,0,0,0,26.628,7.385C31.468,4.9,34.4,3.183,36.934,3.183Zm0,13.731a9.449,9.449,0,0,0-9.255,9.562v2.778h-1.7a2.93,2.93,0,0,0-2.931,2.931V47.763a2.966,2.966,0,0,0,2.931,3.085h21.9a3.035,3.035,0,0,0,2.931-2.931V32.185a2.93,2.93,0,0,0-2.931-2.931h-1.7V26.476A9.449,9.449,0,0,0,36.934,16.914Zm0,3.085a6.357,6.357,0,0,1,6.17,6.477v2.778H30.764V26.476A6.357,6.357,0,0,1,36.934,20Zm-10.8,12.34H47.731V47.763H26.137Zm10.8,4.627a2.11,2.11,0,0,0-2.16,2.16,2.142,2.142,0,0,0,.771,1.542v2a1.389,1.389,0,0,0,2.778,0v-2a2.142,2.142,0,0,0,.771-1.542A2.11,2.11,0,0,0,36.934,36.966Z" transform="translate(-3 -0.098)" fill="#4dde39"/>
</svg>
