<svg xmlns="http://www.w3.org/2000/svg" width="29.546" height="17.235" viewBox="0 0 29.546 17.235">
  <path id="Subtraction_1" data-name="Subtraction 1" d="M71.546,17.235H42a14.56,14.56,0,0,1,1.651-6.78,14.942,14.942,0,0,1,4.4-5.127L44.823,2.1a1.231,1.231,0,0,1,.87-2.1,1.22,1.22,0,0,1,.87.361l3.65,3.649a14.672,14.672,0,0,1,13.119,0L66.982.361a1.232,1.232,0,0,1,1.742,0,1.237,1.237,0,0,1,0,1.741L65.5,5.328a14.944,14.944,0,0,1,4.4,5.127,14.56,14.56,0,0,1,1.651,6.779Zm-9-8.117a2,2,0,1,0,2,2A2,2,0,0,0,62.546,9.118Zm-12,0a2,2,0,1,0,2,2A2,2,0,0,0,50.547,9.118Z" transform="translate(-42)" fill="#fff"/>
</svg>
