<svg xmlns="http://www.w3.org/2000/svg" width="23.741" height="26.919" viewBox="0 0 23.741 26.919">
  <path id="icons8-apple_logo" d="M20.665,1a7.184,7.184,0,0,0-4.393,2.056,4.583,4.583,0,0,0-1.4,3.927,6.013,6.013,0,0,0,4.393-1.964A4.926,4.926,0,0,0,20.665,1Zm.092,5.98c-2.435,0-3.453,1.5-5.139,1.5-1.735,0-3.321-1.4-5.421-1.4-2.856,0-7.2,2.647-7.2,8.88,0,5.67,5.138,11.964,8.039,11.964,1.762.017,2.189-1.108,4.579-1.12s2.909,1.135,4.674,1.12c1.987-.015,3.538-2.2,4.671-3.927a19.447,19.447,0,0,0,1.777-3.27c-4.674-1.184-5.6-8.723,0-10.281A8.516,8.516,0,0,0,20.757,6.98Z" transform="translate(-3 -1)" fill="#fff"/>
</svg>
