<svg xmlns="http://www.w3.org/2000/svg" viewBox="0 0 705.24 91.08"><defs><style>.cls-1{fill:#ff015b;}.cls-2{fill:#0ce6af;}.cls-3{fill:#f2f0f1;}.cls-4{fill:#f2f1f1;}.cls-5{fill:#f2f1f2;}.cls-6{fill:#ff015c;}.cls-7{fill:#ff035d;}</style></defs><g id="Layer_2" data-name="Layer 2"><g id="Layer_6" data-name="Layer 6"><path class="cls-1" d="M328.11,91.08q-.11,0-.06-.15a6.15,6.15,0,0,1,1.66-.08H662.23a6.12,6.12,0,0,1,1.54.07c.23-.09,1.06-.22,0,.16"/><path class="cls-1" d="M325.72,90.86l2.33.07q0,.12.06.15"/><path class="cls-1" d="M665.87,90.87l-2.1,0a6.12,6.12,0,0,0-1.54-.07H329.71a6.15,6.15,0,0,0-1.66.08l-2.33-.07-.9-.2-.53,0a41.67,41.67,0,0,1-14.79-4.17q-20-10-24.93-31.77c-.39-1.74-.55-3.52-.82-5.29l0-.23a4.57,4.57,0,0,0-.07-1.43V43.19a4.51,4.51,0,0,0,.07-1.42v-.24a1.19,1.19,0,0,0,0-.7.89.89,0,0,0,.13-.71l0-.5,0-.23a46.65,46.65,0,0,1,2.88-10.78C293.13,13.9,304,4.65,319.63,1A41.13,41.13,0,0,1,329,0Q495.78,0,662.6,0a42.79,42.79,0,0,1,41.54,32.69,38.69,38.69,0,0,1,1.1,8.84q-.09,3.93,0,7.87a38.34,38.34,0,0,1-3.09,14.91C696,78.42,685.44,87.08,670.34,90.18c-1,.2-2,.33-3.05.49l-.46.06A1.77,1.77,0,0,0,665.87,90.87ZM430.78,80.61a2.75,2.75,0,0,0-.5-1.19q-4.77-9.19-9.56-18.37c-1.94-3.73-3.87-7.46-5.84-11.18-.31-.59-.35-1,.26-1.39a9.85,9.85,0,0,0,1.34-1.17,21.22,21.22,0,0,0,3.43-27c-4.35-6.67-10.9-9.93-18.72-10.09-11.79-.25-23.59-.07-35.39-.07-1.66,0-1.48-.17-1.48,1.45q0,33.82,0,67.65c0,1.49-.34,1.48,1.46,1.48h18c1.54,0,1.26-.11,1.26-1.33V60.24c0-1,0-1,1-1,3.41,0,6.83,0,10.25,0a1.64,1.64,0,0,1,1.72,1c2.5,4.92,5,9.81,7.58,14.7.84,1.62,1.73,3.22,2.51,4.87a1.36,1.36,0,0,0,1.56.93c.16,0,.32,0,.48,0h19.54A1.82,1.82,0,0,0,430.78,80.61Zm228.59.1a35.55,35.55,0,1,0-35.59-35.59A35.5,35.5,0,0,0,659.37,80.71ZM494.23,45.35V79.53c0,1.17,0,1.17,1.15,1.18h18.47c.44,0,.67-.17.64-.63,0-.28,0-.56,0-.84V60.67c0-1.08-.08-1,1-1,3.66,0,7.31,0,11,0a27,27,0,0,0,5.68-.49C539,57.77,544.8,54.64,549,49c5.6-7.44,6.67-15.61,2.47-24-4.94-9.81-13.42-14.56-24.26-14.87-8.58-.24-17.16,0-25.74,0-2.14,0-4.29,0-6.43,0-.59,0-.91.15-.84.8a7.63,7.63,0,0,1,0,.83Zm-140.31-25c-.17-.19-.24-.29-.33-.37a37,37,0,0,0-17.51-9.13c-.84-.17-.85-.18-.85-1.07,0-1.82,0-3.65,0-5.47,0-.85,0-.87-.84-.88h-4.52c-1,0-1,0-1,1,0,1.58,0,3.17,0,4.76,0,1.08,0,1-.94,1s-2,.13-3,.24c-1.13.13-1.13.15-1.13-1,0-1.75,0-3.49,0-5.24,0-.56-.16-.76-.74-.75-1.55,0-3.1,0-4.65,0-.88,0-.9,0-.9.93,0,2.3,0,4.6,0,6.9a1.15,1.15,0,0,1-.86,1.31,28.38,28.38,0,0,0-5,2.48q-15.34,9.56-17,27.57a35.27,35.27,0,0,0,21.76,35.67c1.21.51,1.08.23,1.09,1.62,0,2.23,0,4.45,0,6.67,0,1,0,1,1,1h4.29c1,0,1,0,1-1.06,0-1.67,0-3.34,0-5a1.5,1.5,0,0,1,.21-1.13,25.37,25.37,0,0,0,3.84.37c1,.06,1,.08,1,1,0,1.59,0,3.18,0,4.76,0,1,0,1,1.05,1h4.41c.88,0,.89,0,.89-.94,0-1.83,0-3.65,0-5.48,0-.6.1-1,.81-1a8.75,8.75,0,0,0,1.5-.33c7.89-1.94,14.19-6.35,19.38-12.48.19-.22.51-.4.45-.83l-9.78-8.11c-1.43-1.2-2.86-2.39-4.31-3.58-.63-.51-.65-.51-1.19.15a27.08,27.08,0,0,1-2.18,2.36,15,15,0,0,1-22.26-1.07,16.73,16.73,0,0,1,1.75-23.09,14.44,14.44,0,0,1,12.95-3.46,18.25,18.25,0,0,1,6.27,2.8c.89.59.9.59,1.67-.09Q344.11,29,348,25.58Zm66.85-10.17c.28.59.47,1,.68,1.43q10.91,21.89,21.83,43.76a4.4,4.4,0,0,1,.48,2q0,11.15,0,22.27c0,1.06,0,1.08,1,1.08h18.35c1,0,1,0,1.06-1V79q0-10.83,0-21.67a4,4,0,0,1,.46-1.93c1.9-3.75,3.76-7.52,5.65-11.28L486.6,11.55a2.4,2.4,0,0,0,.47-1.4H486c-6.79,0-13.58,0-20.37,0a1.58,1.58,0,0,0-1.69,1.08q-4.59,9.87-9.26,19.7A3.34,3.34,0,0,1,454,32a2.23,2.23,0,0,1-.62-1c-3.16-6.63-6.33-13.24-9.45-19.88a1.42,1.42,0,0,0-1.52-1c-4.21,0-8.42,0-12.63,0Zm171.09,0H563.5c-.32,0-.64,0-1,0s-.68.14-.65.61c0,.2,0,.4,0,.6V25.77a2.66,2.66,0,0,0,2.75,2.7h15.61c1.68,0,1.53-.24,1.53,1.51V79.05c0,.28,0,.56,0,.83,0,.82,0,.83.9.85h17.75c1.82,0,1.54.09,1.54-1.51q0-24.6,0-49.19c0-.31,0-.63,0-1s.2-.64.65-.61c.27,0,.55,0,.83,0h15.61a2.75,2.75,0,0,0,2.83-2.89V11.17c0-1,0-1-1-1H591.86Z"/><path class="cls-2" d="M159.43,44.65a2.94,2.94,0,0,0-.82,1.07q-9.12,15-18.22,30a3.68,3.68,0,0,1-4.82,1.42,2.41,2.41,0,0,1-1-1.11L122.75,56.61q-3.3-5.45-6.61-10.89a2.53,2.53,0,0,0-.83-1v44.8c0,1.74.2,1.52-1.52,1.52H92.94c-.28,0-.56,0-.84,0-.45,0-.65-.18-.63-.63,0-.28,0-.56,0-.84v-88c0-1.63-.18-1.48,1.46-1.48,6.67,0,13.34,0,20,0a3.42,3.42,0,0,1,3.3,1.84q10.1,16.92,20.25,33.8a4.33,4.33,0,0,0,.81,1.19c.35-.18.45-.53.63-.82Q148.19,19,158.44,2a3.56,3.56,0,0,1,3.47-2c6.63.07,13.27,0,19.9,0h.83c.47,0,.65.19.63.64,0,.28,0,.56,0,.83v88c0,1.66.17,1.46-1.46,1.46H160.72c-1.41,0-1.29.09-1.29-1.28V44.65Z"/><path class="cls-2" d="M253.55,44.56c.7.54,1.44,1.07,2.14,1.65a25.8,25.8,0,0,1,9,15.91,24.93,24.93,0,0,1-12.05,25.3A24.3,24.3,0,0,1,239.91,91H189.39c-.16,0-.32,0-.47,0-.44,0-.69-.12-.66-.6,0-.24,0-.48,0-.71V1c0-.89,0-.89,1-.92h.48c15.33,0,30.66-.09,46,0,10.7.08,23.2,6.91,25.51,21.77a24.67,24.67,0,0,1-7,21.82C254,44,253.64,44.12,253.55,44.56ZM221.66,71.75h0c2.66,0,5.32,0,8,0a9.17,9.17,0,0,0-.38-18.33c-5.32,0-10.64,0-15.95,0-1.05,0-1.06,0-1.06,1q0,8.16,0,16.31c0,1,0,1,1.08,1C216.1,71.76,218.88,71.75,221.66,71.75Zm-9.43-44.14c0,1.71,0,3.42,0,5.12,0,1.15,0,2.31,0,3.46,0,.49.17.75.69.71.2,0,.4,0,.6,0h14.53a12.39,12.39,0,0,0,2-.17,9.33,9.33,0,0,0,7.34-11.42,9.44,9.44,0,0,0-9.07-6.92c-5,0-10,0-15,0-1.07,0-1.08,0-1.08,1.14Q212.22,23.57,212.23,27.61Z"/><path class="cls-2" d="M0,91a2.08,2.08,0,0,1,.29-1.24Q16.64,45.55,33,1.37L33.12,1c.37-1,.37-1,1.44-1q9.66,0,19.31,0c1.08,0,1-.22,1.49,1.08q5.2,14.12,10.43,28.23L88,89.27C88.62,91,88.61,91,86.79,91H64.14c-1.39,0-1.15.24-1.68-1.15-1.31-3.45-2.58-6.91-3.87-10.37-.39-1-.39-1-1.52-1q-12.87,0-25.74,0c-1.06,0-1.07,0-1.44,1-1.34,3.56-2.68,7.12-4,10.7a1.15,1.15,0,0,1-1.28.9c-8,0-16,0-23.95,0ZM44.4,33.74h-.24q-3.54,11.67-7.07,23.35A142.32,142.32,0,0,0,51.33,57Z"/><path class="cls-1" d="M283.91,40.12a.89.89,0,0,1-.13.71A.85.85,0,0,1,283.91,40.12Z"/><path class="cls-1" d="M284,39.39l0,.23a.85.85,0,0,1-.06-.17S284,39.41,284,39.39Z"/><path class="cls-1" d="M283.74,41.53v.24a1.22,1.22,0,0,1-.07-.17S283.72,41.55,283.74,41.53Z"/><path class="cls-3" d="M283.73,49.16l0,.23a.83.83,0,0,1-.09-.16S283.7,49.18,283.73,49.16Z"/><path class="cls-4" d="M430.78,80.61a1.82,1.82,0,0,1-1,.12H410.19c-.16,0-.32,0-.48,0a1.36,1.36,0,0,1-1.56-.93c-.78-1.65-1.67-3.25-2.51-4.87-2.54-4.89-5.08-9.78-7.58-14.7a1.64,1.64,0,0,0-1.72-1c-3.42,0-6.84,0-10.25,0-1,0-1,0-1,1V79.41c0,1.22.28,1.33-1.26,1.33h-18c-1.8,0-1.46,0-1.46-1.48q0-33.82,0-67.65c0-1.62-.18-1.45,1.48-1.45,11.8,0,23.6-.18,35.39.07,7.82.16,14.37,3.42,18.72,10.09a21.22,21.22,0,0,1-3.43,27,9.85,9.85,0,0,1-1.34,1.17c-.61.41-.57.8-.26,1.39,2,3.72,3.9,7.45,5.84,11.18q4.78,9.18,9.56,18.37A2.75,2.75,0,0,1,430.78,80.61ZM391,26.72v0h-5c-.92,0-.93,0-.94.89V39.14c0,.87,0,.89.84.89,3.22,0,6.44,0,9.65,0a6.87,6.87,0,0,0,6.68-6.1A6.64,6.64,0,0,0,396,26.74C394.33,26.65,392.65,26.72,391,26.72Z"/><path class="cls-5" d="M659.37,80.71a35.55,35.55,0,1,1,35.75-35.17A35.62,35.62,0,0,1,659.37,80.71ZM675,45.48a14.66,14.66,0,1,0-14.7,14.62A14.58,14.58,0,0,0,675,45.48Z"/><path class="cls-5" d="M494.23,45.35V11.77a7.63,7.63,0,0,0,0-.83c-.07-.65.25-.8.84-.8,2.14,0,4.29,0,6.43,0,8.58,0,17.16-.19,25.74,0,10.84.31,19.32,5.06,24.26,14.87,4.2,8.34,3.13,16.51-2.47,24-4.22,5.62-10,8.75-16.85,10.13a27,27,0,0,1-5.68.49c-3.66,0-7.31,0-11,0-1.11,0-1,0-1,1V79.24c0,.28,0,.56,0,.84,0,.46-.2.64-.64.63H495.38c-1.15,0-1.15,0-1.15-1.18V45.35ZM514.78,34v5.71c0,1.12,0,1.13,1.07,1.13H526.2a6.59,6.59,0,0,0,1.65-.15,6.66,6.66,0,0,0,5-7.16c-.32-2.77-2.88-6.19-6.48-6.23s-7.14,0-10.71,0c-.83,0-.85,0-.85.87C514.77,30.13,514.78,32.07,514.78,34Z"/><path class="cls-4" d="M353.92,20.32l-6,5.26q-3.85,3.38-7.69,6.77c-.77.68-.78.68-1.67.09a18.25,18.25,0,0,0-6.27-2.8,14.44,14.44,0,0,0-12.95,3.46,16.73,16.73,0,0,0-1.75,23.09,15,15,0,0,0,22.26,1.07,27.08,27.08,0,0,0,2.18-2.36c.54-.66.56-.66,1.19-.15,1.45,1.19,2.88,2.38,4.31,3.58l9.78,8.11c.06.43-.26.61-.45.83-5.19,6.13-11.49,10.54-19.38,12.48a8.75,8.75,0,0,1-1.5.33c-.71,0-.81.41-.81,1,0,1.83,0,3.65,0,5.48,0,.92,0,.93-.89.94h-4.41c-1,0-1.05,0-1.05-1,0-1.58,0-3.17,0-4.76,0-1,0-1-1-1a25.37,25.37,0,0,1-3.84-.37,1.5,1.5,0,0,0-.21,1.13c0,1.66,0,3.33,0,5,0,1,0,1-1,1.06h-4.29c-1,0-1,0-1-1,0-2.22,0-4.44,0-6.67,0-1.39.12-1.11-1.09-1.62a35.27,35.27,0,0,1-21.76-35.67q1.67-18,17-27.57a28.38,28.38,0,0,1,5-2.48,1.15,1.15,0,0,0,.86-1.31c0-2.3,0-4.6,0-6.9,0-.91,0-.92.9-.93,1.55,0,3.1,0,4.65,0,.58,0,.75.19.74.75,0,1.75,0,3.49,0,5.24,0,1.18,0,1.16,1.13,1,1-.11,2-.2,3-.24s.94,0,.94-1c0-1.59,0-3.18,0-4.76,0-1,0-1,1-1h4.52c.82,0,.84,0,.84.88,0,1.82,0,3.65,0,5.47,0,.89,0,.9.85,1.07A37,37,0,0,1,353.59,20C353.68,20,353.75,20.13,353.92,20.32Z"/><path class="cls-4" d="M420.77,10.15h9c4.21,0,8.42,0,12.63,0a1.42,1.42,0,0,1,1.52,1c3.12,6.64,6.29,13.25,9.45,19.88a2.23,2.23,0,0,0,.62,1,3.34,3.34,0,0,0,.63-1.11q4.65-9.84,9.26-19.7a1.58,1.58,0,0,1,1.69-1.08c6.79,0,13.58,0,20.37,0h1.09a2.4,2.4,0,0,1-.47,1.4L470.28,44.09c-1.89,3.76-3.75,7.53-5.65,11.28a4,4,0,0,0-.46,1.93q0,10.83,0,21.67v.72c0,1,0,1-1.06,1H444.77c-1,0-1,0-1-1.08q0-11.13,0-22.27a4.4,4.4,0,0,0-.48-2q-10.92-21.87-21.83-43.76C421.24,11.17,421.05,10.74,420.77,10.15Z"/><path class="cls-3" d="M591.86,10.15h29.07c1,0,1,0,1,1V25.58a2.75,2.75,0,0,1-2.83,2.89H603.46c-.28,0-.56,0-.83,0-.45,0-.67.14-.65.61s0,.64,0,1q0,24.6,0,49.19c0,1.6.28,1.51-1.54,1.51H582.69c-.87,0-.87,0-.9-.85,0-.27,0-.55,0-.83V30c0-1.75.15-1.51-1.53-1.51H564.65a2.66,2.66,0,0,1-2.75-2.7V11.36c0-.2,0-.4,0-.6,0-.47.2-.63.65-.61s.63,0,1,0Z"/><path class="cls-6" d="M391,26.72c1.66,0,3.34-.07,5,0a6.64,6.64,0,0,1,6.22,7.18,6.87,6.87,0,0,1-6.68,6.1c-3.21.06-6.43,0-9.65,0-.81,0-.83,0-.84-.89V27.59c0-.88,0-.89.94-.89h5Z"/><path class="cls-6" d="M675,45.48A14.66,14.66,0,1,1,660.47,30.8,14.6,14.6,0,0,1,675,45.48Z"/><path class="cls-7" d="M514.78,34c0-1.94,0-3.88,0-5.83,0-.85,0-.87.85-.87,3.57,0,7.14,0,10.71,0s6.16,3.46,6.48,6.23a6.66,6.66,0,0,1-5,7.16,6.59,6.59,0,0,1-1.65.15H515.85c-1.06,0-1.06,0-1.07-1.13Z"/></g></g></svg>