<svg xmlns="http://www.w3.org/2000/svg" viewBox="0 0 624.12 93.83"><defs><style>.cls-1{fill:#85c555;}.cls-2{fill:#f4f4f4;}.cls-3{fill:#84c459;}.cls-4{fill:#83c458;}.cls-5{fill:#85c45a;}</style></defs><g id="Layer_2" data-name="Layer 2"><g id="Layer_11" data-name="Layer 11"><rect class="cls-1" x="27.58" y="2.9" width="14.01" height="14.01" transform="translate(17.14 -21.56) rotate(45)"/><rect class="cls-1" x="27.58" y="26.94" width="14.01" height="14.01" transform="translate(34.14 -14.52) rotate(45)"/><rect class="cls-1" x="2.9" y="26.94" width="14.01" height="14.01" transform="translate(26.91 2.94) rotate(45)"/><rect class="cls-1" x="52.79" y="2.9" width="14.01" height="14.01" transform="translate(24.52 -39.38) rotate(45)"/><rect class="cls-1" x="52.79" y="26.94" width="14.01" height="14.01" transform="translate(41.52 -32.34) rotate(45)"/><rect class="cls-1" x="77.59" y="26.94" width="14.01" height="14.01" transform="translate(48.78 -49.88) rotate(45)"/><rect class="cls-2" x="27.58" y="51.49" width="14.01" height="14.01" transform="translate(51.5 -7.32) rotate(45)"/><rect class="cls-2" x="27.58" y="76.91" width="14.01" height="14.01" transform="translate(69.47 0.12) rotate(45)"/><rect class="cls-2" x="2.9" y="51.49" width="14.01" height="14.01" transform="translate(44.27 10.13) rotate(45)"/><rect class="cls-1" x="52.79" y="51.49" width="14.01" height="14.01" transform="translate(58.88 -25.15) rotate(45)"/><rect class="cls-1" x="52.79" y="76.91" width="14.01" height="14.01" transform="translate(76.85 -17.71) rotate(45)"/><rect class="cls-1" x="77.59" y="51.49" width="14.01" height="14.01" transform="translate(66.14 -42.68) rotate(45)"/><rect class="cls-2" x="16.98" y="57.3" width="11.7" height="1.93"/><rect class="cls-2" x="28.74" y="70.92" width="11.7" height="1.93" transform="translate(106.48 37.3) rotate(90)"/><path class="cls-3" d="M530.1,43.92l0-.31a3.41,3.41,0,0,0,.24-1.23l.07-.45.77-2.45h0a4.87,4.87,0,0,0,.63-1.37l.16-.31a1.52,1.52,0,0,0,.45-.76h0a.6.6,0,0,0,.31-.47h0a.58.58,0,0,0,.32-.45h0a1,1,0,0,0,.47-.61h0l.15-.17.14-.16L534,35h0c.56-.56,1.12-1.12,1.69-1.67h0l.17-.15.15-.13,2.3-1.55h0a.31.31,0,0,0,.3-.16l.31-.14,3.21-1.11.3,0a9.5,9.5,0,0,0,1.84-.27l.93,0h.3l.92,0a24.16,24.16,0,0,1,4.59,1.1l.31.14a.32.32,0,0,0,.31.15l.31.15a.3.3,0,0,0,.3.16h0a4.39,4.39,0,0,0,1.23.77h0a.63.63,0,0,0,.46.31h0l.18.15h0a1.07,1.07,0,0,0,.61.47h0a3.9,3.9,0,0,0,1.24,1V30.74l.14,0c2.61.07,5.22.08,7.83,0,.49.13.3.54.3.83q0,10.83,0,21.68v7.73a19.09,19.09,0,0,0-.27,2.61l0,.46a23.3,23.3,0,0,1-2,6h0a2.31,2.31,0,0,0-.62.92h0a1.11,1.11,0,0,0-.47.61h0l-.16.16-.44.47a.86.86,0,0,0-.46.46l-.16.15-.17.15-.14.13a1.12,1.12,0,0,0-.61.48h0l-.17.15h0a.65.65,0,0,0-.46.31l-.29.19-.19.12-.27.17a8.73,8.73,0,0,0-1.75.89.08.08,0,0,0-.09,0l-3.68,1.07-.46,0a7.64,7.64,0,0,0-1.84.26l-.93,0h-2.91l-1.22,0a7.69,7.69,0,0,0-1.85-.24l-.6-.06L539,75.64l0,0h-.05a4.39,4.39,0,0,0-1.43-.6l-.31-.15a.29.29,0,0,0-.3-.15h0a2.81,2.81,0,0,0-1.07-.62h0a.59.59,0,0,0-.46-.3h0a1,1,0,0,0-.62-.46h0l-.17-.15h0a1.7,1.7,0,0,0-.76-.64l-.14-.13-.17-.17-.44-.45a1.75,1.75,0,0,0-.64-.76h0l-.14-.17h0a1.06,1.06,0,0,0-.46-.62h0a.6.6,0,0,0-.31-.47h0a1.45,1.45,0,0,0-.45-.76l-.16-.3a.34.34,0,0,0-.15-.31l-.16-.31c-.21-.55-.43-1.11-.64-1.67v-.16l7.5,0a2.87,2.87,0,0,1,2.45.67l.15.14a.61.61,0,0,0,.46.32h0a.58.58,0,0,0,.47.31h0a.9.9,0,0,0,.61.32h0a12.25,12.25,0,0,0,8,.76l.31,0a3.94,3.94,0,0,0,1.83-.58.32.32,0,0,0,.31-.15,1.2,1.2,0,0,0,.78-.43l.29-.19.17-.14h0A2.54,2.54,0,0,0,554.52,66h0a.56.56,0,0,0,.31-.46h0a.69.69,0,0,0,.31-.62h0a2.69,2.69,0,0,0,.43-1.53l0-.31a11.24,11.24,0,0,0,.25-3.25,2.88,2.88,0,0,0-.88.79l-.15.14a1,1,0,0,0-.6.48h0l-.19.15-.27.18-.17.13-.29.18-.18.12-.28.16a.83.83,0,0,0-.52.29.08.08,0,0,0-.09,0,4.68,4.68,0,0,0-1.29.58h0l0,0a7.57,7.57,0,0,0-1.69.47l-.31,0a11,11,0,0,0-2.14.28H545a21.1,21.1,0,0,1-5.81-1.41l-.31-.15a.32.32,0,0,0-.31-.15l-.3-.16a1.46,1.46,0,0,0-.77-.46h0a.58.58,0,0,0-.46-.31h0l-.17-.14h0a.58.58,0,0,0-.44-.33h0a1.61,1.61,0,0,0-.76-.63h0l-.16-.16L534,58.47a1.64,1.64,0,0,0-.63-.77h0a1.06,1.06,0,0,0-.45-.61l-.2-.29-.13-.17h0a1.45,1.45,0,0,0-.47-.77h0a.72.72,0,0,0-.29-.51.13.13,0,0,0,0-.1.89.89,0,0,0-.3-.61h0c-.35-1-.71-2-1.07-3.07l0-.3a25.72,25.72,0,0,1-.43-4.46C530,45.85,530.06,44.89,530.1,43.92Zm26.11,3c0-.28,0-.57,0-.85-.25-3.71-1.93-6.53-5.48-7.84s-7.17-.84-10,2.07a9.23,9.23,0,0,0-2.33,8.22,9,9,0,0,0,13.16,6.71C554.9,53.59,556.22,50.61,556.21,47Z"/><path class="cls-2" d="M137.55,63.82c1.36-3.57,2.67-7,4-10.51.84-2.16,1.77-4.28,2.56-6.45s1.54-4,2.33-6.07c.85-2.2,1.71-4.39,2.56-6.59.54-1.39,1.06-2.78,1.59-4.17q1.29-3.34,2.57-6.67c.44-1.16.84-2.32,1.28-3.47.19-.49.42-.86,1.12-.84,2.43.06,4.85,0,7.28,0a.82.82,0,0,1,.92.61q3.13,8.22,6.3,16.42,3.93,10.23,7.87,20.45c.87,2.24,1.69,4.5,2.57,6.74.19.48.11.56-.36.56-2.63,0-5.27,0-7.9,0-.39,0-.48-.15-.61-.47-1.06-2.78-2.18-5.55-3.2-8.34-.18-.48-.43-.39-.72-.39H155.6c-1.61,0-3.22,0-4.83,0-.57,0-.78.21-1,.7-1,2.67-2.08,5.33-3.12,8a.67.67,0,0,1-.7.53C143.2,63.81,140.42,63.82,137.55,63.82ZM153.3,46.2h11.85L159.24,31C157.23,36.13,155.28,41.14,153.3,46.2Z"/><path class="cls-2" d="M247.9,60.59a14,14,0,0,1-7.05,3.77,15,15,0,0,1-8.66-.81,16.82,16.82,0,0,1-7.81-7.16,15.44,15.44,0,0,1-2-6.66,22.19,22.19,0,0,1,.5-7.79,16.28,16.28,0,0,1,4.07-7.41,14.38,14.38,0,0,1,13.33-4.48,15.21,15.21,0,0,1,7.92,4.21c0-1,0-1.91,0-2.78,0-.56.09-.79.74-.78,2.35,0,4.7,0,7,0,.47,0,.6.1.6.58q0,16,0,31.94c0,.45-.09.61-.59.6q-3.6,0-7.2,0c-.49,0-.59-.17-.58-.62,0-.89,0-1.79,0-2.68C248,60.4,247.94,60.47,247.9,60.59ZM230.53,47.37a21.79,21.79,0,0,0,.22,2.2A9.12,9.12,0,0,0,238,56.92a8.78,8.78,0,0,0,9.36-4.64,11.15,11.15,0,0,0,1-7.07,8.93,8.93,0,0,0-13.67-6.31C231.74,40.83,230.56,43.75,230.53,47.37Z"/><path class="cls-3" d="M590.84,38.25l-.31-.16a.3.3,0,0,0-.31-.15l0,0h0a2.68,2.68,0,0,0-1.59-.4h-.32a4.59,4.59,0,0,0-2.9.59.34.34,0,0,0-.31.15.57.57,0,0,0-.47.3h0a.55.55,0,0,0-.45.33l-.17.14-.15.14a.63.63,0,0,0-.47.47l-.14.14-.15.18h0a.58.58,0,0,0-.32.45h0a.57.57,0,0,0-.3.46h0a7.34,7.34,0,0,0-1.31,3.55l-.06.91a1.44,1.44,0,0,0-.13.89c0,3.11,0,6.21,0,9.32,0,2.63,0,5.25,0,7.87,0,.51-.38.45-.7.45h-7.55c0-.31,0-.61,0-.92q0-22,0-44.11c0-.3,0-.61,0-.91,2.45,0,4.9,0,7.35,0,.3,0,.62-.09.88.13V34l1.08-.94h0l.17-.14h0a5.07,5.07,0,0,0,1.37-.92l.3-.18a.56.56,0,0,0,.48-.28h0a.3.3,0,0,0,.3-.15l.31-.16,2.91-1.08.31,0a5.71,5.71,0,0,0,1.53-.26h2.15a8.67,8.67,0,0,0,1.68.28l.3,0a4.28,4.28,0,0,0,1.39.45.07.07,0,0,0,.08,0,9.65,9.65,0,0,0,1.75.9h0a.64.64,0,0,0,.47.31h0a1,1,0,0,0,.62.46h0l.17.14.16.15a1.53,1.53,0,0,0,.62.59l.46.48.14.16h0l.14.17h0a1.28,1.28,0,0,0,.45.65.11.11,0,0,0,.05.1l.12.18.16.28a.3.3,0,0,0,.15.31l.15.3.77,2.3,0,.31a6.41,6.41,0,0,0,.27,1.68l0,.77c0,.15,0,.31,0,.46q0,7.09,0,14.2l0,8.17c-.27.23-.59.13-.88.13h-7.25c0-.41-.07-.81-.07-1.22q0-7.29,0-14.58c0-.3.1-.62-.1-.89l0-2a8.47,8.47,0,0,0-.28-2.6l0-.31a3.62,3.62,0,0,0-.57-1.83l-.15-.31a.57.57,0,0,0-.3-.48h0a.52.52,0,0,0-.33-.44.92.92,0,0,0-.45-.46l-.17-.15h0A.52.52,0,0,0,590.84,38.25Z"/><path class="cls-2" d="M186.38,47.27c0-5.26,0-10.52,0-15.77,0-.64.17-.81.8-.8,2.3,0,4.6,0,6.89,0,.55,0,.7.17.67.69s0,1.33,0,2c0,.14-.07.33.1.41s.26-.08.38-.18a14.93,14.93,0,0,1,7-3.57c4.88-.91,10.28,1.24,12.4,5.77a14.76,14.76,0,0,1,1.18,6.26c0,7,0,14,0,21.06,0,.6-.19.71-.74.7q-3.4,0-6.82,0c-.6,0-.76-.15-.75-.76q0-8.39,0-16.77a22.88,22.88,0,0,0-.43-4.53,5.38,5.38,0,0,0-4.35-4.19c-3.17-.58-6,1.84-7,4.36a13.59,13.59,0,0,0-.9,5q0,8.07,0,16.15c0,.65-.18.8-.8.79-2.25,0-4.5,0-6.74,0-.74,0-.82-.24-.82-.87C186.39,57.74,186.38,52.51,186.38,47.27Z"/><path class="cls-3" d="M463.29,38.86l-.15.14a1,1,0,0,0-.64.62l-.13.14-.15.18h0a.56.56,0,0,0-.32.45h0a.58.58,0,0,0-.31.46h0a.56.56,0,0,0-.28.48.08.08,0,0,0,0,.09,2.73,2.73,0,0,0-.58,1.44.1.1,0,0,0,0,.1,3.06,3.06,0,0,0-.4,1.59l0,.61a.86.86,0,0,0-.14.58c-.05,1.37-.13,2.74-.14,4.11,0,4.35,0,8.71,0,13.06,0,.32.09.67-.18,1-2.42,0-4.85,0-7.27,0-.69,0-.85-.19-.85-.86q0-15.58,0-31.18c0-.3,0-.61,0-.91l.09-.15.22,0c2.61.08,5.22.07,7.83,0l.17,0V34a1.81,1.81,0,0,0,.88-.63h0l.16-.13.16-.13a.64.64,0,0,0,.45-.33h0l.19-.14.27-.18.17-.14h0a3.93,3.93,0,0,0,1.23-.77h0a3.22,3.22,0,0,0,1.13-.59.08.08,0,0,0,.09,0,1.17,1.17,0,0,0,.66-.29.1.1,0,0,0,.1,0l3.38-.76h2a6.48,6.48,0,0,0,1.69.27l.3,0,2.14.77.31.15a.34.34,0,0,0,.3.17h0a1.42,1.42,0,0,0,.76.47h0a1.12,1.12,0,0,0,.62.45h0a1.82,1.82,0,0,0,.77.63l.14.14.17.16.44.45.17.16h0a.59.59,0,0,0,.33.44l.13.16a.68.68,0,0,0,.32.47h0c.31.63.61,1.25.91,1.88a.15.15,0,0,0,0,.11,6.16,6.16,0,0,0,.46,1.68l0,.31a11.2,11.2,0,0,0,.27,2q0,11,0,22.06c0,1.2.12,1.06-1.07,1.06l-7,0-.15-.13,0-.34V47.76c0-.26,0-.51,0-.77a16.68,16.68,0,0,0-.26-4l0-.46a3,3,0,0,0-.4-1.59.08.08,0,0,0,0-.09,1.24,1.24,0,0,0-.43-.93l-.18-.3a2.46,2.46,0,0,0-1.22-1.24h0l-.17-.13a.12.12,0,0,0-.1,0,4.1,4.1,0,0,0-3-.71h-.31a3.73,3.73,0,0,0-2.15.58l-.3.15a.58.58,0,0,0-.48.29h0A.56.56,0,0,0,463.29,38.86Z"/><path class="cls-2" d="M276.14,30.83a.89.89,0,0,1,.64-.11h7.28a.71.71,0,0,1,.8.47c2,4.85,4,9.69,6,14.53.69,1.67,1.38,3.33,2.08,5,.07.15.09.41.3.38s.23-.24.3-.41c1.33-3,2.67-6,4-8.94,1.19-2.6,2.41-5.19,3.6-7.8.42-.89.8-1.81,1.2-2.71.14-.3.3-.53.71-.52,2.68,0,5.36,0,8.15,0-.52,1.14-1,2.23-1.5,3.31-2.45,5.33-4.92,10.66-7.36,16q-4.71,10.24-9.4,20.51c-.74,1.62-1.5,3.23-2.21,4.86a.78.78,0,0,1-.83.55c-2.66,0-5.31,0-8.08,0L284,71.26c1.44-3.07,2.87-6.15,4.32-9.21a1.59,1.59,0,0,0,0-1.47c-1.27-3-2.45-6-3.68-9-1.11-2.71-2.26-5.4-3.38-8.11-1.29-3.15-2.55-6.3-3.83-9.45Z"/><path class="cls-2" d="M366.18,64.63a19,19,0,0,1-9.58-2.18,16.73,16.73,0,0,1-6.2-6A16.94,16.94,0,0,1,348,49.61a17.47,17.47,0,0,1,1.26-9.22,16.29,16.29,0,0,1,3.42-5,17.52,17.52,0,0,1,9.9-5.13c5.24-.9,10.26-.28,14.81,2.7a15.83,15.83,0,0,1,4.26,4.1c.21.3.26.43-.1.62-2.07,1.12-4.14,2.25-6.19,3.4-.29.16-.43.07-.66-.1a19.94,19.94,0,0,0-3.18-2.27,12.28,12.28,0,0,0-7.39-.82,9.16,9.16,0,0,0-5,2.56,9.66,9.66,0,0,0-2.82,7.87,9,9,0,0,0,7.1,8.43c4.16.86,7.92.19,11-3a.82.82,0,0,1,1.26-.09l5.48,3.77c.35.23.38.38.09.73a16.81,16.81,0,0,1-8.68,5.71A22.51,22.51,0,0,1,366.18,64.63Z"/><path class="cls-2" d="M397.55,64.64a12.71,12.71,0,0,1-7.72-2.52,13.07,13.07,0,0,1-2.91-2.84.34.34,0,0,1,0-.52c1.19-1.3,2.3-2.68,3.59-3.9a8.13,8.13,0,0,0,.92-1.1c.28-.38.49-.37.82,0a11.13,11.13,0,0,0,4.6,3.09,4.33,4.33,0,0,0,4.92-.84,1.94,1.94,0,0,0,0-2.84,10.77,10.77,0,0,0-4-2.68,29.7,29.7,0,0,1-5.63-3.31,9.82,9.82,0,0,1-4.08-6.29,8.85,8.85,0,0,1,2.28-7.64c2.51-2.7,5.62-3.52,9.09-3.37a13.35,13.35,0,0,1,9.81,4.88c.31.36.45.62,0,1-1.47,1.39-2.88,2.83-4.29,4.27-.3.31-.48.38-.87.06a10.56,10.56,0,0,0-4.29-2.58,3.92,3.92,0,0,0-3.13.42,1.75,1.75,0,0,0,0,2.92A36.94,36.94,0,0,0,402,43.76a26.35,26.35,0,0,1,4.8,3,9.31,9.31,0,0,1,3.48,7,9.54,9.54,0,0,1-3.06,7.79,11.09,11.09,0,0,1-6.41,2.91A31.35,31.35,0,0,1,397.55,64.64Z"/><path class="cls-3" d="M499.17,57.11l.31,0a2.77,2.77,0,0,0,2.31-1.5h0a1.88,1.88,0,0,0-.31-2.46h0l-.15-.17a1.67,1.67,0,0,0-.61-.6,3.16,3.16,0,0,0-1.37-.94h0A8.85,8.85,0,0,0,497,50.21a.08.08,0,0,0-.09,0A13.1,13.1,0,0,0,494.58,49h0l-2.76-1.84h0a2.22,2.22,0,0,0-.92-.77h0l-.17-.16-.44-.45a2.56,2.56,0,0,0-.78-.92h0a1,1,0,0,0-.45-.62h0L488,42a.08.08,0,0,0,0-.09,10.56,10.56,0,0,1,.32-6.12l.14-.31a.33.33,0,0,0,.16-.31l.17-.3a2.37,2.37,0,0,0,.6-.92h0l.14-.17h0l1.69-1.69h0l.16-.14h0a.61.61,0,0,0,.45-.33h0l1.91-1a.05.05,0,0,0,.08,0,6.3,6.3,0,0,0,1.53-.47l.31,0a8.76,8.76,0,0,0,1.69-.27h2.15a23.53,23.53,0,0,1,4.43,1.1l.31.13a.31.31,0,0,0,.31.16l.31.15a.32.32,0,0,0,.29.17h0a.59.59,0,0,0,.48.29l.29.18a4.32,4.32,0,0,0,1.07.78l.32.27a7.16,7.16,0,0,0,1.24,1.22h0l.14.16.28.32a.63.63,0,0,0,.34.44l0,.29-.16.17a4.36,4.36,0,0,0-.91.91l-.16.16h0l-.16.16h0l-.16.16h0l-.16.16h0l-.16.15h0l-.16.16h0l-.16.16A9.85,9.85,0,0,0,505.75,39l-.16.16h0l-.16.16h0l-.17.16h0l-.16.16h0l-.16.16h0l-.17.16-.14.14-.17.17-.14.13c-.52.08-.63-.54-1.05-.61l-.15-.14a1.49,1.49,0,0,0-.78-.61h0l-.17-.13L502,38.7a4.81,4.81,0,0,0-2.48-1.17l-.45-.05a1.37,1.37,0,0,0-1.23,0l-.31,0a1.81,1.81,0,0,0-1.39.72h0l-.15.17h0a1.63,1.63,0,0,0,.6,2.62h0a.58.58,0,0,0,.47.31l.3.17c1.82,1.11,3.76,2,5.67,2.9l.29.15a1.42,1.42,0,0,0,.78.46h0a.59.59,0,0,0,.47.3h0a.59.59,0,0,0,.46.3h0a.56.56,0,0,0,.46.31h0a1,1,0,0,0,.62.46h0a1.67,1.67,0,0,0,.76.63h0l.17.16.6.6.16.17h0a1.1,1.1,0,0,0,.47.61h0a.59.59,0,0,0,.31.45h0a.64.64,0,0,0,.3.48h0a.32.32,0,0,0,.16.3l.15.31a3.37,3.37,0,0,0,.47,1.22l.05.3a4.37,4.37,0,0,0,.27,1.23l.05.76c0,.61,0,1.23,0,1.84l0,.47a15.55,15.55,0,0,1-1.4,3.81h0a.66.66,0,0,0-.32.46l-.12.17a1.67,1.67,0,0,0-.64.75l-.6.61a1.8,1.8,0,0,0-.76.63l-.16.12a.68.68,0,0,0-.46.33h0a3,3,0,0,0-1.07.61h0A32.91,32.91,0,0,1,501,64.46l-.31,0a26.67,26.67,0,0,1-5.36,0l-.31,0a2.55,2.55,0,0,0-1.08-.28l-.3,0c-.12-.16-.29-.15-.46-.15l0,0h0a5.15,5.15,0,0,0-1.44-.59l-.31-.15a.3.3,0,0,0-.3-.16l-.31-.16a1.41,1.41,0,0,0-.76-.47h0a1.11,1.11,0,0,0-.63-.45h0a1.09,1.09,0,0,0-.61-.48l-.15-.13-.16-.15h0a5.76,5.76,0,0,0-1.08-1.07h0l-.15-.16h0l-.15-.16-.13-.15a1.29,1.29,0,0,0-.47-.63.49.49,0,0,0,0-.12,2.06,2.06,0,0,0,.63-.77l.14-.14a7.78,7.78,0,0,0,1.55-1.69,1.05,1.05,0,0,0,.44-.47l.15-.16h0a3.83,3.83,0,0,0,1.09-1.21h0l.17-.16.28-.3a2,2,0,0,0,.62-.61h.13l.16.16h0l.16.17a3.42,3.42,0,0,0,.92.9l.16.14h0a.54.54,0,0,0,.43.34h0a3.16,3.16,0,0,0,1.39.91l.31.16a.29.29,0,0,0,.3.16l.31.14a3.43,3.43,0,0,0,1.7.58l.3,0A1.66,1.66,0,0,0,499.17,57.11Z"/><path class="cls-2" d="M316.93,50.82c0-4.08,0-8.16,0-12.25,0-.58-.14-.74-.71-.71-1,0-2,0-3,0-.44,0-.57-.14-.56-.57q0-3,0-6.05c0-.44.14-.56.56-.55,1,0,2.05,0,3.07,0,.51,0,.63-.15.63-.65,0-3.62,0-7.25,0-10.87,0-.63.2-.75.77-.74,2.3,0,4.6,0,6.9,0,.6,0,.7.18.7.73,0,3.6,0,7.2,0,10.8,0,.55.12.76.71.73,1.2-.05,2.4,0,3.6,0,.56,0,.68.17.67.69,0,1.92,0,3.83,0,5.75,0,.65-.22.76-.79.74-1.12,0-2.25,0-3.37,0-.72,0-.82.23-.82.87q0,12.06,0,24.12c0,1,0,1-1,1-2.2,0-4.4,0-6.59,0-.6,0-.77-.14-.77-.75C316.94,59,316.93,54.91,316.93,50.82Z"/><path class="cls-4" d="M624.1,30.74c0,2.15,0,4.29,0,6.43,0,.51-.16.67-.66.66-.91,0-1.83,0-2.75,0-1.51,0-1.51,0-1.51,1.47q0,11.6,0,23.19c0,1.44.2,1.26-1.24,1.27-2.35,0-4.7,0-7.05,0l0,0c0-.81,0-1.63,0-2.45,0-7.53,0-15.06,0-22.59,0-.67-.17-.89-.85-.86-1.15.05-2.3,0-3.45,0h0c0-2.35,0-4.69,0-7l.44-.06c1,0,2,0,3,.06.72.06.88-.21.88-.89,0-3.79,0-7.58,0-11.37l.6,0H619l.13,0c0,.53,0,1.06,0,1.6V30c0,.34-.1.75.48.73,1.38,0,2.75,0,4.12,0Z"/><path class="cls-2" d="M263.94,40.86c0-7.41,0-14.81,0-22.22,0-.59.13-.77.74-.76,2.33,0,4.65,0,7,0,.55,0,.66.16.66.69q0,22.29,0,44.58c0,.53-.12.69-.67.68-2.27,0-4.54,0-6.82,0-.73,0-.91-.11-.91-.92C264,55.57,263.94,48.21,263.94,40.86Z"/><path class="cls-5" d="M434.6,19.09l.18-.05q3.92.12,7.83,0c.23,0,.46.08.44.41s0,.46,0,.69V62.81c0,1,0,1-1,1h-7.35c0-.23-.06-.45-.06-.68Z"/><path class="cls-2" d="M342.05,47.29c0,5.26,0,10.53,0,15.79,0,.59-.13.77-.75.75q-3.45,0-6.89,0c-.55,0-.75-.09-.75-.7q0-15.85,0-31.72c0-.58.16-.72.73-.71,2.3,0,4.6.05,6.9,0,.68,0,.76.22.76.81C342,36.77,342.05,42,342.05,47.29Z"/><path class="cls-4" d="M523.4,30.69l.44.06q0,16.16,0,32.31c0,.3,0,.62-.31.79h-7.66l-.33-.12v0c0-.28,0-.56,0-.84q0-16.05,0-32.11l.45-.06Q519.71,30.81,523.4,30.69Z"/><path class="cls-2" d="M337.74,27.83c-2.82.25-5.22-2.57-5.21-5.51A5.27,5.27,0,0,1,338,17.08a5.47,5.47,0,0,1,5.2,5.5A5.3,5.3,0,0,1,337.74,27.83Z"/><path class="cls-5" d="M517.29,17.58a.19.19,0,0,0,.12,0,5.78,5.78,0,0,1,5.65.66h0l.17.16.59.61a3,3,0,0,0,.63.91h0l.48,1.22,0,.3a6.61,6.61,0,0,1-.67,4h0a.64.64,0,0,0-.32.45h0l-.15.17-.61.62-.16.14h0a1.09,1.09,0,0,0-.62.46h0a1,1,0,0,0-.62.31h0a6.74,6.74,0,0,1-4.12,0,.1.1,0,0,0-.1,0,1.81,1.81,0,0,0-.81-.45h0l-1.39-1.37-.13-.16-.79-1.83,0-.3v-2l0-.3.47-1.22.17-.3a1.17,1.17,0,0,0,.45-.62l.14-.15.15-.16.31-.29.16-.16h0A3,3,0,0,0,517.29,17.58Z"/><path class="cls-2" d="M247.9,60.59c0-.12.11-.19.22-.06Z"/></g></g></svg>