<svg xmlns="http://www.w3.org/2000/svg" viewBox="0 0 1147.65 182.35"><defs><style>.cls-1{fill:#f4f4f4;}</style></defs><g id="Layer_2" data-name="Layer 2"><g id="Layer_10" data-name="Layer 10"><path class="cls-1" d="M397.42,57c.44.19.61-.14.8-.33,5.85-5.89,13-9.25,21-10.93A47.77,47.77,0,0,1,445.08,47c13.59,4.72,21.54,14.47,24.41,28.48a65.22,65.22,0,0,1,1.26,13q0,27.42,0,54.85c0,.46,0,.91,0,1.37a.76.76,0,0,1-.84.85h-25.7c-2.44,0-2.16.1-2.16-2.29q0-25.12,0-50.25a35.07,35.07,0,0,0-1.44-10.87,17.13,17.13,0,0,0-15.69-12.38c-4.47-.32-8.87-.06-13,1.79-7.08,3.12-11,8.7-12.6,16.11a46.76,46.76,0,0,0-.88,9.81q0,22.6,0,45.2a10.58,10.58,0,0,0,0,1.38c.17,1.23-.38,1.52-1.55,1.52q-12.74-.06-25.47,0c-1.16,0-1.73-.28-1.55-1.52a10.58,10.58,0,0,0,0-1.38V48.39c0-2.27-.33-2.24,2.21-2.23h23.18c1.88,0,1.9,0,1.91,1.85,0,2.53,0,5.05,0,7.57C397.16,56.08,397,56.64,397.42,57Z"/><path class="cls-1" d="M249.13,94.87V11.81c0-.38,0-.76,0-1.14,0-2.41-.14-2.24,2.22-2.24h45.2c.31,0,.62,0,.92,0,1-.11,1.38.27,1.35,1.28-.06,1.84,0,3.67,0,5.51,0,4.51,0,9,0,13.53,0,2.38.3,2.27-2.18,2.27H280.56c-.45,0-.92,0-1.37,0-1-.09-1.63.23-1.49,1.39a8.81,8.81,0,0,1,0,1.15q0,61.36,0,122.74c0,2.86-.38,2.57,2.55,2.58,5.66,0,11.32,0,17,0,1.15,0,1.6.27,1.59,1.51-.06,6.5-.05,13,0,19.5,0,1.16-.26,1.61-1.51,1.57-2.67-.09-5.35,0-8,0H251.66c-.54,0-1.07,0-1.61,0-.69,0-1-.3-.92-1s0-1.23,0-1.84Z"/><path class="cls-1" d="M535.69,95.21q0,41.88,0,83.75c0,2.82.38,2.44-2.4,2.45H487.63c-1,0-1.39-.51-1.43-1.41,0-.53,0-1.07,0-1.61q0-8.25,0-16.52c0-3,0-3,3.09-3H504.2c2.91,0,2.92,0,2.92-2.92V51.34c0-5.81,0-11.62,0-17.44,0-2.87,0-2.87-3-2.88-5.12,0-10.24,0-15.37,0-2.46,0-2.58-.12-2.58-2.6q0-8.72,0-17.43c0-2.43.14-2.56,2.64-2.56h44.28c.38,0,.76,0,1.14,0,.89.06,1.44.46,1.43,1.42,0,.69,0,1.38,0,2.07Z"/><path class="cls-1" d="M12.32,127.32v2.17c0,4.82,0,9.64,0,14.46,0,1.59,0,1.61-1.65,1.62-3,0-6,0-8.95,0-1.65,0-1.66,0-1.69-1.59,0-.46,0-.92,0-1.38Q0,77,0,11.34C0,8-.44,8.46,3,8.43q4.13,0,8.26,0c1.58,0,1.61,0,1.62,1.68,0,2.83,0,5.66,0,8.49V66c.72,0,.84-.37,1-.65C21.06,55.18,31,49.57,43.19,48.07c12.61-1.54,24.36,1,34.86,8.32A44.15,44.15,0,0,1,96,83.24c3,12.57,2.36,25-3.27,36.73-7.3,15.25-19.66,23.79-36.33,26.08A47.42,47.42,0,0,1,31,142.89,39.13,39.13,0,0,1,14,129c-.4-.56-.81-1.11-1.22-1.66C12.74,127.3,12.63,127.32,12.32,127.32ZM84.53,97.1a40.11,40.11,0,0,0-1.07-10.24c-2.61-10.44-8.15-18.69-17.91-23.74a36.56,36.56,0,0,0-23.4-3.45C30.79,61.58,22.06,67.51,17,77.91c-6.06,12.47-6,25.33-.16,37.87a31.69,31.69,0,0,0,20.68,17.56,39,39,0,0,0,20,.56,32.75,32.75,0,0,0,22.35-17.17A40,40,0,0,0,84.53,97.1Z"/><path class="cls-1" d="M876.13,66.79a1,1,0,0,0,.89-.59c7.14-10.6,17.14-16.54,29.74-18.11a49.66,49.66,0,0,1,30.61,5.5,43.21,43.21,0,0,1,20.48,23.49c5.23,14.06,5.19,28.25-.87,42-7,15.82-19.46,24.68-36.57,27A51.16,51.16,0,0,1,900,144.75a39.12,39.12,0,0,1-21.18-14.45l-1.7-2.28c-.72.71-.39,1.5-.39,2.18q0,24.2,0,48.4c0,.53,0,1.07,0,1.6.06.85-.2,1.24-1.14,1.23-3.59,0-7.19,0-10.78,0-.78,0-1.14-.25-1.07-1,0-.46,0-.92,0-1.38V51c0-.3,0-.61,0-.92,0-1.71,0-1.73,1.78-1.74h8.72c1.92,0,1.93,0,1.93,2.06C876.14,55.82,876.13,61.25,876.13,66.79Zm72.25,30.15a44.56,44.56,0,0,0-.65-8c-2-9.92-6.67-18.17-15.17-23.93a34.77,34.77,0,0,0-21.75-5.84c-14.57.73-25.15,7.68-31,21-4.92,11.32-4.68,23,.23,34.31a32.13,32.13,0,0,0,21.46,18.88,39,39,0,0,0,16.81,1.06c10.57-1.65,18.83-6.83,24.39-16.09A40,40,0,0,0,948.38,96.94Z"/><path class="cls-1" d="M127.59,101.27a19.56,19.56,0,0,0,.77,5.83c3.56,14.83,13.07,23.63,27.78,26.87a43.83,43.83,0,0,0,21.34-.71,35.88,35.88,0,0,0,16.13-9.66c.38-.38.75-.76,1.14-1.13,0,0,.14,0,.45-.07l7.08,8.2a40,40,0,0,1-14.73,11.24c-9.21,4.24-18.9,5.3-28.89,4.36a48.83,48.83,0,0,1-14-3.24c-16.7-6.8-26.41-19.29-29.45-36.9a52.2,52.2,0,0,1,3.61-31c7-15.38,18.87-24.52,35.65-26.89,11.74-1.66,22.87.24,32.92,6.87C197.78,61.91,204,71.71,206.9,83.69a54.08,54.08,0,0,1,1.38,15.48c-.09,1.84-.09,1.86-1.95,1.86q-14,0-28,0H129.91A4.69,4.69,0,0,0,127.59,101.27Zm34.13-10H194.3c1.62,0,1.6,0,1.45-1.47-1.91-17.25-15.16-29.93-31.4-30.83-10.82-.6-20.22,2.48-27.75,10.49-5.38,5.73-8,12.7-9,20.39-.15,1.13.22,1.57,1.35,1.43a12.52,12.52,0,0,1,1.37,0Z"/><path class="cls-1" d="M1049.36,97.64c.1-13.7,3.93-25.21,12.74-34.78a46.22,46.22,0,0,1,28.57-14.66c9.32-1.27,18.49-.58,27.26,3,15.75,6.44,25.1,18.35,28.5,34.81,2.44,11.84,1.34,23.49-4.22,34.39-7.66,15-20,23.53-36.7,25.66-10.15,1.3-20,.17-29.28-4.39-13.83-6.84-22.22-18-25.67-33A57.13,57.13,0,0,1,1049.36,97.64Zm84.93-1.86a43,43,0,0,0-1.14-9.36c-2.53-10.32-8.13-18.33-17.69-23.33a35.29,35.29,0,0,0-19.3-3.87c-14.39,1.05-24.93,7.94-30.46,21.4a42.19,42.19,0,0,0,.64,34.32,32.09,32.09,0,0,0,20.19,18.13,39.43,39.43,0,0,0,17,1.5c9.3-1.16,17-5.17,22.83-12.61S1134.28,106.23,1134.29,95.78Z"/><path class="cls-1" d="M747.51,163.77l1.78,1.54A23.52,23.52,0,0,0,769,170.73a17.15,17.15,0,0,0,10.67-6.61,42.21,42.21,0,0,0,5.58-9.45c1.14-2.5,2.14-5.07,3.39-7.51a3.75,3.75,0,0,0-.05-3.62q-20.64-46.33-41.21-92.7a6.7,6.7,0,0,1-.85-2.51c4.21,0,8.32,0,12.43,0,1.18,0,1.28.92,1.59,1.64q3.68,8.26,7.3,16.55,13.65,31,27.29,62.08c.27.63.58,1.24.9,1.92.85-.5,1-1.39,1.27-2.11q17.18-39,34.28-78c.69-1.55,1.47-2.17,3.19-2.09,3.41.14,6.83,0,10.21,0a3.63,3.63,0,0,1-.64,2.35q-23.79,53.73-47.61,107.44a61,61,0,0,1-7.05,12.3c-5.94,7.86-13.88,11.7-23.68,11.91a37.31,37.31,0,0,1-15.66-2.83,28.43,28.43,0,0,1-7.87-5.07c-.64-.56-.94-1.05-.37-1.92C743.89,169.69,745.62,166.81,747.51,163.77Z"/><path class="cls-1" d="M343.27,96v46.78a12.71,12.71,0,0,0,0,1.38c.13,1.08-.27,1.47-1.4,1.45-3.59-.06-7.18,0-10.78,0-5,0-9.93,0-14.9,0-1.22,0-1.68-.36-1.53-1.55a8.66,8.66,0,0,0,0-1.14v-94c0-3.05-.38-2.71,2.65-2.72h25c.66,0,1,.29.95,1s0,1.22,0,1.84Z"/><path class="cls-1" d="M652.66,120.68l9.64,6.6a36.6,36.6,0,0,1-9.27,10.5,41.45,41.45,0,0,1-19.49,8c-10.17,1.55-20.18.83-29.71-3.22-15.19-6.46-24.4-18-27.8-34.07-2.39-11.26-1.64-22.41,3.2-33,6.78-14.81,18.38-23.72,34.31-26.85A52.42,52.42,0,0,1,642,50.57c8,2.91,14.62,7.59,19.34,14.76.3.45.56.91,1,1.55-3.05,2.08-6.06,4.13-9.07,6.2a.64.64,0,0,1-1-.08c-.25-.29-.44-.62-.67-.93-6.22-8.24-14.68-12.18-24.8-12.86a37.1,37.1,0,0,0-16.42,2.44C600.09,65.77,593.17,73.13,590,83.74a43.86,43.86,0,0,0,.76,28.81c4.43,11.68,13,18.82,25.2,21.45a38.48,38.48,0,0,0,21.46-1.33,29.67,29.67,0,0,0,13.87-10.13Z"/><path class="cls-1" d="M1034.3,130.43c1.37,2.83,2.7,5.64,4.11,8.41.45.88-.05,1.25-.6,1.69a23.26,23.26,0,0,1-6.55,3.72,36.41,36.41,0,0,1-25.16.26c-8.61-3-13.37-9.56-15.18-18.35a44.24,44.24,0,0,1-.77-9.12q0-27.54,0-55.07c0-2.76.3-2.47-2.43-2.48-4.36,0-8.72,0-13.08,0-1.63,0-1.66,0-1.67-1.62,0-2.68,0-5.35,0-8,0-1.24.43-1.54,1.59-1.53,4.59.06,9.18,0,13.77,0,1.83,0,1.85,0,1.85-1.86,0-5.82,0-11.63,0-17.44,0-1.87,0-1.88,1.88-1.89h9.18c2,0,2,0,2,2q0,8.15,0,16.3a12.52,12.52,0,0,1,0,1.37c-.12,1.12.18,1.74,1.47,1.58a23.53,23.53,0,0,1,2.52,0h23.18c2.4,0,2.19-.1,2.19,2.27s-.06,4.9,0,7.34c0,1.22-.39,1.58-1.57,1.57-4.89,0-9.79,0-14.68,0-3.9,0-7.8,0-11.7,0-1.06,0-1.49.23-1.46,1.4.08,3.06,0,6.12,0,9.18q0,23.4,0,46.81a28.74,28.74,0,0,0,.88,7.72c1.67,6.07,5.76,9.4,11.82,10.33a22.69,22.69,0,0,0,17.6-4.1A6.09,6.09,0,0,1,1034.3,130.43Z"/><path class="cls-1" d="M700.56,66.33c.56-.09.65-.58.85-1,5.08-9.29,13.1-14.47,23.27-16.61a53.42,53.42,0,0,1,10.48-1.1c1.11,0,1.45.34,1.42,1.44-.06,3.29-.07,6.58,0,9.87,0,1.18-.41,1.38-1.48,1.32a34.55,34.55,0,0,0-15.92,2.56c-8.69,3.73-13.87,10.5-16.48,19.4a52.5,52.5,0,0,0-1.81,15q0,23,0,45.89c0,2.84.34,2.43-2.4,2.45-3.06,0-6.12,0-9.18,0-1.13,0-1.52-.37-1.39-1.45a12.69,12.69,0,0,0,0-1.38V51.23c0-.38,0-.77,0-1.15,0-1.72,0-1.74,1.77-1.75q4.49,0,8.95,0c1.7,0,1.72,0,1.72,1.8,0,4.89,0,9.79,0,14.68C700.39,65.32,700.21,65.86,700.56,66.33Z"/><path class="cls-1" d="M329.11,32.26a18.12,18.12,0,0,1-10-2.36c-5.37-3.2-8.16-7.94-8-14.23a14.76,14.76,0,0,1,8.57-13.4,20.26,20.26,0,0,1,18.37-.14,14.67,14.67,0,0,1,8.62,14.45c-.44,7-4.5,12.49-10.93,14.68A19.51,19.51,0,0,1,329.11,32.26Z"/></g></g></svg>