<svg xmlns="http://www.w3.org/2000/svg" viewBox="0 0 605.83 85.59"><defs><style>.cls-1{fill:#f4f4f4;}</style></defs><g id="Layer_2" data-name="Layer 2"><g id="Layer_1-2" data-name="Layer 1"><path class="cls-1" d="M59.53,85.59H8.38c0-.52,0-1,0-1.56V12.77c0-.32,0-.65,0-1a2.38,2.38,0,0,0-.59-1.7Q4.09,5.38.38.61L.4,0H39.69c.22.36.59.36.94.36H52.16c.36,0,.73,0,1-.36h1.36c.26.45.72.37,1.12.41a32,32,0,0,1,7.06,1.32A21.11,21.11,0,0,1,77.3,26.65c-1.5,7.33-5.65,12.46-13,14.77-.14,0-.33.06-.34.25s.08.13.13.15.37.12.56.17a18,18,0,0,1,10.07,6.57,22.54,22.54,0,0,1,4.44,19.51c-1.65,7.73-6.26,13-13.67,15.79a29.17,29.17,0,0,1-5,1.3C60.19,85.22,59.77,85.21,59.53,85.59ZM39.65,69.66H50.34a14,14,0,0,0,4.12-.57,9.49,9.49,0,0,0,3.72-2A9,9,0,0,0,61,61a9.4,9.4,0,0,0-6.84-10.33A14.68,14.68,0,0,0,50,50.17H28.37c-.23,0-.45,0-.68,0-.8,0-1,.2-1,1,0,.29,0,.59,0,.88v10.2q0,3.06,0,6.12c0,1.14.14,1.26,1.31,1.28H39.65Zm-.33-53.33h0c-3.79,0-7.59,0-11.38,0-1.1,0-1.23.15-1.26,1.24a2.71,2.71,0,0,0,0,.29V32.72c0,1.46.07,1.53,1.56,1.53H43.3l6.62,0a11.3,11.3,0,0,0,3.16-.47c5.1-1.44,6.85-5.66,6.35-9.7a8.15,8.15,0,0,0-6.07-7.21,10.52,10.52,0,0,0-3.25-.52Z"/><path class="cls-1" d="M153.27,0h27.42a2.3,2.3,0,0,0,.66,1.27L207.63,37,219,52.38c.22.29.37.68,1,.84V0h18.28c0,.58,0,1.16,0,1.75V83.45c0,.71,0,1.42,0,2.14h-17.5a2.74,2.74,0,0,0-.67-1.17Q202,59.69,183.82,35c-1.22-1.67-2.37-3.4-3.73-5a.09.09,0,0,0-.13,0c0,.68,0,1.36,0,2V83.64c0,.65,0,1.3,0,2H161.63c0-.39,0-.78,0-1.17V65.58q0-26.62,0-53.24a3.92,3.92,0,0,0-.91-2.66c-1.72-2.11-3.38-4.26-5.05-6.41A36.84,36.84,0,0,1,153.27,0Z"/><path class="cls-1" d="M427.29,0V85.59h-17.5a3.26,3.26,0,0,0-.78-1.33q-5.38-7.38-10.8-14.75Q385,51.45,371.72,33.37a31.44,31.44,0,0,0-2.59-3.4.11.11,0,0,0-.13,0c0,.71,0,1.42,0,2.14v51.6c0,.62,0,1.23,0,1.85H350.67a17.74,17.74,0,0,0,.14-2.52V13.39c0-.49-.05-1,0-1.46a3.07,3.07,0,0,0-.78-2q-3.42-4.3-6.79-8.63A2.21,2.21,0,0,1,342.5,0h27.22a3.22,3.22,0,0,0,.85,1.5L390.81,29l17.3,23.47c.2.27.34.63.77.73a3.16,3.16,0,0,0,.14-1.45q0-25.27,0-50.54c0-.39,0-.78,0-1.17Z"/><path class="cls-1" d="M517.53,85.59a3.68,3.68,0,0,1,.33-1.22q9.78-25.4,19.58-50.8c2.73-7.11,5.44-14.23,8.21-21.32a2.19,2.19,0,0,0-.36-2.47C543,6.94,540.74,4,538.48,1.16A3.5,3.5,0,0,1,537.76,0H573a3.88,3.88,0,0,0,.37,1.3l13.17,34q9.45,24.39,18.89,48.78a4.5,4.5,0,0,1,.44,1.49H585.21a2.62,2.62,0,0,0-.26-1.23l-4.5-12c-.41-1.08-.49-1.14-1.62-1.15H544.92c-1.58,0-1.58,0-2.15,1.51l-4.26,11.37a3.25,3.25,0,0,0-.36,1.5ZM561.19,55h11.67c1.73,0,1.76,0,1.16-1.68q-6.07-16.72-12.17-33.43c-.12-.35-.13-.93-.55-.93s-.44.57-.57.91q-6.12,16.82-12.22,33.62c-.51,1.41-.45,1.51,1,1.51Z"/><path class="cls-1" d="M473.58,85.59c-.29-.4-.74-.37-1.15-.42a44.85,44.85,0,0,1-14.38-4.25c-12.31-6.15-19.84-16-22.35-29.53a44.37,44.37,0,0,1,2.38-25.11,39.48,39.48,0,0,1,17.35-19.8A48.28,48.28,0,0,1,490,1.67a37.91,37.91,0,0,1,22.5,16.07l.3.49a.63.63,0,0,1-.27,1c-.33.2-.67.4-1,.58Q506,22.88,500.42,26l-.51.28c-1,.52-1,.51-1.74-.42a23.48,23.48,0,0,0-13.56-9.17,24.54,24.54,0,0,0-14.53,1c-7.91,3-12.94,8.67-15.34,16.67a29.58,29.58,0,0,0,1.17,21C459.77,64,466.58,69,476,70.21a27,27,0,0,0,18.84-4.67c2.36-1.57,1.87-1.33,1.9-3.62,0-2.07,0-4.15,0-6.22a7.88,7.88,0,0,0-.05-1,.65.65,0,0,0-.63-.63c-.32,0-.64,0-1,0-2.23,0-4.47,0-6.7,0a2,2,0,0,1-1.75-.83q-5.42-6.83-10.86-13.6a2.82,2.82,0,0,1-.29-.39c-.25-.4-.17-.59.3-.66a6.27,6.27,0,0,1,.87,0h35.68c1.65,0,1.67,0,1.67,1.71,0,9.46,0,18.92,0,28.39a3.63,3.63,0,0,1-1.12,2.75,45.2,45.2,0,0,1-27.12,13.76c-.41,0-.86,0-1.15.42Z"/><path class="cls-1" d="M87.53,85.59c0-.49,0-1,0-1.46V2.37c0-.42,0-.84,0-1.26a.69.69,0,0,1,.69-.69q.44,0,.87,0h57.36C148,.39,148,.45,148,2V14.72c0,.19,0,.39,0,.58-.05.79-.21,1-1,1-.39,0-.78,0-1.17,0H107.75q-.63,0-1.26,0a.73.73,0,0,0-.77.72c0,.32,0,.64,0,1V32.81c0,1.34.11,1.44,1.45,1.44h31.6c1.9,0,1.9,0,1.9,1.86,0,4.09,0,8.17,0,12.25,0,.16,0,.33,0,.49,0,1.2-.13,1.32-1.36,1.32H107.47c-.26,0-.52,0-.78,0-.79,0-1,.2-1,1,0,.25,0,.51,0,.77V67.8c0,1.85,0,1.85,1.82,1.85h38.3c.42,0,.85,0,1.27,0a.72.72,0,0,1,.74.74c0,.36,0,.71,0,1.07v14.1Z"/><path class="cls-1" d="M245.84,85.59A17.7,17.7,0,0,0,246,83c0-3.6,0-7.2,0-10.79a3.67,3.67,0,0,1,.76-2.34q18.09-24.48,36.13-49c.9-1.23,1.81-2.44,2.7-3.68.46-.64.36-.81-.44-.85-.35,0-.71,0-1.07,0H248c-2,0-2,0-2-2v-12c0-.29,0-.58,0-.88,0-.91.2-1.06,1.1-1.1.29,0,.58,0,.87,0h60.87c.36,0,.71,0,1.07,0,.66.06.83.23.88.91,0,.26,0,.52,0,.78,0,3.86,0,7.71,0,11.57a3.71,3.71,0,0,1-.8,2.41Q290.47,41.95,271,67.85a12.64,12.64,0,0,0-.85,1.18c-.22.34-.11.54.3.59a9.14,9.14,0,0,0,1.17,0h38.31c.84,0,1,.2,1,1.06,0,1.33,0,2.66,0,4-.07,3.21-.05,6.42,0,9.63,0,.42.07.84.11,1.26Z"/><path class="cls-1" d="M318.58,85.39c0-.52,0-1,0-1.55V1.57c0-.51,0-1,0-1.55h18.28c0,.52,0,1,0,1.55q0,41.28,0,82.56c0,.48,0,1,0,1.46H318.77Z"/><path class="cls-1" d="M.38.61H0C.07.36-.2-.1.4,0Z"/><path class="cls-1" d="M318.58,85.39l.19.2h-.19A1.34,1.34,0,0,1,318.58,85.39Z"/><path class="cls-1" d="M180.09,30,180,30A.09.09,0,0,1,180.09,30Z"/><path class="cls-1" d="M369.13,30a.5.5,0,0,1-.13,0A.11.11,0,0,1,369.13,30Z"/></g></g></svg>