<svg xmlns="http://www.w3.org/2000/svg" viewBox="0 0 764.88 191.74"><defs><style>.cls-1{fill:#f4f4f4;}.cls-2{fill:#26b1f8;}.cls-3{fill:#29b1f7;}.cls-4{fill:#28b1f7;}.cls-5{fill:#2cb2f5;}.cls-6{fill:#23b2f9;}.cls-7{fill:#28b2f8;}</style></defs><g id="Layer_2" data-name="Layer 2"><g id="Layer_12" data-name="Layer 12"><circle class="cls-1" cx="97.23" cy="96.09" r="85.52"/><path class="cls-2" d="M147.79,15a104.44,104.44,0,0,1,18.63,15.64A94.92,94.92,0,0,1,191,82.73c2.77,19.92-.27,39-9.57,56.78-13.25,25.42-33.87,41.89-61.63,49.33a126,126,0,0,1-13.45,2.57l-.83.06a1.64,1.64,0,0,0-1.31.21l-16.16.06a2.11,2.11,0,0,0-1.78-.26l-.82-.07a94.16,94.16,0,0,1-24.79-6.28q-48.12-20.35-59-71.49c-.64-3-.43-6.18-1.66-9.07V85.38c1.31-3.2,1.41-6.67,2.19-10C8.53,48.5,23.41,27.74,47,13.38A94.41,94.41,0,0,1,84.59.61l1.3-.27L87.24.27a146.9,146.9,0,0,1,17.43,0L106,.31a24.22,24.22,0,0,0,5.62.82l.91.07a48.78,48.78,0,0,0,7.82,1.74.43.43,0,0,0,.41.07,4.25,4.25,0,0,0,2.65.81.41.41,0,0,0,.4.06,8.15,8.15,0,0,0,3.55,1.2l.12,0a1.15,1.15,0,0,0,1.18.42l.11,0a1.18,1.18,0,0,0,1.18.43.28.28,0,0,0,.32.1,2.36,2.36,0,0,0,1.87.76.31.31,0,0,0,.32.11l.54.3.42.11a2.7,2.7,0,0,0,1.78.8.26.26,0,0,0,.3.1l.55.31a.33.33,0,0,0,.35.12,5.06,5.06,0,0,0,2.29,1.17A.34.34,0,0,0,139,10l.52.3.13.06a2.16,2.16,0,0,0,1.6.84.25.25,0,0,0,.3.13l.56.31a.35.35,0,0,0,.35.12,6.43,6.43,0,0,0,2.74,1.65l0,0a.77.77,0,0,0,.81.45h0l.39.31a.35.35,0,0,0,.34.17l.57.35.05,0Zm7.08,122.36A61.71,61.71,0,0,1,144.71,149c-16.48,14.83-35.83,21.15-57.82,18.61a68.93,68.93,0,0,1-44.32-22.82c-16.14-17.78-22-38.74-17.84-62.29A68,68,0,0,1,50,40C71.07,23.29,94.68,19.32,120.1,28c16.33,5.56,28.82,16.24,37.77,31,1.5,2.48,3.49,3.19,5.39,2s2.19-3.22.65-5.73a72.22,72.22,0,0,0-4.58-6.89c-18.16-22.9-41.8-33.85-71-31.41-22.92,1.92-41.6,12.41-55.53,30.62C17.8,67.14,13,89.28,18.29,113.38c4.31,19.71,14.93,35.51,31.3,47.16,18.2,13,38.58,17.47,60.58,13.35,23.52-4.4,41.38-17.19,53.88-37.51,2.07-3.36.45-6.09-3.48-6.1H91.9c-2.83,0-4.58,1.35-4.59,3.52s1.66,3.52,4.53,3.55h63Zm-47.6-63.3H57.55c-4.94,0-9.88,0-14.82,0-2.45,0-4.06,1.12-4.11,3.3-.13,6.23-.6,12.49.9,18.65a30.67,30.67,0,0,0,60-2.56c.55-3.48.29-7,.36-10.44,0-1.15.12-2,1.61-1.94,3.78.06,7.56.05,11.34,0,1.13,0,1.56.4,1.52,1.53,0,1.88,0,3.78,0,5.66.16,9.53,3.71,17.51,11,23.7,16.75,14.22,42.95,6.32,49.14-14.73,1.77-6,1.12-12.1,1.24-18.17.08-4-.94-5-5-5Q139,74,107.27,74.06Z"/><path class="cls-3" d="M764.88,121.13c-1.57,4.56-4.23,8.2-8.73,10.26-4.75,2.17-9.79,2.5-14.91,2.22a30.73,30.73,0,0,1-12-3.54c-1.13-.56-1.47-1.09-.85-2.32a62.83,62.83,0,0,0,2.9-6.56c.62-1.69,1.26-1.61,2.61-.7a18.41,18.41,0,0,0,13.24,3.06c2.14-.29,4.09-1,4.59-3.34a6.3,6.3,0,0,0-2.08-6.7,35,35,0,0,0-8.41-4.51,27.93,27.93,0,0,1-9.17-5.73c-8-8.15-5.22-20,5.68-23.55,7.83-2.55,15.46-1.44,22.9,1.76.88.38,1.22.81.81,1.81-.94,2.36-1.8,4.75-2.65,7.14-.32.88-.69,1.15-1.57.54-3.6-2.47-7.68-2.85-11.89-2.54a4.83,4.83,0,0,0-4.7,3.52c-.6,2,.18,3.92,2.32,5.39a45.09,45.09,0,0,0,8.22,4,41.2,41.2,0,0,1,7.17,3.62c3.48,2.37,5.33,5.8,6.54,9.67Z"/><path class="cls-1" d="M285.11,91.76c8.55,3.13,12.77,9.32,13.11,18.2s-3.68,15.43-11.65,19.46a31.11,31.11,0,0,1-14.09,3.17c-7.19,0-14.39,0-21.58,0-1.53,0-1.91-.42-1.9-1.92q.06-34.87,0-69.74c0-1.46.41-1.8,1.81-1.79,6.91.08,13.81-.1,20.71.08,6.43.16,12.6,1.41,17.43,6.12a16,16,0,0,1-2.46,25.16C286,90.85,285.38,91,285.11,91.76Zm-23.1,18c0,3.62,0,7.25,0,10.87,0,.84-.09,1.54,1.18,1.49,3.26-.14,6.54.06,9.78-.25,7.14-.66,10.66-3.66,11.66-9.55,1.34-7.9-2-12.91-9.55-14.22-3.95-.69-7.94-.46-11.93-.54-1.29,0-1.13.74-1.13,1.55Q262,104.48,262,109.8Zm0-30.73V83.2c0,4.73,0,4.73,4.69,4.73,3.35,0,6.69-.07,9.76-1.64,3.44-1.75,5-5.13,4.36-9.56-.42-3.11-2.65-5.33-6.17-6.17-3.86-.93-7.79-.41-11.68-.58-1.05,0-1,.6-1,1.26Z"/><path class="cls-4" d="M549.51,113.41c0,7.11.12,14.23,0,21.34-.27,13.7-8.31,22.75-21.87,24.69-7.68,1.11-15,.16-21.87-3.8-1.25-.72-1.81-1.33-1-2.84a64.11,64.11,0,0,0,3-6.5c.51-1.2,1-1.29,2-.5,4.67,3.41,9.92,4.19,15.53,3.18,6.09-1.1,9.8-4.89,10.88-11.16.87-5.09.87-5.06-4.18-4.41a33.58,33.58,0,0,1-17.54-1.94c-8.9-3.74-13.22-10.93-14.37-20.24-.74-6-.3-11.92,2.29-17.46,4.34-9.3,12-14.24,22-15.26a28.81,28.81,0,0,1,23.56,8,4.47,4.47,0,0,1,1.55,3.6c-.07,7.77,0,15.54,0,23.31Zm-12.73-6.83h0c0-4.35-.08-8.7,0-13a3.28,3.28,0,0,0-2.11-3.37,14.73,14.73,0,0,0-17.36,3.06c-4.07,4.53-4.84,10.1-4.37,15.88.3,3.71,1.18,7.31,4,10.06,4.28,4.14,12.87,5.63,18.36,3.27a2.17,2.17,0,0,0,1.43-2.36C536.76,115.57,536.78,111.08,536.78,106.58Z"/><path class="cls-1" d="M386.37,105.88c.2,6.59-1,12.85-5,18.27-5.73,7.81-13.84,10.07-23,9.42-15-1.06-21.59-12.37-22.6-23.32-.68-7.33.05-14.37,4.14-20.68,5.9-9.12,14.64-12,25-11,14,1.45,20.58,11.85,21.49,23.35C386.46,103.26,386.37,104.57,386.37,105.88Zm-38,.2a28.33,28.33,0,0,0,1.21,9c1.62,5.1,5,7.93,10,8.29,5.7.41,9.74-1.7,11.94-6.76a27.82,27.82,0,0,0,.31-21.17c-1.64-4.47-5.25-6.59-9.94-6.84a11,11,0,0,0-10.54,5.21C348.94,97.56,348.43,101.76,348.4,106.08Z"/><path class="cls-3" d="M599.17,100.62c0,2.4-.13,4.81,0,7.19.1,1.69-.52,2.08-2.1,2.07-7.34-.08-14.68,0-22-.08-1.86,0-2.72.16-2.22,2.49,1.4,6.58,6.43,10.76,13.79,11,4.73.14,9.29-.56,13.17-3.56.88-.68,1.2-.33,1.57.42,1.18,2.33,2.32,4.69,3.58,7,.73,1.32-.07,1.84-1,2.41a27.18,27.18,0,0,1-10.62,3.67c-5.67.86-11.33.93-16.83-.83-9.91-3.16-15.17-10.28-16.56-20.37a32.41,32.41,0,0,1,2.35-18.53c4.9-10.55,16.23-16.26,27.8-14.86,11.12,1.33,19.25,9.42,21,18.84.56,3,.49,3.11-2.44,3.13l-9.59.09c-.41-3.7-1.42-7.13-4.59-9.47-7.6-5.61-18.39-1.73-21.06,7.5-.47,1.6,0,1.91,1.54,1.9C583.08,100.53,591.13,100.6,599.17,100.62Z"/><path class="cls-3" d="M656.29,100.63c0,2.46,0,4.93.11,7.4.06,1.45-.5,1.84-1.89,1.83-7.34-.06-14.68,0-22,0-2.66,0-2.85.25-2.26,2.9,1.38,6.16,6.08,10,13,10.49,5,.32,9.75-.27,13.79-3.54.9-.73,1.19-.32,1.57.46,1.12,2.28,2.21,4.58,3.47,6.78.74,1.28.35,1.85-.78,2.55-4.31,2.7-9.12,3.64-14.07,4.09a33.25,33.25,0,0,1-15-1.74,21.83,21.83,0,0,1-14-15.3c-2.14-7.78-2-15.53,1.31-23a26.18,26.18,0,0,1,27.93-14.88c11.2,1.71,18.48,8.09,20.81,18.21,0,.08,0,.14.06.21.75,3.46.75,3.45-2.76,3.47-3.12,0-6.24.06-9.36.1-.17-4.5-1.72-8.3-5.91-10.42-8-4.06-16.4-.59-19.36,7.89-.8,2.31-.74,2.41,1.77,2.42Z"/><path class="cls-1" d="M408.47,106.14c0,5.25.72,9.71,4.23,13.2,4.71,4.7,14.42,5.33,21,1.47,1-.57,1.92-2,2.83-1.61s1.12,1.89,1.62,2.93c.81,1.69,1.56,3.42,2.4,5.1.42.83.47,1.29-.44,1.92-9.1,6.26-27.46,6.3-35.93-1.21a25.25,25.25,0,0,1-8.43-17.1c-.82-8.12.33-15.82,5.57-22.42s12.61-9.49,20.93-10c6.16-.34,12,.76,17.21,4.25,1,.69,1.17,1.2.54,2.22-1.32,2.16-2.63,4.34-3.78,6.59-.58,1.13-.94,1.23-2,.45-4-3-8.65-3.66-13.45-2.91-6.94,1.07-11.49,6.5-12.14,14.16C408.52,104.38,408.5,105.54,408.47,106.14Z"/><path class="cls-5" d="M691.1,107.68c-.8-.33-.92-1.48-1.93-1.63a4.07,4.07,0,0,0-.24,2.33c0,7.34-.07,14.67,0,22,0,1.85-.61,2.43-2.38,2.37-2.61-.1-5.24-.16-7.84,0-2,.12-2.41-.66-2.4-2.51q.07-30.18,0-60.36c0-2.84.08-5.67,0-8.5-.07-1.65.35-2.34,2.16-2.24a73.6,73.6,0,0,0,8.27,0c1.78-.09,2.19.54,2.18,2.22-.06,13.44,0,26.88,0,40.31v3l7.3-9.91c.59,1.84-.94,2.88-1.78,4-1.14,1.51-3,2.56-1.75,4.87a.72.72,0,0,1-.19,1c-.35.27-.68.23-.84-.23s-.43-.8-.93-.41a1,1,0,0,0-.28,1.18C690.75,106,691.35,106.73,691.1,107.68Z"/><path class="cls-1" d="M463.08,106c-.29,0-.74-.85-.81.11-.08,1.15,0,2.32,0,3.48,0,7-.05,14.09,0,21.13,0,1.45-.24,2-1.85,2-2.82-.14-5.66-.13-8.49,0-1.66.08-2.2-.33-2.19-2.11.09-13.22.05-26.43.05-39.65,0-9.88.06-19.75,0-29.63,0-1.8.55-2.16,2.18-2.09a76.23,76.23,0,0,0,8.28,0c1.83-.12,2.06.58,2.06,2.17-.06,13.65,0,27.31,0,41a11.22,11.22,0,0,0,0,1.74c.17,1,.54,0,.82,0C463.09,104.7,463.08,105.33,463.08,106Z"/><path class="cls-1" d="M329.07,132.6c-4.44,0-8.5,0-12.56,0-1.1,0-1.53-.66-2-1.38a28.26,28.26,0,0,1-4.59-15.82q0-27.23,0-54.43c0-1.33.22-1.9,1.74-1.83a88.46,88.46,0,0,0,8.92,0c1.8-.11,1.73.78,1.73,2.05,0,16.69.14,33.39-.1,50.08-.1,7,2.16,13,5.6,18.85C328.17,130.81,328.51,131.51,329.07,132.6Z"/><path class="cls-1" d="M463.08,106c0-.63,0-1.26,0-1.89l12.1-17.48c1.2-1.72,2.56-3.35,3.6-5.17a3.71,3.71,0,0,1,3.9-2c3.6.14,7.2,0,11.27,0l-7.7,10.91c-2.84,4-5.58,8.12-8.56,12-1.09,1.43-.81,2.19.19,3.43,6.87,8.43,13.66,16.93,20.47,25.41.26.33.49.69.94,1.32H484.52a1.32,1.32,0,0,1-1.07-.63Q473.28,119,463.08,106Z"/><path class="cls-6" d="M691.1,107.68c.25-1-.35-1.67-.65-2.47a1,1,0,0,1,.28-1.18c.5-.39.76-.08.93.41s.49.5.84.23a.72.72,0,0,0,.19-1c-1.26-2.31.61-3.36,1.75-4.87.84-1.12,2.37-2.16,1.78-4h0a8.3,8.3,0,0,0,4.49-6.42h0c1.61-.16,1.84-1.27,1.78-2.58h0a8.21,8.21,0,0,0,3.9-4.13c.41-.75.76-1.47,1.64-1.49,2.75-.06,5.5,0,8.25,0,.44,0,1.14.29.87.63-.85,1.06-.44,2.38-.94,3.45-1.86,3.94-6.52,5.89-7.48,10.48,0,0-.11.11-.17.11-2,.27-.92,1.47-.75,2.4h0a6.06,6.06,0,0,1-1-.18c-.6-.2-1.25-.6-1.75.06-.65.86.57.93.72,1.46s.18.82.27,1.23h0c-1.88.7-3.05,2.39-2.67,3.88v.85c-1.13,1.29.36,1.69.85,2.39s1.56,1.41-.33,1.56c-.43,0-.95.07-.71.72a.89.89,0,0,0,1.08.49l2.73-.51-.11.06.12,0c-.18,2.15,1.3,3,3,3.6l.39.44a4.11,4.11,0,0,0,3.11,3.92l.38.45c-.11.56-.48,1.45-.27,1.62,1.75,1.45,2.29,3.79,3.88,5.21.65.58,1.57,1,2.28,1.71s1.15,1.89,2.43,1.9h0l.43.47h0c0,3.06,0,3.06-3,3.06-2.18,0-4.36-.08-6.52,0a3.25,3.25,0,0,1-3-1.28c-1.61-2-3.13-4.08-4.87-6-1.46-1.59-1.53-4.23-4-5.07-.57-.2-.4-.7.06-1.19,1.32-1.42,1.14-2-.74-2.71-.42.6.32,1.08.18,1.63a1.22,1.22,0,0,1-.41.7c-.31.23-.55,0-.67-.3-1.09-2.13-2.87-3.74-4.24-5.65-.73-1-1.46-2.2-2.92-2.4h0c.06-1-.13-1.75-1.35-1.71Zm5.25-1.64a.86.86,0,0,0-.58-.82c-.48-.13-.61.23-.62.61s.06.73.51.81S696.31,106.46,696.35,106Zm-1.72,1.34c-.18-.21-.35-.48-.41-.46a1.28,1.28,0,0,0-.63.42c-.15.26-.06.59.33.52S694.35,107.57,694.63,107.38Zm15.76,9.56c-.63,0-.81.17-.72.39a1.08,1.08,0,0,0,.52.57c.33.11.51-.15.42-.47A1.77,1.77,0,0,0,710.39,116.94Zm-9.44-6c-.34-.11-.48.07-.5.26s0,.46.16.52c.29.17.51,0,.52-.33A1.15,1.15,0,0,0,701,110.92Zm2.43-21.68c.17-.23.35-.38.35-.52s-.11-.45-.23-.49c-.35-.09-.48.18-.46.47S703.23,89,703.38,89.24Zm7.74-8-.15.36c.12.05.26.17.35.14s.11-.23.16-.35Zm-8,17.81c.12,0,.27.17.36.13s.11-.22.16-.34c-.12,0-.26-.17-.35-.14S703.18,98.9,703.12,99Zm0,14c.12,0,.27.17.36.13s.11-.22.16-.34c-.12-.05-.26-.17-.35-.14S703.18,112.84,703.12,113Zm2.79-2.6-.22.32a2,2,0,0,0,.34.06s.13-.13.11-.15A1.25,1.25,0,0,0,705.91,110.37Z"/><path class="cls-5" d="M692.47,109.38c1.46.2,2.19,1.38,2.92,2.4,1.37,1.91,3.15,3.52,4.24,5.65.12.25.36.53.67.3a1.22,1.22,0,0,0,.41-.7c.14-.55-.6-1-.18-1.63,1.88.74,2.06,1.29.74,2.71-.46.49-.63,1-.06,1.19,2.45.84,2.52,3.48,4,5.07,1.74,1.89,3.26,4,4.87,6a3.25,3.25,0,0,0,3,1.28c2.16-.11,4.34,0,6.52,0,3,0,3,0,3-3.06,1.11.74,1.68,2,2.55,2.93s.4,1.26-.65,1.26c-4.21,0-8.42,0-12.63,0a2.47,2.47,0,0,1-2-1q-8.6-10.95-17.23-21.87A1.31,1.31,0,0,1,692.47,109.38Z"/><path class="cls-5" d="M707.85,97.24c-.17-.93-1.24-2.13.75-2.4.06,0,.16-.06.17-.11,1-4.59,5.62-6.54,7.48-10.48.5-1.07.09-2.39.94-3.45.27-.34-.43-.63-.87-.63-2.75,0-5.5,0-8.25,0-.88,0-1.23.74-1.64,1.49a8.21,8.21,0,0,1-3.9,4.13c1.24-1.86,2.49-3.72,3.72-5.58a1.68,1.68,0,0,1,1.46-.81H719c1,0,1.48.33.77,1.27C715.75,86.17,712.17,92,707.85,97.24Z"/><path class="cls-5" d="M722.19,128.07c-1.28,0-1.75-1.18-2.43-1.9s-1.63-1.13-2.28-1.71c-1.59-1.42-2.13-3.76-3.88-5.21-.21-.17.16-1.06.27-1.62A99.69,99.69,0,0,1,722.19,128.07Z"/><path class="cls-5" d="M707,109.2l-2.73.51a.89.89,0,0,1-1.08-.49c-.24-.65.28-.68.71-.72,1.89-.15.83-.86.33-1.56s-2-1.1-.85-2.39A21.7,21.7,0,0,1,707,109.2Z"/><path class="cls-5" d="M700.75,88.41a8.3,8.3,0,0,1-4.49,6.42A32.59,32.59,0,0,1,700.75,88.41Z"/><path class="cls-5" d="M706.06,99.82c-.09-.41-.14-.83-.27-1.23s-1.37-.6-.72-1.46c.5-.66,1.15-.26,1.75-.06a6.06,6.06,0,0,0,1,.18A5.71,5.71,0,0,1,706.06,99.82Z"/><path class="cls-5" d="M703.4,103.7c-.38-1.49.79-3.18,2.67-3.88A17.17,17.17,0,0,1,703.4,103.7Z"/><path class="cls-5" d="M710,112.82c-1.65-.65-3.13-1.45-3-3.6A11.65,11.65,0,0,1,710,112.82Z"/><path class="cls-5" d="M713.49,117.18a4.11,4.11,0,0,1-3.11-3.92A18.39,18.39,0,0,1,713.49,117.18Z"/><path class="cls-5" d="M702.52,85.83c.06,1.31-.17,2.42-1.78,2.58A6.19,6.19,0,0,1,702.52,85.83Z"/><path class="cls-5" d="M691.12,107.67c1.22,0,1.41.74,1.35,1.71A2.76,2.76,0,0,1,691.12,107.67Z"/><path class="cls-5" d="M722.6,128.53l-.43-.47Z"/><path class="cls-5" d="M696.34,106c0,.42-.25.66-.68.6s-.52-.44-.51-.81.14-.74.62-.61A.84.84,0,0,1,696.34,106Z"/><path class="cls-5" d="M694.63,107.38c-.28.19-.47.43-.71.48s-.48-.26-.33-.52a1.28,1.28,0,0,1,.63-.42C694.28,106.9,694.45,107.17,694.63,107.38Z"/><path class="cls-5" d="M710.39,116.94a1.77,1.77,0,0,1,.22.49c.09.32-.09.58-.42.47a1.08,1.08,0,0,1-.52-.57C709.58,117.11,709.76,117,710.39,116.94Z"/><path class="cls-5" d="M701,110.92a1.15,1.15,0,0,1,.18.45c0,.32-.23.5-.52.33-.12-.06-.18-.34-.16-.52S700.61,110.81,701,110.92Z"/><path class="cls-5" d="M703.38,89.24c-.15-.24-.32-.39-.34-.54s.11-.56.46-.47c.12,0,.24.32.23.49S703.55,89,703.38,89.24Z"/><path class="cls-5" d="M711.12,81.21l.36.15c-.05.12-.07.31-.16.35s-.23-.09-.35-.14Z"/><path class="cls-5" d="M703.12,99c.06-.12.08-.31.17-.35s.23.09.35.14c0,.12-.08.31-.16.34S703.24,99.07,703.12,99Z"/><path class="cls-5" d="M703.12,113c.06-.13.08-.31.17-.35s.23.09.35.14c0,.12-.08.31-.16.34S703.24,113,703.12,113Z"/><path class="cls-5" d="M705.91,110.37a1.25,1.25,0,0,1,.23.23s-.07.15-.11.15a2,2,0,0,1-.34-.06A3.62,3.62,0,0,1,705.91,110.37Z"/><path class="cls-7" d="M69.34,81.14c7,0,13.94.09,20.9,0,2.18,0,2.63.69,2.63,2.72,0,5.7-.24,11.28-3.19,16.42A23.52,23.52,0,0,1,45.77,88.88c0-1.74.12-3.5,0-5.22-.18-2,.43-2.62,2.49-2.58,7,.13,14.08,0,21.12,0Z"/><path class="cls-7" d="M145,81.14c7.18,0,14.37,0,21.55,0,1.59,0,2.17.44,2.16,2.09,0,5.08,0,10.14-2.12,14.94-4.5,10.11-15.29,15.57-26.59,13.37-10.21-2-18.18-11.61-18.41-22.24,0-2,.09-4.07,0-6.1-.11-1.65.5-2.09,2.11-2.07,7.11.07,14.23,0,21.34,0Z"/></g></g></svg>