<svg xmlns="http://www.w3.org/2000/svg" viewBox="0 0 488.44 90"><defs><style>.cls-1{fill:#f4f4f4;}</style></defs><g id="Layer_2" data-name="Layer 2"><g id="Layer_4" data-name="Layer 4"><path class="cls-1" d="M0,0H35.81c6.82,0,11.93,1.71,15.72,4.55C55.7,8,58,12.88,58,19c0,7-2.85,11.36-8.53,14v.38C57,35.81,61.39,42.63,61.39,50.78c0,7.76-3,13.83-8,17.62-4.17,3-9.47,4.35-16.67,4.35H0ZM32.21,28.42c3.79,0,6.63-2.08,6.63-6.44,0-4.17-2.84-6.25-6.82-6.25H19.7v12.5H32.21Zm1.7,28.23c4.36,0,7.58-2.65,7.58-7.39,0-5.11-3.41-7.39-7.58-7.39h-14v15h14Z"/><path class="cls-1" d="M64.61,0H83.36V72.94H64.61Z"/><path class="cls-1" d="M87.15,47c0-16.49,10.61-27.48,27.1-27.48s26.9,11.18,26.9,27.48c0,16.48-10.42,27.47-26.9,27.47S87.15,63.47,87.15,47Zm35.24,0c0-9.1-2.84-14.78-8.52-14.78s-8.34,5.68-8.34,14.78,2.65,15,8.34,15C119.55,61.77,122.39,56.08,122.39,47Z"/><path class="cls-1" d="M143.23,47c0-16.49,10.61-27.48,27.1-27.48S197,30.5,197,47s-10.42,27.47-26.9,27.47c-16.3,0-26.91-11-26.91-27.47Zm35.25,0c0-9.1-2.85-14.78-8.53-14.78s-8.34,5.68-8.34,14.78,2.66,15,8.34,15C175.63,61.77,178.48,56.08,178.48,47Z"/><path class="cls-1" d="M200.83,20.84h17.43v7.77h.38c3.41-6.06,8.15-9.28,15.73-9.28,6.63,0,11.55,3.22,14,8.9h.38c4.16-6.82,9.66-8.9,16.1-8.9,12.13,0,17.24,8.9,17.24,20.84V72.75H263.92V43.39c0-5.31-1.7-8.72-6.25-8.72s-6.82,4.17-6.82,9.85V72.75H232.66V43.39c0-5.31-1.7-8.72-6.25-8.72s-6.82,4.17-6.82,9.85V72.75H200.83Z"/><path class="cls-1" d="M305,65.93h-.19v6.82H287.42V0h18.19V26.15H306c3.41-4.55,8.15-7,14.78-7,13.08,0,20.65,11.74,20.65,27.47,0,17.62-8.14,27.85-21.78,27.85A16,16,0,0,1,305,65.93Zm17.62-19.51c0-8.34-3-13.83-8.53-13.83-5.68,0-9.09,5.49-9.09,13.83s3.6,13.83,9.09,13.83S322.66,54.94,322.66,46.42Z"/><path class="cls-1" d="M343.5,46.8c0-16.3,10.8-27.47,26.33-27.47,7.77,0,13.65,2.46,18.19,6.82,6.07,5.87,8.72,15,8.53,25.57H361.69c.75,6.45,3.79,9.86,9.28,9.86a7.11,7.11,0,0,0,7.2-4.93h17.62c-3,11.94-12.31,17.81-25.39,17.81-16.1-.19-26.9-11.18-26.9-27.66Zm18.19-5.5h16.67c-.38-6.25-3.79-9.47-8.15-9.47C365.1,31.64,362.26,35.24,361.69,41.3Z"/><path class="cls-1" d="M417.2,29.75h.38c3.79-7.2,8.71-10,15-10a5.65,5.65,0,0,1,3,.57V36.19h-.38c-10.8-1.9-17.05,3.22-17.05,15V72.94H399.77V20.84H417.2Z"/><path class="cls-1" d="M437.47,72.94h17.62c.76,2.28,3,4.36,7.39,4.36,5.87,0,8-3.6,8-9.09V64.42h-.38a15.56,15.56,0,0,1-12.5,5.87c-11.18,0-21-8.34-21-24.63,0-15,8-26.52,20.09-26.52,7,0,11.18,2.84,14,7.2H471V20.65h17.43V65.74c0,8.34-2.84,14.78-7.2,18.57-4.55,4-11,5.69-18.38,5.69C448.84,90.18,439.18,84.5,437.47,72.94Zm33.73-28c0-6.44-3-11.74-8.34-11.74-5.12,0-8.34,4.54-8.34,11.74,0,7,3.23,11.94,8.34,11.94S471.2,51.72,471.2,44.9Z"/></g></g></svg>