<svg xmlns="http://www.w3.org/2000/svg" viewBox="0 0 1373.02 212.87"><defs><style>.cls-1{fill:#fcd119;}.cls-2{fill:#fdfdfd;}.cls-3{fill:#fcfcfc;}</style></defs><g id="Layer_2" data-name="Layer 2"><g id="Layer_10" data-name="Layer 10"><path class="cls-1" d="M259.62,212.87c0-1.2-.94-.72-1.48-.8-7.78-1.12-15.15-3.4-21.67-7.92-10.1-7-15.12-17.05-17-28.92a75.43,75.43,0,0,1-.78-8.75c0-1.11.23-1.54,1.45-1.53q12.59.08,25.18,0c1.32,0,1.59.47,1.61,1.64a21.13,21.13,0,0,0,2.45,9.82c2.93,5.53,7.79,8.38,13.74,9.61,8.07,1.67,15.47.75,21.45-5.63a23.12,23.12,0,0,0,6.05-12.28c1.26-7.69.26-15.45.66-23.58-8.06,12.95-20.26,15.86-33.8,15.35A39.7,39.7,0,0,1,231,149.1c-8.31-7.83-12.13-17.74-12.22-28.94-.19-24.49,0-49-.1-73.48,0-1.59.5-1.91,2-1.9,8.74.06,17.47.08,26.21,0,1.67,0,2.15.37,2.14,2.11q-.09,34.06,0,68.15a28.89,28.89,0,0,0,1.29,8.86c1.84,5.77,5.63,9.59,11.59,11,7,1.59,13.73.85,19.87-3,5.88-3.7,9.27-9.18,9.36-16.11.22-16.44.11-32.88.13-49.32,0-6.61,0-13.23,0-19.85,0-1.3.3-1.77,1.68-1.77,9,.06,18,.08,27,0,1.76,0,1.57.91,1.57,2q0,52.29,0,104.58c0,5.52.15,11-.32,16.56-1.87,21.88-16.66,38.67-38.27,43.32-1.53.33-3.08.56-4.62.85-.39.07-1.05,0-.6.76Z"/><path class="cls-1" d="M82.72,0c-.31,1.3.79.73,1.21.8a66.4,66.4,0,0,1,26.61,9.84C125.27,20.3,133.83,34,136.77,51.28c.74,4.31.63,4.33-3.82,4.33-8.46,0-16.92-.06-25.38,0-1.85,0-2.61-.42-3.22-2.31-4.06-12.6-12-21.64-25.22-24.58-15.64-3.48-34,1.85-41.86,23.32-3.67,10.08-4.65,20.54-4.56,31.16.08,9.44,1,18.77,4.16,27.76,3.17,9.18,8.2,16.93,17.15,21.46,19.47,9.86,42.09.66,49.13-19.93.62-1.8,1.18-3.63,1.63-5.48a1.2,1.2,0,0,1,1.38-1.1q15,0,29.89,0c1.07,0,1.28.37,1.09,1.32-5.45,27.33-22.64,51-53.78,55.86-21.47,3.36-41.46-.64-58.46-15.05C13.65,138.53,7.1,126,3.34,112A90.28,90.28,0,0,1,.79,98.33C.71,97.52.7,97.52,0,97V69.59c.72-.36.72-.36.81-1.21a102.55,102.55,0,0,1,3.31-17c3.76-13.12,10-24.85,20.07-34.23C34.12,7.92,46,2.78,59.34.78c.44-.07,1.46.45,1.26-.78Z"/><path class="cls-1" d="M335,212.87q0-83,0-166c0-1.74.47-2.13,2.15-2.11q12.58.13,25.18,0c1.41,0,1.86.34,1.82,1.8-.1,3.67,0,7.34,0,10.87.93.41,1-.16,1.21-.43,8.16-11.77,19.81-15.85,33.57-15.1,21.83,1.18,37.21,15.5,43.07,36.43,5.29,18.9,5.08,37.79-2.62,56.06-5.9,14-16.07,23.6-31.45,26.48-16.95,3.17-31.3-1.29-42.08-15.32-.19-.26-.4-.51-.67-.84a2.18,2.18,0,0,0-.27,1.63q0,33,0,65.91a4.11,4.11,0,0,0,.08.6ZM414.6,102.36c.06-8.17-1.14-15.47-4.68-22.3-7.42-14.28-24.12-18-35.75-7.9a29.58,29.58,0,0,0-8.86,14.42c-2.53,8.64-2,17.38-.67,26.12a41.64,41.64,0,0,0,2,7.69c4,11.1,12,16.17,24.44,15.53,9.53-.48,16.33-5,20.07-13.93C413.88,115.52,414.48,108.69,414.6,102.36Z"/><path class="cls-2" d="M1373,111.76c-1.36-.37-.73.8-.78,1.17a61.16,61.16,0,0,1-8.24,23.74c-8.54,13.77-21.13,21.5-36.9,24.15a68.58,68.58,0,0,1-34.51-2.52c-15.91-5.57-26.77-16.44-32.25-32.37a71.62,71.62,0,0,1,.05-48.29c6.93-19.58,21.2-30.82,41.4-34.61a67.23,67.23,0,0,1,35.1,2.28c18.55,6.47,29.39,19.88,34,38.64.57,2.3.86,4.68,1.3,7,.08.38-.24,1.3.78.73Zm-30.5-9.66a62.28,62.28,0,0,0-1.46-14.28c-1.84-7.48-5.29-13.85-12.47-17.53-5.27-2.71-10.95-3.15-16.72-2.73-10.13.74-17.72,5.41-21.21,15.18a56,56,0,0,0,.17,38.79,21.51,21.51,0,0,0,15.07,13.81,34.47,34.47,0,0,0,13.37.94c9.35-1.05,16.13-5.69,19.86-14.5C1341.84,115.38,1342.42,108.64,1342.52,102.1Z"/><path class="cls-2" d="M685.08,81.85q0-37.33-.05-74.68c0-1.75.34-2.25,2.19-2.24,21.9.08,43.8,0,65.7.08,14.7.08,27.61,4.76,37.43,16.13S803.43,46.19,802,61c-1.41,14.06-7.52,25.62-19.38,33.72-8.72,6-18.58,8.28-29,8.39-11.46.11-22.92.06-34.38,0-1.57,0-1.88.42-1.88,1.92.06,17.25,0,34.51.08,51.76,0,1.65-.31,2.17-2.07,2.15q-14.24-.15-28.45,0c-1.62,0-1.84-.49-1.84-1.93Q685.12,119.4,685.08,81.85Zm32.28-27.58c0,6.95,0,13.91,0,20.86,0,.93-.11,1.67,1.3,1.65,11.32-.17,22.65.48,34-.3s19.77-6.66,21.14-19c1.13-10.16-2.22-19.13-12.11-23.3a29.37,29.37,0,0,0-11.13-2.28c-10.5-.09-21-.08-31.5-.18-1.37,0-1.68.4-1.67,1.71C717.39,40.36,717.36,47.32,717.36,54.27Z"/><path class="cls-2" d="M1108.37,149c-9.14,8.93-20.24,12.42-32.57,12.73a57.72,57.72,0,0,1-18.21-2.08C1044,155.64,1036.51,146,1036,131.83a48.19,48.19,0,0,1,2.22-16.94c3.33-10,10.73-15.74,20.33-19.12,8-2.8,16.23-4.06,24.51-5.28,5.25-.78,10.56-1.26,15.66-2.86a23,23,0,0,0,3.23-1.25,10.2,10.2,0,0,0,2-17,17.23,17.23,0,0,0-7.55-3.41,35.92,35.92,0,0,0-13.82-.36c-7.82,1.33-12.63,6-14.28,14.25-.35,1.76-1,2.2-2.73,2.18-8-.1-16.1,0-24.16,0-.79,0-1.76.39-1.68-1.19.53-10.84,3.38-20.71,11.91-28.13,6.15-5.33,13.54-8,21.44-9.36,13-2.18,25.93-2.25,38.7,1.33,15.2,4.26,23.35,14.67,25.79,30a82.44,82.44,0,0,1,.89,13q0,34.59,0,69.18c0,1.67-.34,2.14-2.08,2.12q-12.08-.15-24.15,0c-1.68,0-2.28-.56-2.52-2.06C1109.34,154.28,1108.85,151.74,1108.37,149Zm-.07-45.71c-4.7,3.46-9.91,4.48-15.08,5.57-6.25,1.32-12.61,2.23-18.43,5.06-7,3.4-9.91,9.7-8.15,17.28a10.39,10.39,0,0,0,7.35,8,25.46,25.46,0,0,0,10.31.77,26.27,26.27,0,0,0,23.13-19.74C1108.71,114.8,1107.84,109.2,1108.3,103.33Z"/><path class="cls-3" d="M934.11,68.85c0-17.59,0-35.19,0-52.79,0-1.71.45-2.13,2.14-2.12q13,.13,26,0c1.47,0,1.78.42,1.77,1.82-.06,9.07,0,18.14-.07,27.21,0,1.56.4,1.88,1.9,1.88,19.65-.06,39.3,0,59-.08,1.82,0,2.27.44,2.23,2.24-.13,5.73-.12,11.46,0,17.19,0,1.76-.54,2.08-2.18,2.08-19.58-.06-39.16,0-58.74-.09-1.87,0-2.17.53-2.16,2.24.07,15.28.05,30.56,0,45.84a35.08,35.08,0,0,0,1,8.3c2.59,10.7,10.11,14.12,19.79,12.69,7.88-1.16,12.57-6.79,13.64-15.6a58.6,58.6,0,0,0,.42-7.14c0-9,0-18,0-27,0-1.35.24-1.86,1.75-1.85,8.25.08,16.51,0,24.76,0,1,0,1.77,0,1.75,1.45-.24,12.21.57,24.43-.42,36.61-1.71,21.2-15,36.94-37.81,39.58a61.92,61.92,0,0,1-25.51-1.87c-15.71-4.82-24.64-15.74-27.94-31.57a63.83,63.83,0,0,1-1.18-13Z"/><path class="cls-3" d="M1151.55,67.69c0-17.19,0-34.38,0-51.57,0-1.64.32-2.2,2.08-2.18q12.79.15,25.59,0c1.65,0,2.2.34,2.18,2.09-.1,8.94,0,17.88-.08,26.81,0,1.58.36,2,2,2,19.58-.06,39.17,0,58.76-.08,1.77,0,2.3.36,2.26,2.22-.14,5.8-.11,11.6,0,17.4,0,1.57-.45,1.89-2,1.89-19.66-.06-39.31,0-59-.08-1.72,0-2.1.42-2.09,2.11.09,15.76,0,31.52.16,47.28.06,5.71,1.12,11.31,5.38,15.64,7.83,7.95,23.11,4.92,27.28-5.38a32.89,32.89,0,0,0,2.09-12.42c0-9.27,0-18.55,0-27.83,0-1.48.27-2,1.87-1.94,8.18.09,16.37.06,24.56,0,1.16,0,1.71.16,1.69,1.53-.17,12.14.59,24.31-.32,36.41-1.61,21.36-15,37-37.69,39.69-9.16,1.07-18.25.68-27.07-2.33-14.88-5.06-23.22-15.76-26.44-30.81a60.38,60.38,0,0,1-1.21-12.59Q1151.57,91.64,1151.55,67.69Z"/><path class="cls-1" d="M456.1,68.18c0-17.39,0-34.78,0-52.18,0-1.55.32-2.08,2-2.06q12.9.13,25.79,0c1.57,0,1.92.44,1.91,2-.07,8.93,0,17.87-.08,26.8,0,1.7.43,2.17,2.14,2.16,19.59-.06,39.17,0,58.75-.08,1.77,0,2.31.37,2.27,2.23-.14,5.79-.12,11.59,0,17.39,0,1.57-.46,1.9-2,1.9-19.59-.06-39.17,0-58.75-.09-2,0-2.47.46-2.46,2.44.1,14.4,0,28.79.07,43.18a48.15,48.15,0,0,0,1.07,10.76c2.49,10.48,10,14.17,19.81,12.69,7.57-1.15,12-6.18,13.42-14.43a45.18,45.18,0,0,0,.61-7.53c0-9.2,0-18.41,0-27.62,0-1.41.18-2,1.85-2q12.27.14,24.56,0c1.49,0,1.78.49,1.77,1.86-.07,11.12.28,22.25-.18,33.35-.65,16.17-6.79,29.49-21.66,37.57a46.89,46.89,0,0,1-20.61,5.27c-8.87.39-17.58-.36-25.84-3.91-12.79-5.47-20-15.46-23.09-28.76a54.64,54.64,0,0,1-1.33-12.37Q456.12,92.44,456.1,68.18Z"/><path class="cls-2" d="M866.14,161.78c-11.33.1-21.42-1.84-30.77-6.79a50.11,50.11,0,0,1-24.94-30c-5.19-16.11-5.16-32.34.72-48.28,6.29-17,18.53-27.87,36.07-32.56a68.44,68.44,0,0,1,38.53.61c16.17,5,27.5,15.59,33.22,31.55,6.52,18.14,6.38,36.41-1.37,54.17-7.25,16.63-20.43,26.25-38,30A57.44,57.44,0,0,1,866.14,161.78ZM893,101.62a76.4,76.4,0,0,0-1.15-12.17c-1.8-8.56-5.44-15.85-13.9-19.68-5.31-2.41-11-2.71-16.63-2.13-10.26,1-17.43,6.33-20.68,16.22a58.34,58.34,0,0,0-.25,35.37c2.24,7.58,7,13.14,14.74,15.74a33.48,33.48,0,0,0,14.74,1.29c9.17-1.09,15.86-5.65,19.6-14.26C892.28,115.55,892.8,108.72,893,101.62Z"/><path class="cls-1" d="M675.43,100.94c0,12.38-2.09,23.42-7.69,33.56C660.29,148,648.87,156.36,634,159.9a68.46,68.46,0,0,1-39.1-1.68c-16.9-5.91-27.83-17.79-32.94-34.78-4.66-15.49-4.52-31.12,1.09-46.38,7.08-19.26,21.28-30.31,41.24-34,12.56-2.35,25-1.69,37,3,17.75,6.93,27.95,20.37,32.26,38.61A76,76,0,0,1,675.43,100.94Zm-30.47.12A52.35,52.35,0,0,0,643.31,87c-2.21-8.45-6.69-15-15.33-18a34.61,34.61,0,0,0-12.51-1.5c-11.59.32-19.91,6.37-23.19,17.48a59.09,59.09,0,0,0,.08,34.07c2.43,8.13,7.58,13.92,16,16.3a34.55,34.55,0,0,0,12.36,1c10.37-.86,17.62-5.93,21.35-15.75C644.36,114.61,645,108.33,645,101.06Z"/><path class="cls-1" d="M172.81,58.13a68.28,68.28,0,0,1,5.54-6.73c5.44-5.58,12.14-8.39,19.77-9.2a101.66,101.66,0,0,1,11-.4c.91,0,1.34.18,1.34,1.23,0,9.81,0,19.63,0,29.65a58.44,58.44,0,0,0-14.28-.29c-12.61,1.47-20.45,9.61-21.34,22.36-.12,1.84-.19,3.68-.19,5.52q0,28.24,0,56.48c0,1.71-.42,2.15-2.12,2.13-8.81-.09-17.61-.07-26.41,0-1.29,0-1.72-.28-1.72-1.66q.06-55.36,0-110.72c0-1.39.43-1.7,1.73-1.69q12.49.08,25,0c1.38,0,1.71.42,1.68,1.74C172.75,50.18,172.81,53.85,172.81,58.13Z"/><path class="cls-1" d="M1299.27,98.28a23.54,23.54,0,0,1,4.7-14.7c5.84-7.53,15.07-7.67,21.13-.34,6.66,8.07,6.61,22.38-.11,30.42-6,7.19-15.46,6.93-21.13-.64A23.73,23.73,0,0,1,1299.27,98.28Z"/><path class="cls-3" d="M601.72,99.91c.15-6.11,1.75-11.77,6.22-16.29,5.36-5.43,13-5.47,18.37,0,4.87,4.92,6.48,11.1,6.22,17.8a22.83,22.83,0,0,1-5.33,14.27c-5.5,6.49-14.33,6.59-20,.19C603.29,111.31,601.81,105.89,601.72,99.91Z"/></g></g></svg>