<svg xmlns="http://www.w3.org/2000/svg" viewBox="0 0 599.21 81.92"><defs><style>.cls-1{fill:#f4f4f4;}.cls-2{fill:#14242b;}.cls-3{fill:#102229;}</style></defs><g id="Layer_2" data-name="Layer 2"><g id="Layer_1-2" data-name="Layer 1"><path class="cls-1" d="M304,40.88V3.55c0-1-.32-2,1.45-2,12.92.15,25.87-.57,38.76.39,14.24,1.05,26.18,7,32.92,20.09,11.26,21.92,2.07,52.28-29,57.45a75.39,75.39,0,0,1-12.74.79c-9.83,0-19.66,0-29.49,0-1.52,0-2-.34-1.95-1.92C304.07,65.9,304,53.39,304,40.88Zm23.94.34c0,6.46,0,12.91,0,19.37,0,1.19.18,1.69,1.53,1.65,3.64-.12,7.28,0,10.92-.1a16.27,16.27,0,0,0,14.48-9c3.63-6.75,3.8-13.79,1.27-20.9a17.15,17.15,0,0,0-16.24-11.79c-3.43-.12-6.87,0-10.3-.15-1.41-.05-1.67.46-1.66,1.75C328,28.44,328,34.83,328,41.22Z"/><path class="cls-1" d="M199.71,41A40.4,40.4,0,0,1,233.39,1c11.17-1.86,21.93-.88,32,4.56,14.9,8.05,21.78,22.51,20.66,38.72-1.32,19.2-16.43,35.39-37.73,37.34-11.44,1-22-1-31.57-7.47-10.24-7-15.49-16.79-16.73-28.94C199.84,43.68,199.79,42.1,199.71,41Zm62.3.31a22.26,22.26,0,0,0-1.37-8.49c-2.58-6.85-7.28-11.43-14.63-12.72C238.34,18.71,232.49,22,228,28c-6.65,8.93-5.07,22.6,3.32,29.9,8,6.95,19,6,25.77-2.12C260.61,51.57,262,46.64,262,41.28Z"/><path class="cls-1" d="M480.37,80.28c-8.2,0-16.1,0-24,0a1.55,1.55,0,0,1-1.76-1.25c-1-3.06-2.21-6-3.22-9.11a2.71,2.71,0,0,0-3-2.17q-13.92.11-27.85,0a2.65,2.65,0,0,0-2.86,2c-1.06,3-2.28,5.88-3.33,8.84a2.37,2.37,0,0,1-2.57,1.83q-10.21-.06-20.42,0c-1.36,0-1.85-.08-1.18-1.64q16.19-37.68,32.26-75.4a2.68,2.68,0,0,1,2.78-1.93q10.2.06,20.42,0a2.65,2.65,0,0,1,2.83,1.83q15.66,37.68,31.38,75.33C480.05,79.16,480.16,79.62,480.37,80.28ZM425.06,50.57c6.2,0,12.09,0,18,0,1.72,0,.83-1,.6-1.59q-4-11.22-8.16-22.41c-.15-.39,0-1-.83-1.1C431.5,33.75,428.33,42,425.06,50.57Z"/><path class="cls-1" d="M562.11,1.78C561,3.91,560,5.84,559,7.76q-12,22.64-24,45.27a10.37,10.37,0,0,0-1.29,5.1c0,6.81,0,13.62,0,20.43,0,1.32-.33,1.73-1.71,1.72q-10.11-.12-20.23,0c-1.49,0-1.8-.45-1.79-1.85.07-6.81,0-13.62,0-20.43A8.28,8.28,0,0,0,509,53.89Q495.48,28.81,482,3.7c-1.09-2-1.09-2.07,1.15-2.07,6.4,0,12.8,0,19.19-.08a3.34,3.34,0,0,1,3.38,2.07c5,9.25,10,18.46,15,27.69.35.64.73,1.27,1.11,1.94.8-.46,1-1.25,1.3-1.89q7.33-13.82,14.6-27.66a3.32,3.32,0,0,1,3.37-2.07c6.33.1,12.66,0,19,0C560.67,1.67,561.27,1.74,562.11,1.78Z"/><path class="cls-1" d="M154.29,1.62c11,0,22,0,33,0,1.58,0,2.1.34,2.06,2-.12,5-.1,10,0,15.05,0,1.37-.37,1.73-1.72,1.72-6.47-.07-12.93,0-19.39-.07-1.61,0-2,.4-2,2,.06,18.56,0,37.13.08,55.69,0,1.72-.29,2.32-2.19,2.28-6.6-.15-13.2-.11-19.8,0-1.59,0-1.93-.44-1.92-2,0-18.56,0-37.12.07-55.68,0-1.81-.35-2.45-2.32-2.4-6,.14-12.1,0-18.15.09-1.85,0-2.61-.34-2.54-2.43.18-4.95.08-9.9,0-14.85,0-1.05.08-1.53,1.41-1.52,11.13.08,22.27.05,33.41.05Z"/><path class="cls-1" d="M586.12.94a13.14,13.14,0,1,1-13.27,13A13.09,13.09,0,0,1,586.12.94Zm0,19.22a6.28,6.28,0,0,0,6.44-6.11,6.29,6.29,0,0,0-6.42-6.13A6.21,6.21,0,0,0,579.78,14,6.18,6.18,0,0,0,586.15,20.16Z"/><path class="cls-1" d="M47.5,45.89c.62-3.14.25-6.32.27-9.49,0-10.9,0-21.8,0-32.7A7.28,7.28,0,0,1,48.15.27l.32,0,.3-.1c6.76.06,13.52.2,20.28.13,2.07,0,2.66.53,2.64,2.63-.1,13.75.11,27.51-.09,41.26-.23,15.2-7.71,26-21.2,32.56-9.24,4.53-18.78,4.22-28.1.31C8.15,71.15.89,60,.29,45-.28,30.59.16,16.18.17,1.8A7,7,0,0,1,.52.27L.83.3l.3-.1C7.67.26,14.2.46,20.74.32c2.56-.06,3.37.5,3.34,3.22C23.92,17,24,30.35,24,43.75c0,5.06,2.27,8.93,6.93,11.14,4.43,2.1,8.6,1.37,12.46-1.48a11.13,11.13,0,0,0,4-6.26Z"/><path class="cls-1" d="M111.48,16.31C111,25.86,104.65,32,94.8,32.8c-7.45.64-15.26-8.06-15.26-16.44a16,16,0,0,1,31.94-.05Zm-16,8a8,8,0,0,0,8-7.73c.28-4.48-4-7.82-7.86-8.07a7.76,7.76,0,0,0-8,8A7.94,7.94,0,0,0,95.43,24.29Z"/><path class="cls-2" d="M47.5,45.89l-.12,1.26C46.85,46.68,46.91,46.26,47.5,45.89Z"/><path class="cls-3" d="M1.13.2.83.3.52.27C.69,0,.89-.11,1.13.2Z"/><path class="cls-3" d="M48.77.2l-.3.1-.32,0C48.32,0,48.52-.11,48.77.2Z"/></g></g></svg>