<svg xmlns="http://www.w3.org/2000/svg" viewBox="0 0 215.87 79.07"><defs><style>.cls-1{fill:#7e1fff;fill-rule:evenodd;}</style></defs><g id="Layer_2" data-name="Layer 2"><g id="Layer_5" data-name="Layer 5"><path class="cls-1" d="M77.39,23.8V47.6H89.1V38.53c0-6,0-9.3.09-9.74a6.25,6.25,0,0,1,.89-2.5,3.69,3.69,0,0,1,3.55-1.66c2,.11,3.25,1.32,3.61,3.63.06.35.09,3.94.09,10V47.6H109v-11c0-9.25,0-11.14-.13-12.07a12.56,12.56,0,0,0-3.39-7.73,10.2,10.2,0,0,0-6.13-2.93,19.48,19.48,0,0,0-4.27.13,10.34,10.34,0,0,0-5.28,2.86l-.83.83V0H77.39ZM201.87.36c-.32.73-12.22,29.51-12.22,29.55s3.12,0,6.93,0l6.94,0L209.69,15c3.39-8.19,6.17-14.92,6.18-15S212.76,0,209,0H202ZM51.72,13.88a15.25,15.25,0,0,0-6.5,2.4,17.44,17.44,0,0,0-7.38,12.1A20.71,20.71,0,0,0,38.22,36,16.18,16.18,0,0,0,48.53,47.69a11.87,11.87,0,0,0,4.76.72A11.86,11.86,0,0,0,56,48.25a10.45,10.45,0,0,0,5.54-2.86l.74-.75v3H73.57v-33H62.28v3.05l-.53-.56a10.8,10.8,0,0,0-5.49-3,10.23,10.23,0,0,0-2.59-.24C52.74,13.86,51.86,13.86,51.72,13.88Zm74.76.09a18.22,18.22,0,0,0-8.82,3.75,17.42,17.42,0,0,0-6,16.13,16.88,16.88,0,0,0,12.72,14,18.09,18.09,0,0,0,4.74.55,17.48,17.48,0,0,0,8.31-1.87,16.8,16.8,0,0,0,9.2-12.86,22.92,22.92,0,0,0,0-5.17,17.52,17.52,0,0,0-3.07-7.68,21,21,0,0,0-3.13-3.26A17.81,17.81,0,0,0,131.62,14,26,26,0,0,0,126.48,14Zm37.25,0a18,18,0,0,0-8.66,3.64,21.45,21.45,0,0,0-3.13,3.26,17.64,17.64,0,0,0-3.07,7.68,22.35,22.35,0,0,0,0,5.17A16.89,16.89,0,0,0,162.51,48.1a16.48,16.48,0,0,0,3.86.35,17.8,17.8,0,0,0,8.47-2,17.19,17.19,0,0,0,8.82-19A17,17,0,0,0,168.83,14,26.34,26.34,0,0,0,163.73,14ZM0,14.64s3.16,7.5,7,16.61,7,16.59,7,16.64-1.14,2.76-2.52,6S9,59.86,9,59.88s2.8,0,6.22,0l6.21,0,9.35-22.52C35.92,25,40.13,14.76,40.13,14.7s-1.25-.1-6.16-.08l-6.16,0L24,24.24c-2.08,5.28-3.8,9.58-3.82,9.56s-1.73-4.34-3.78-9.6l-3.74-9.56-6.34,0C2.85,14.6,0,14.61,0,14.64Zm57.44,10A6.61,6.61,0,0,1,62.3,29.4a8,8,0,0,1,0,3.48,6.67,6.67,0,0,1-4.8,4.81,8.5,8.5,0,0,1-3.48,0,6.82,6.82,0,0,1-4.56-3.94,7.07,7.07,0,0,1,.63-6.4A6.81,6.81,0,0,1,57.44,24.62Zm72.9,0a6.43,6.43,0,0,1,5.14,4.94,8.34,8.34,0,0,1,0,3.3,6.54,6.54,0,0,1-4.59,4.68,9.69,9.69,0,0,1-3.48,0,6.36,6.36,0,0,1-4.16-3.49,5.82,5.82,0,0,1-.63-2.93,6,6,0,0,1,.49-2.64,6.58,6.58,0,0,1,2.38-2.91A6.94,6.94,0,0,1,130.34,24.64Zm37.25,0a6.34,6.34,0,0,1,4.8,3.86,5.87,5.87,0,0,1,.49,2.64,5.92,5.92,0,0,1-.62,2.93,6.41,6.41,0,0,1-4.16,3.49,9.69,9.69,0,0,1-3.48,0A6.51,6.51,0,0,1,160,32.88a8.12,8.12,0,0,1,0-3.47,6.44,6.44,0,0,1,6.28-4.88A9.21,9.21,0,0,1,167.59,24.64Zm24.82,8.17A7.9,7.9,0,0,0,185.6,39a9.42,9.42,0,0,0,0,3.47,7.51,7.51,0,0,0,5.81,5.61,9.12,9.12,0,0,0,1.59.14,7.8,7.8,0,0,0,7.81-7.84,7.35,7.35,0,0,0-3.56-6.49A8.09,8.09,0,0,0,192.41,32.81ZM96,50.73a3.81,3.81,0,0,0-2.16,5.55,4.53,4.53,0,0,0,1.73,1.53,2.68,2.68,0,0,0,1.6.27,2.64,2.64,0,0,0,1.59-.27A4.4,4.4,0,0,0,100.59,56a3.75,3.75,0,0,0-1.87-5,2.75,2.75,0,0,0-1.46-.34A3.47,3.47,0,0,0,96,50.73Zm-9.78.18a7.34,7.34,0,0,0-6,5.78A10.61,10.61,0,0,0,80,58.61l0,1.21H77.38l0,2.78,0,2.78,1.25,0,1.25,0V78.58h6.79V65.43l2.31,0,2.32,0,0-2.78,0-2.78H86.71l.06-.61a2.43,2.43,0,0,1,1.75-2.45,4.49,4.49,0,0,1,2.56.09l.53.17s0-1.27,0-2.83V51.35l-.48-.18a7.78,7.78,0,0,0-3-.42A11.55,11.55,0,0,0,86.17,50.91ZM114,59.44a5.51,5.51,0,0,0-3.35,2l-.38.51V59.82h-6.88V78.58h6.88V73.46c0-2.94,0-5.33.08-5.62a3.3,3.3,0,0,1,.89-1.78,2.35,2.35,0,0,1,3.22.37c.51.74.5.64.54,6.65l0,5.5h6.86V72.42c0-6.53,0-7.28-.39-8.51a6,6,0,0,0-1.64-2.82,5.34,5.34,0,0,0-2.55-1.52A9,9,0,0,0,114,59.44Zm17.35-.07a8.94,8.94,0,0,0-7.48,7.79,14.42,14.42,0,0,0,0,4.15,10.62,10.62,0,0,0,1.92,4.45,8.39,8.39,0,0,0,5,3.17,9.84,9.84,0,0,0,3.8-.09,6.38,6.38,0,0,0,2.66-1.51l.69-.64v1.89h6.79V59.82h-6.79v1.94l-.45-.47a6.37,6.37,0,0,0-3.6-1.85A10.8,10.8,0,0,0,131.31,59.37Zm26.65.08a6.17,6.17,0,0,0-3.32,2l-.29.38V59.82l-3.46,0-3.46,0,0,9.36,0,9.36h7V73.25c0-5.63,0-5.75.4-6.51a2.13,2.13,0,0,1,1.92-1.15,1.92,1.92,0,0,1,1.59.6c.74.73.71.46.74,6.81l0,5.58h6.88l0-6.81c0-6.74,0-6.82-.22-7.54a10.83,10.83,0,0,0-.61-1.59A4.52,4.52,0,0,0,164,61.12a5.2,5.2,0,0,0-2.11-1.39A7.7,7.7,0,0,0,158,59.45Zm18.11,0a9.64,9.64,0,0,0-7,4.58A9.77,9.77,0,0,0,168,66.67a7.37,7.37,0,0,0-.24,2.49,9.22,9.22,0,0,0,.47,3.49,9.32,9.32,0,0,0,7.12,6.23,9.92,9.92,0,0,0,2.34.16,8.26,8.26,0,0,0,3.82-.66l.67-.28,0-3.15,0-3.15-.57.33a5,5,0,0,1-2.57.74,4.34,4.34,0,0,1-2.45-.45A3.58,3.58,0,0,1,175,70.7a2.47,2.47,0,0,1-.27-1.46,3.11,3.11,0,0,1,.2-1.38,3.89,3.89,0,0,1,3.66-2.33c1.26-.06,1.78.08,3.58,1,0,0,.07-1.38.07-3.11V60.26l-.54-.21A11.4,11.4,0,0,0,176.07,59.44Zm15.62,0a10.31,10.31,0,0,0-6.56,15.64,9,9,0,0,0,5.88,3.8,17.85,17.85,0,0,0,5.26,0,9.65,9.65,0,0,0,4.78-2.5,8,8,0,0,0,1.41-1.87s-1.34-.53-2.92-1.14l-2.89-1.11-.42.43a3.23,3.23,0,0,1-1.61,1c-2,.52-4-.53-4.37-2.29l-.07-.38,6.46,0,6.46,0V69.33a11.12,11.12,0,0,0-.15-2.29A9.63,9.63,0,0,0,200.31,62a9.06,9.06,0,0,0-4.68-2.46A15.26,15.26,0,0,0,191.69,59.44Zm-98,9.76v9.38h6.87V59.82H93.68Zm100.76-4.52a2.39,2.39,0,0,1,1.21.68,2.47,2.47,0,0,1,.78,1.33l.08.35h-3.14c-3.53,0-3.25.07-3-.74A3.29,3.29,0,0,1,194.44,64.68Zm-59.14.93a4,4,0,0,1,2.36,2,3.75,3.75,0,0,1-2.13,5.18,4.78,4.78,0,0,1-2.49,0,3.83,3.83,0,0,1-2.46-2.45,3.36,3.36,0,0,1-.14-1.34,2.67,2.67,0,0,1,.34-1.38A3.86,3.86,0,0,1,135.3,65.61Z"/></g></g></svg>